<svg xmlns="http://www.w3.org/2000/svg" width="63" height="63" viewBox="0 0 63 63">
  <g id="Grupo_1114041" data-name="Grupo 1114041" transform="translate(-313.051 -4433)">
    <rect id="Rectángulo_404782" data-name="Rectángulo 404782" width="63" height="63" transform="translate(313.051 4433)" fill="none"/>
    <g id="Layer_x0020_1" transform="translate(313.949 4435.249)">
      <g id="_624366576" transform="translate(0 0.057)">
        <g id="Grupo_1114040" data-name="Grupo 1114040">
          <g id="Grupo_1114038" data-name="Grupo 1114038" transform="translate(6.835)">
            <g id="Grupo_1114030" data-name="Grupo 1114030" transform="translate(4.871 9.712)">
              <path id="_624367536" d="M38.3,42.715H1.033A.711.711,0,0,1,.322,42V37.557a.711.711,0,0,1,.711-.711H38.3a.711.711,0,0,1,.711.711V42A.711.711,0,0,1,38.3,42.715ZM1.744,41.292H37.589V38.268H1.744ZM38.3,33.468H1.033a.711.711,0,0,1-.711-.711V10.282a.711.711,0,0,1,.711-.711H38.3a.711.711,0,0,1,.711.711V32.757A.711.711,0,0,1,38.3,33.468ZM1.744,32.045H37.589V10.993H1.744ZM38.3,6.193H1.033a.711.711,0,0,1-.711-.711V1.035A.711.711,0,0,1,1.033.324H38.3a.711.711,0,0,1,.711.711V5.482A.711.711,0,0,1,38.3,6.193ZM1.744,4.771H37.589V1.746H1.744Z" transform="translate(-0.322 -0.324)" fill-rule="evenodd"/>
            </g>
            <g id="Grupo_1114031" data-name="Grupo 1114031" transform="translate(0 3.86)">
              <path id="_624367296" d="M44.982,7.438H3.825a3.637,3.637,0,0,1,0-7.275H44.982a3.637,3.637,0,0,1,0,7.275ZM3.825,1.585a2.215,2.215,0,1,0,0,4.43H44.982a2.215,2.215,0,1,0,0-4.43H3.825Z" transform="translate(-0.188 -0.163)" fill-rule="evenodd"/>
            </g>
            <g id="Grupo_1114032" data-name="Grupo 1114032" transform="translate(14.719 21.411)">
              <path id="_624367752" d="M10.089,19.639a9.5,9.5,0,1,1,9.5-9.5A9.508,9.508,0,0,1,10.089,19.639Zm0-17.571a8.075,8.075,0,1,0,8.075,8.075,8.084,8.084,0,0,0-8.075-8.075Z" transform="translate(-0.592 -0.645)" fill-rule="evenodd"/>
            </g>
            <g id="Grupo_1114033" data-name="Grupo 1114033" transform="translate(19.953 24.574)">
              <path id="_624366432" d="M5,13.4A4.268,4.268,0,0,1,.736,9.137c0-.839.882-2.687,2.736-6.258.383-.737.713-1.373.883-1.737a.711.711,0,0,1,1.288,0c.17.365.5,1,.884,1.74C8.381,6.452,9.263,8.3,9.263,9.137A4.268,4.268,0,0,1,5,13.4ZM5,3.023l-.265.511c-.831,1.6-2.56,4.932-2.576,5.6a2.841,2.841,0,0,0,5.682,0c-.017-.671-1.745-4-2.575-5.6L5,3.023Z" transform="translate(-0.736 -0.732)" fill-rule="evenodd"/>
            </g>
            <g id="Grupo_1114034" data-name="Grupo 1114034" transform="translate(10.421)">
              <path id="_624367104" d="M11.938,5.339H1.185a.711.711,0,0,1-.711-.711V2.6c0-1.495.6-2.539,1.462-2.539h9.272c.849,0,1.441,1.023,1.441,2.487V4.628a.711.711,0,0,1-.711.711ZM1.9,3.917h9.331V2.544a2.489,2.489,0,0,0-.2-1.065H2.108A2.54,2.54,0,0,0,1.9,2.6V3.917Z" transform="translate(-0.474 -0.057)" fill-rule="evenodd"/>
            </g>
            <g id="Grupo_1114035" data-name="Grupo 1114035" transform="translate(0 50.681)">
              <path id="_624367080" d="M44.982,8.724H3.825a3.637,3.637,0,1,1,0-7.275H44.982a3.637,3.637,0,0,1,0,7.275ZM3.825,2.872a2.215,2.215,0,1,0,0,4.43H44.982a2.215,2.215,0,1,0,0-4.43H3.825Z" transform="translate(-0.188 -1.45)" fill-rule="evenodd"/>
            </g>
            <g id="Grupo_1114036" data-name="Grupo 1114036" transform="translate(4.03 14.159)">
              <path id="_624366792" d="M39.958,6.669H1.01A.711.711,0,0,1,.3,5.958v-4.8A.711.711,0,0,1,1.01.446H39.958a.711.711,0,0,1,.711.711v4.8a.711.711,0,0,1-.711.711ZM1.721,5.246H39.247V1.868H1.721Z" transform="translate(-0.299 -0.446)" fill-rule="evenodd"/>
            </g>
            <g id="Grupo_1114037" data-name="Grupo 1114037" transform="translate(4.03 41.434)">
              <path id="_624366984" d="M39.958,7.418H1.01A.711.711,0,0,1,.3,6.707v-4.8A.711.711,0,0,1,1.01,1.2H39.958a.711.711,0,0,1,.711.711v4.8A.711.711,0,0,1,39.958,7.418ZM1.721,6H39.247V2.618H1.721Z" transform="translate(-0.299 -1.196)" fill-rule="evenodd"/>
            </g>
          </g>
          <g id="Grupo_1114039" data-name="Grupo 1114039" transform="translate(0 56.534)">
            <path id="_624366648" d="M61.391,3.033H.711a.711.711,0,1,1,0-1.422H61.391a.711.711,0,0,1,0,1.422Z" transform="translate(0 -1.611)" fill-rule="evenodd"/>
          </g>
        </g>
      </g>
      <path id="Trazado_999818" data-name="Trazado 999818" d="M3.616,9.75A2.844,2.844,0,0,0,6.458,6.909c-.017-.671-1.745-4-2.575-5.6L3.616.8l-.265.511C2.521,2.907.792,6.238.775,6.91A2.844,2.844,0,0,0,3.616,9.75Z" transform="translate(27.434 26.127)" fill="#3b4b5c" fill-rule="evenodd"/>
      <path id="Trazado_999819" data-name="Trazado 999819" d="M10.234,4.574c1.853,3.57,2.735,5.417,2.735,6.256a4.263,4.263,0,1,1-8.526,0c0-.839.882-2.687,2.736-6.258.383-.737.713-1.373.883-1.737a.711.711,0,0,1,1.288,0c.17.365.5,1,.884,1.74ZM8.706,16.834A8.075,8.075,0,1,0,.631,8.759a8.084,8.084,0,0,0,8.075,8.075Z" transform="translate(22.345 22.206)" fill="#ffd400" fill-rule="evenodd"/>
      <path id="Trazado_999820" data-name="Trazado 999820" d="M.467,3.864h37.4V.485H.338V3.864Z" transform="translate(11.95 15.153)" fill="#596b7f" fill-rule="evenodd"/>
      <path id="Trazado_999821" data-name="Trazado 999821" d="M.361,3.388H36.207V.363H.361Z" transform="translate(12.767 10.829)" fill="#3b4b5c" fill-rule="evenodd"/>
      <path id="Trazado_999822" data-name="Trazado 999822" d="M4.386,4.633H43.6A2.215,2.215,0,1,0,43.6.2H2.442a2.215,2.215,0,1,0,0,4.43H4.387Z" transform="translate(8.03 5.137)" fill="#596b7f" fill-rule="evenodd"/>
      <path id="Trazado_999823" data-name="Trazado 999823" d="M.513,2.534H9.844V1.161A2.489,2.489,0,0,0,9.646.1H.725A2.54,2.54,0,0,0,.513,1.213V2.534Z" transform="translate(18.165 1.383)" fill="#3b4b5c" fill-rule="evenodd"/>
      <path id="Trazado_999824" data-name="Trazado 999824" d="M36.206.617H.361V21.669H36.206ZM18.284,1.646a9.5,9.5,0,1,1-9.5,9.5,9.508,9.508,0,0,1,9.5-9.5Z" transform="translate(12.767 19.822)" fill="#3b4b5c" fill-rule="evenodd"/>
      <path id="Trazado_999825" data-name="Trazado 999825" d="M37.735,1.235H.338V4.613H37.864V1.235Z" transform="translate(11.949 41.678)" fill="#596b7f" fill-rule="evenodd"/>
      <path id="Trazado_999826" data-name="Trazado 999826" d="M36.207,1.367H.361V4.391H36.207Z" transform="translate(12.767 46.347)" fill="#3b4b5c" fill-rule="evenodd"/>
      <path id="Trazado_999827" data-name="Trazado 999827" d="M41.655,1.489H2.442a2.215,2.215,0,1,0,0,4.43H43.6a2.215,2.215,0,1,0,0-4.43H41.655Z" transform="translate(8.03 50.671)" fill="#596b7f" fill-rule="evenodd"/>
    </g>
  </g>
</svg>
