<svg xmlns="http://www.w3.org/2000/svg" width="63" height="63" viewBox="0 0 63 63">
  <g id="Grupo_1114043" data-name="Grupo 1114043" transform="translate(-613.051 -4433)">
    <rect id="Rectángulo_404782" data-name="Rectángulo 404782" width="63" height="63" transform="translate(613.051 4433)" fill="none"/>
    <g id="Layer_x0020_1" transform="translate(599.106 4424.532)">
      <path id="Trazado_999828" data-name="Trazado 999828" d="M65.9,61.81c-.223,0-.444.005-.661.012a8.359,8.359,0,0,1-1.808,6.594h8.9a1.526,1.526,0,0,1,0,3.053h-53a1.526,1.526,0,0,1,0-3.053h8.9a8.358,8.358,0,0,1-1.808-6.594c-.217-.007-.438-.012-.661-.012a1.526,1.526,0,0,1-1.492-1.2L20.533,43.364H16.728A1.526,1.526,0,0,1,15.2,41.837V32.194a1.526,1.526,0,0,1,1.526-1.526h3.3c2.927-5.168,1.357-6.575,2.752-7.484a1.525,1.525,0,0,1,1.45-.117l1.886.833,3.624-7.137a1.525,1.525,0,0,1,1.75-.784l1.983.523a28.632,28.632,0,0,1,2.672-3.412l2.811-1.767a1.527,1.527,0,0,1,1.624,2.585l-2.567,1.614-1.95,2.633a1.514,1.514,0,0,1-1.9,1.687l-.428-.113-.059-.015-1.777-.469-2.991,5.891,3.574,1.579a1.526,1.526,0,0,1,.865,1.032l.694,2.921H68.507l.457-.649-1.447-2.7-6.9-3.673a1.472,1.472,0,0,1-.248-.143,1.394,1.394,0,0,1-.648-1.232,1.487,1.487,0,0,1,.448-1.1l1.667-1.667-.895-2.07c-.187-.193-4.131-1.76-4.638-2.292-1.036-1.087-2.278-2.321-3.086-3.055a14.563,14.563,0,0,1-2.844,1.34,1.863,1.863,0,0,1-.932.178l-4.691.1a1.526,1.526,0,0,1-.031-3.052l4.621-.1c3.373-1.257,1.924-1.406,3.119-1.885.9-.36,1.357-.543,5.855,4.16l4.447,2.087a1.525,1.525,0,0,1,.752.776c1.893,4.379,2.372,4.194.3,6.2l5.545,2.952a1.53,1.53,0,0,1,.628.626c1.868,3.479,2.564,4.212,2.184,5.2h2.759a1.526,1.526,0,0,1,1.526,1.526v9.642a1.526,1.526,0,0,1-1.526,1.526H71.126L67.793,58.757H71.9V58.1a1.526,1.526,0,0,1,3.053,0v4.366a1.526,1.526,0,1,1-3.053,0V61.81h-6Zm-44.186-21.5h8.815a1.425,1.425,0,0,1,1.454,1.1q.009.034.016.069h0c0,.023.009.046.013.07h0c0,.023.007.047.01.07h0c0,.023.006.047.007.071h0q0,.035,0,.071h0c0,.024,0,.047,0,.071h0c0,.024,0,.047,0,.071h0c0,.024,0,.047,0,.071h0c0,.024,0,.047-.007.071h0c0,.023-.006.047-.01.07h0c0,.023-.008.046-.013.07h0c0,.023-.01.046-.016.069a1.424,1.424,0,0,1-1.454,1.1H23.657l.9,4.163H67.1l.9-4.163H35.512l-.093,0-.09-.006-.087-.011-.084-.015-.081-.019L35,43.287h0l-.075-.026-.072-.03-.069-.033h0l-.066-.036h0l-.063-.039-.06-.042h0l-.057-.045h0l-.054-.048-.052-.05-.049-.053h0c-.016-.018-.031-.036-.046-.055s-.029-.038-.043-.057-.027-.039-.04-.059h0c-.013-.02-.025-.04-.037-.061h0c-.012-.02-.023-.041-.034-.062s-.021-.042-.031-.064h0c-.01-.021-.019-.043-.028-.065h0c-.009-.022-.017-.044-.025-.066h0c-.008-.022-.015-.045-.022-.068h0c-.007-.023-.013-.046-.019-.069h0c-.006-.023-.011-.046-.016-.069h0c0-.023-.009-.047-.013-.07h0c0-.023-.007-.047-.01-.071h0c0-.024-.005-.047-.007-.071h0c0-.024,0-.048,0-.071h0c0-.024,0-.048,0-.072s0-.048,0-.072h0c0-.024,0-.048,0-.071h0c0-.024,0-.048.007-.071h0c0-.024.006-.047.01-.071h0c0-.023.008-.047.013-.07h0c0-.023.01-.046.016-.069h0c.006-.023.012-.046.019-.069h0c.007-.023.014-.045.022-.068h0c.008-.022.016-.044.025-.066h0c.009-.022.018-.044.028-.065h0c.01-.021.02-.043.031-.064s.022-.042.034-.062h0c.012-.02.024-.041.037-.061h0c.013-.02.026-.04.04-.059s.028-.038.043-.057.03-.037.046-.055h0l.049-.053.052-.05.054-.048h0l.057-.045h0l.06-.042.063-.039h0l.066-.036h0l.069-.033.072-.03L35,40.386h0l.078-.022.081-.019.084-.015.087-.011.09-.006.093,0H73.406v-6.59H18.255v6.59h3.461Zm28.8,28.1a8.357,8.357,0,0,1-1.807-6.606H42.947a8.357,8.357,0,0,1-1.807,6.606h9.38ZM23.468,30.668h7.46L30.569,29.2l-5.684-2.512a18.533,18.533,0,0,1-1.417,3.976ZM59.051,58.216a5.46,5.46,0,0,0-4.037-.046,5.311,5.311,0,1,0,4.037.046ZM54.027,55.28l.149-.055h0a8.362,8.362,0,0,1,5.587,0l.023.008.123.045a8.25,8.25,0,0,1,4.209,3.483h.549l1.771-8.178H25.219l1.771,8.178h.549a8.251,8.251,0,0,1,4.205-3.481l.131-.048.017-.006a8.361,8.361,0,0,1,5.584,0l.016.006.133.049a8.251,8.251,0,0,1,4.2,3.481h8a8.254,8.254,0,0,1,4.2-3.478ZM36.751,58.213h0l-.1-.039h0a5.463,5.463,0,0,0-3.932,0,5.311,5.311,0,1,0,4.031.042Z" fill="#000002" fill-rule="evenodd"/>
      <path id="Trazado_999829" data-name="Trazado 999829" d="M137.355,36.576l-2.066-.057a1.433,1.433,0,0,1-.6,1.836l-2.567,1.614-1.95,2.633a1.514,1.514,0,0,1-1.9,1.687l-.428-.113-.059-.015-1.777-.469-2.991,5.891,3.574,1.579a1.526,1.526,0,0,1,.865,1.032l.694,2.921h34.458l.457-.649-1.447-2.7-6.9-3.673a1.472,1.472,0,0,1-.248-.143,1.394,1.394,0,0,1-.648-1.232,1.487,1.487,0,0,1,.448-1.1l1.667-1.667-.895-2.07c-.187-.193-4.132-1.76-4.638-2.292-1.036-1.087-2.278-2.321-3.086-3.055a14.563,14.563,0,0,1-2.844,1.34,1.862,1.862,0,0,1-.932.178l-4.691.1A1.465,1.465,0,0,1,137.355,36.576Z" transform="translate(-94.108 -24.448)" fill="#2b4d66" fill-rule="evenodd"/>
      <path id="Trazado_999830" data-name="Trazado 999830" d="M90.213,206.718H39.2v6.59H51.479a1.425,1.425,0,0,1,1.454,1.1l.016.069.013.07.01.071.007.071,0,.071,0,.072,0,.072,0,.071-.007.071-.01.071-.013.07-.016.069a1.424,1.424,0,0,1-1.454,1.1H44.605l.9,4.163H88.05l.9-4.163H56.46l-.093,0-.09-.006-.087-.011-.084-.015-.081-.019-.078-.022-.075-.026-.072-.03-.069-.033-.066-.036-.063-.039-.06-.042-.057-.045-.054-.048-.052-.05-.049-.053-.046-.055-.043-.057-.04-.059-.037-.061-.034-.062-.031-.064-.028-.065-.025-.066-.022-.068-.019-.069-.016-.069-.013-.07-.01-.071-.007-.071,0-.071v-.072l0-.072,0-.071.007-.071.01-.071.013-.07.016-.069.019-.069.022-.068.025-.066.028-.065.031-.064.034-.062.037-.061.04-.059.043-.057.046-.055.049-.053.052-.05.055-.048.057-.045.06-.042.063-.039.066-.036.069-.033.072-.03.075-.026.078-.022.081-.019.084-.015.087-.011.09-.006.093,0H94.354v-6.59h-4.14Z" transform="translate(-20.948 -172.997)" fill="#dc8758" fill-rule="evenodd"/>
      <path id="Trazado_999831" data-name="Trazado 999831" d="M87.654,155.437l-.359-1.464-5.684-2.512a18.532,18.532,0,0,1-1.417,3.976h7.46Z" transform="translate(-56.725 -124.769)" fill="#2b4d66" fill-rule="evenodd"/>
      <path id="Trazado_999832" data-name="Trazado 999832" d="M135.178,339.26H93.956l1.771,8.178h.549a8.251,8.251,0,0,1,4.205-3.481l.131-.048.017-.006a8.361,8.361,0,0,1,5.584,0l.016.006.133.049a8.251,8.251,0,0,1,4.2,3.481h8a8.254,8.254,0,0,1,4.2-3.478l.149-.055h0a8.361,8.361,0,0,1,5.587,0l.023.008.123.045a8.25,8.25,0,0,1,4.209,3.483h.549l1.771-8.178Z" transform="translate(-68.737 -288.681)" fill="#ffd772" fill-rule="evenodd"/>
      <g id="Grupo_1114042" data-name="Grupo 1114042" transform="translate(29.373 57.805)">
        <path id="Trazado_999833" data-name="Trazado 999833" d="M137.235,401.373a5.319,5.319,0,0,0-3.243-4.892h0l-.1-.04a5.463,5.463,0,0,0-3.932,0,5.311,5.311,0,1,0,7.274,4.934Z" transform="translate(-126.613 -396.073)" fill="#375e7d" fill-rule="evenodd"/>
        <path id="Trazado_999834" data-name="Trazado 999834" d="M305.228,396.44a5.311,5.311,0,1,0,4.037.046,5.46,5.46,0,0,0-4.037-.047Z" transform="translate(-279.586 -396.076)" fill="#375e7d" fill-rule="evenodd"/>
      </g>
    </g>
  </g>
</svg>
