<svg xmlns="http://www.w3.org/2000/svg" width="63" height="63.001" viewBox="0 0 63 63.001">
  <g id="Grupo_1114050" data-name="Grupo 1114050" transform="translate(-923.051 -4433.999)">
    <rect id="Rectángulo_404782" data-name="Rectángulo 404782" width="63" height="63" transform="translate(923.051 4434)" fill="none"/>
    <g id="Grupo_1114049" data-name="Grupo 1114049" transform="translate(840.252 4430)">
      <g id="Layer_5" data-name="Layer 5" transform="translate(94.618 4.749)">
        <g id="Grupo_1114047" data-name="Grupo 1114047" transform="translate(0)">
          <g id="Grupo_1114044" data-name="Grupo 1114044">
            <rect id="Rectángulo_405675" data-name="Rectángulo 405675" width="39.034" height="43.167" rx="8" transform="translate(0 13.255)" fill="#9cd069"/>
            <rect id="Rectángulo_405676" data-name="Rectángulo 405676" width="32.758" height="4.728" rx="2.364" transform="translate(3.597)" fill="#9cd069"/>
            <path id="Trazado_999835" data-name="Trazado 999835" d="M326.514,56.348a8.645,8.645,0,0,1,2.483.364V47.821h-4.83v8.527Z" transform="translate(-296.129 -43.093)" fill="#9cd069"/>
            <path id="Trazado_999836" data-name="Trazado 999836" d="M151.674,56.348h2.347V47.821h-4.83v8.891a8.644,8.644,0,0,1,2.483-.364Z" transform="translate(-143.026 -43.093)" fill="#9cd069"/>
          </g>
          <path id="Trazado_999837" data-name="Trazado 999837" d="M226.7,77.463h3.952v-2.6h.473a1.454,1.454,0,1,0,0-2.908h-4.9a1.454,1.454,0,1,0,0,2.908h.473Z" transform="translate(-209.16 -64.208)" fill="#407195"/>
          <g id="Grupo_1114046" data-name="Grupo 1114046" transform="translate(7.188 25.161)">
            <path id="Trazado_999838" data-name="Trazado 999838" d="M0,0H3.94a8.613,8.613,0,0,1,8.608,8.608v8.71H10.629A10.634,10.634,0,0,1,0,6.69Z" transform="translate(12.774 19.335) rotate(-118.743)" fill="#29d0b3"/>
            <g id="Grupo_1114045" data-name="Grupo 1114045" transform="translate(0 5.699)">
              <path id="Trazado_999839" data-name="Trazado 999839" d="M168.236,267.066a8.591,8.591,0,0,1-.391-7.467,7.346,7.346,0,0,0-2.632-1.142l-7.288-1.582-.349,1.606a9.1,9.1,0,0,0,6.963,10.823l5.591,1.213Z" transform="translate(-157.367 -256.876)" fill="#29d0b3"/>
              <path id="Trazado_999840" data-name="Trazado 999840" d="M259.485,366h0v0Z" transform="translate(-246.72 -352.356)"/>
            </g>
          </g>
          <path id="Trazado_999841" data-name="Trazado 999841" d="M178.222,462.089l-.356-1.145a8.713,8.713,0,0,1-.945.052H155.184a8.773,8.773,0,0,1-.944-.052l-.287.922-.679,2.181a1.565,1.565,0,0,0,1.494,2.03h22.568a1.565,1.565,0,0,0,1.494-2.03Z" transform="translate(-146.536 -404.575)" fill="#29d0b3"/>
        </g>
      </g>
      <g id="Layer_3" data-name="Layer 3" transform="translate(93.868 3.999)">
        <g id="Grupo_1114048" data-name="Grupo 1114048">
          <path id="Trazado_999842" data-name="Trazado 999842" d="M173.655,205.466l-7.636,4.19a9.292,9.292,0,0,0-3.758,3.8,8.088,8.088,0,0,0-2.15-.8l-7.288-1.582a.75.75,0,0,0-.892.574l-.349,1.606a9.85,9.85,0,0,0,7.537,11.715l5.581,1.211a.76.76,0,0,0,.551-.084l5.843-3.206a11.379,11.379,0,0,0,4.5-15.449l-.923-1.683a.75.75,0,0,0-1.018-.3Zm-19.47,14.4a8.3,8.3,0,0,1-1.138-6.289l.19-.873,6.555,1.423a6.591,6.591,0,0,1,1.871.717c-.045.132-.088.265-.127.4a9.361,9.361,0,0,0-.356,3.252,16.772,16.772,0,0,0-1.8-1.437.75.75,0,1,0-.853,1.234,15.19,15.19,0,0,1,3.349,3.164,9.506,9.506,0,0,0,.436.907l1.1,2.01-3.982-.864a8.3,8.3,0,0,1-5.251-3.642Zm16.188,1.715-4.664,2.559a17.806,17.806,0,0,1,3.787-8.891.75.75,0,1,0-1.169-.94,19.254,19.254,0,0,0-3.968,8.659l-.728-1.327a7.858,7.858,0,0,1,3.109-10.67l6.979-3.829.563,1.025a9.89,9.89,0,0,1-3.908,13.413Z" transform="translate(-144.168 -180.202)"/>
          <circle id="Elipse_12024" data-name="Elipse 12024" cx="0.75" cy="0.75" r="0.75" transform="translate(39.034 22.813)"/>
          <path id="Trazado_999843" data-name="Trazado 999843" d="M133.652,29.812a.75.75,0,0,0-.75.75v21.96a7.908,7.908,0,0,1-7.9,7.9H103.267a7.908,7.908,0,0,1-7.9-7.9V26.653a7.908,7.908,0,0,1,7.9-7.9H125a7.879,7.879,0,0,1,7.667,6,.75.75,0,1,0,1.456-.359,9.37,9.37,0,0,0-5.89-6.569v-7.6h1.172a2.317,2.317,0,0,0,2.315-2.315v-1.6A2.317,2.317,0,0,0,129.408,4H99.78a2.317,2.317,0,0,0-2.315,2.315v1.6a2.317,2.317,0,0,0,2.315,2.315h.253v7.6a9.415,9.415,0,0,0-6.166,8.826V52.522a9.414,9.414,0,0,0,7.48,9.2L100.641,64a2.315,2.315,0,0,0,2.21,3h22.568a2.315,2.315,0,0,0,2.21-3l-.708-2.274a9.414,9.414,0,0,0,7.48-9.2V30.562a.75.75,0,0,0-.75-.75ZM121.906,10.227v7.027h-5.045v-1.12a2.2,2.2,0,0,0-.277-4.391h-4.9a2.2,2.2,0,0,0-.277,4.391v1.12h-5.045V10.227Zm-9,7.027V15.4a.75.75,0,0,0-.75-.75h-.473a.7.7,0,0,1,0-1.408h4.9a.7.7,0,0,1,0,1.408h-.473a.75.75,0,0,0-.75.75v1.852Zm13.828.161A9.476,9.476,0,0,0,125,17.254h-1.6V10.227h3.33Zm-27.771-9.5v-1.6A.816.816,0,0,1,99.78,5.5h29.628a.816.816,0,0,1,.815.815v1.6a.816.816,0,0,1-.815.815H99.78a.816.816,0,0,1-.815-.815Zm2.568,2.315h3.33v7.027h-1.6a9.406,9.406,0,0,0-1.733.163v-7.19ZM126.2,64.444a.815.815,0,0,1-.778,1.057H102.851a.815.815,0,0,1-.778-1.057l.788-2.533c.135.006.27.01.405.01H125c.136,0,.271,0,.405-.01l.788,2.533Z" transform="translate(-93.868 -3.999)"/>
        </g>
      </g>
    </g>
  </g>
</svg>
