<svg xmlns="http://www.w3.org/2000/svg" xmlns:xlink="http://www.w3.org/1999/xlink" width="108.914" height="108.914" viewBox="0 0 108.914 108.914">
  <defs>
    <filter id="Trazado_874925" x="0" y="0" width="108.914" height="108.914" filterUnits="userSpaceOnUse">
      <feOffset dy="3" input="SourceAlpha"/>
      <feGaussianBlur stdDeviation="3" result="blur"/>
      <feFlood flood-opacity="0.161"/>
      <feComposite operator="in" in2="blur"/>
      <feComposite in="SourceGraphic"/>
    </filter>
    <clipPath id="clip-path">
      <path id="path5226" d="M0-682.665H54.935v54.935H0Z" transform="translate(0 682.665)"/>
    </clipPath>
  </defs>
  <g id="Grupo_1114084" data-name="Grupo 1114084" transform="translate(6913.008 5514.622)">
    <g transform="matrix(1, 0, 0, 1, -6913.01, -5514.62)" filter="url(#Trazado_874925)">
      <g id="Trazado_874925-2" data-name="Trazado 874925" transform="translate(9 6)" fill="#bacbec" opacity="0.859">
        <path d="M 45.45676803588867 89.41407012939453 C 39.52198028564453 89.41407012939453 33.76551818847656 88.25206756591797 28.34726715087891 85.96034240722656 C 23.11311721801758 83.74648284912109 18.41204261779785 80.57682800292969 14.37464332580566 76.5394287109375 C 10.33724308013916 72.50202941894531 7.167593002319336 67.80095672607422 4.953730583190918 62.56679534912109 C 2.662005424499512 57.14855575561523 1.500005483627319 51.39208221435547 1.500005483627319 45.45729446411133 C 1.500005483627319 39.52198028564453 2.662005424499512 33.76551818847656 4.953730583190918 28.34726905822754 C 7.167593002319336 23.11310577392578 10.33724308013916 18.41203117370605 14.37464332580566 14.37464332580566 C 18.41204261779785 10.33724403381348 23.11311721801758 7.167593955993652 28.34726715087891 4.953731060028076 C 33.76551818847656 2.662006139755249 39.52198028564453 1.500006198883057 45.45676803588867 1.500006198883057 C 51.39155578613281 1.500006198883057 57.14802932739258 2.662006139755249 62.56626892089844 4.953731060028076 C 67.80043029785156 7.167593955993652 72.50150299072266 10.33724403381348 76.53890228271484 14.37464332580566 C 80.57630920410156 18.41203117370605 83.74595642089844 23.11310577392578 85.95981597900391 28.34726905822754 C 88.25154113769531 33.76551818847656 89.41354370117188 39.52198028564453 89.41354370117188 45.45676803588867 C 89.41354370117188 51.39208221435547 88.25154113769531 57.14855575561523 85.95981597900391 62.56679534912109 C 83.74595642089844 67.80095672607422 80.57630920410156 72.50202941894531 76.53890228271484 76.5394287109375 C 72.50150299072266 80.57682800292969 67.80043029785156 83.74648284912109 62.56626892089844 85.96034240722656 C 57.14802932739258 88.25206756591797 51.39155578613281 89.41407012939453 45.45676803588867 89.41407012939453 Z" stroke="none"/>
        <path d="M 45.45676803588867 3 C 39.72381210327148 3 34.1639404296875 4.12213134765625 28.93159484863281 6.335227966308594 C 23.87622833251953 8.473472595214844 19.33542633056641 11.53517150878906 15.43529510498047 15.435302734375 C 11.53517150878906 19.33543395996094 8.473464965820312 23.87622833251953 6.335227966308594 28.93160247802734 C 4.122123718261719 34.16394424438477 3 39.72381591796875 3 45.4572868347168 C 3 51.19024658203125 4.122123718261719 56.75011825561523 6.335227966308594 61.98246002197266 C 8.473464965820312 67.03782653808594 11.53517150878906 71.57862854003906 15.43529510498047 75.478759765625 C 19.33542633056641 79.37889099121094 23.87622833251953 82.44058990478516 28.93159484863281 84.57883453369141 C 34.1639404296875 86.79193115234375 39.72381210327148 87.9140625 45.45676803588867 87.9140625 C 51.18972396850586 87.9140625 56.74959564208984 86.79193115234375 61.98194122314453 84.57883453369141 C 67.03730773925781 82.44058990478516 71.57810974121094 79.37889099121094 75.47824096679688 75.478759765625 C 79.37837219238281 71.57862854003906 82.44007110595703 67.03782653808594 84.57830810546875 61.98246002197266 C 86.79141235351562 56.75011825561523 87.91353607177734 51.19024658203125 87.91353607177734 45.4567756652832 C 87.91353607177734 39.72381591796875 86.79141235351562 34.16394424438477 84.57830810546875 28.93160247802734 C 82.44007110595703 23.87622833251953 79.37837219238281 19.33543395996094 75.47824096679688 15.435302734375 C 71.57810974121094 11.53517150878906 67.03730773925781 8.473472595214844 61.98194122314453 6.335227966308594 C 56.74959564208984 4.12213134765625 51.18972396850586 3 45.45676803588867 3 M 45.45676803588867 0 C 70.56185150146484 0 90.91353607177734 20.35169219970703 90.91353607177734 45.4567756652832 L 90.91353607177734 45.4572868347168 C 90.91353607177734 70.5623779296875 70.56185150146484 90.9140625 45.45676803588867 90.9140625 C 20.3516845703125 90.9140625 0 70.5623779296875 0 45.4572868347168 L 0 45.4567756652832 C 0 20.35169219970703 20.3516845703125 0 45.45676803588867 0 Z" stroke="none" fill="#fff"/>
      </g>
    </g>
    <g id="g5220" transform="translate(-6886.268 -4807.967)">
      <g id="g5222" transform="translate(0 -682.665)">
        <g id="g5224" clip-path="url(#clip-path)">
          <g id="g5230" transform="translate(0.805 42.828)">
            <path id="path5232" d="M0-24.521c3.333,0,3.333-2.146,6.666-2.146S10-24.521,13.332-24.521,16.665-26.667,20-26.667s3.333,2.146,6.666,2.146S30-26.667,33.329-26.667s3.333,2.146,6.666,2.146,3.333-2.146,6.666-2.146,3.333,2.146,6.665,2.146v9.156H0Z" transform="translate(0 26.667)" fill="#b3d8f4"/>
          </g>
          <g id="g5234" transform="translate(2.995 0.805)">
            <path id="path5236" d="M-123.572-383.015l-3.869,3.869v4.166l2.317,2.317c.1.037.208.071.319.1l5.843-5.843a16.29,16.29,0,0,0,5.787,2.4v2.614a5.317,5.317,0,0,0,3.261,1.027,5.316,5.316,0,0,0,3.259-1.026v-2.615a16.289,16.289,0,0,0,5.786-2.4L-97-374.536h4.166l2.528-2.528-5.952-5.952a16.288,16.288,0,0,0,2.4-5.787h5.469l2.946-2.946v-3.575h-8.416a16.286,16.286,0,0,0-2.4-5.787l3.868-3.868v-4.166l-2.528-2.528-5.952,5.952a16.287,16.287,0,0,0-5.787-2.4v-5.469l-2.946-2.946h-3.575v8.416a16.291,16.291,0,0,0-5.786,2.4l-3.868-3.868H-127l-2.528,2.528,5.952,5.952a16.283,16.283,0,0,0-2.4,5.787h-5.47l-2.946,2.946v3.575h8.416a16.286,16.286,0,0,0,2.4,5.786" transform="translate(134.386 416.534)" fill="#c6c5ca"/>
          </g>
          <g id="g5238" transform="translate(23.918 16.559)">
            <path id="path5240" d="M-92.678-73.009-88.99-79.4h-5.433l-6.367,11.028h5.425l-3.689,6.389h5.433l6.367-11.028Z" transform="translate(100.789 79.398)" fill="#898890"/>
          </g>
          <g id="g5242" transform="translate(20.699 16.559)">
            <path id="path5244" d="M-92.678-73.009-88.99-79.4h-5.433l-6.367,11.028h5.425l-3.689,6.389h5.433l6.367-11.028Z" transform="translate(100.789 79.398)" fill="#ffe477"/>
          </g>
          <g id="g5246" transform="translate(29.078 42.828)">
            <path id="path5248" d="M-18.391-24.521c2.687,0,3.208-1.4,5.056-1.936a5.664,5.664,0,0,0-1.609-.21c-2.687,0-3.208,1.4-5.056,1.936a5.665,5.665,0,0,0,1.609.21" transform="translate(20 26.667)" fill="#57a4ff"/>
          </g>
          <g id="g5250" transform="translate(42.408 42.828)">
            <path id="path5252" d="M-18.391-24.521c2.688,0,3.208-1.4,5.056-1.936a5.664,5.664,0,0,0-1.609-.21c-2.688,0-3.208,1.4-5.056,1.936a5.664,5.664,0,0,0,1.609.21" transform="translate(20 26.667)" fill="#57a4ff"/>
          </g>
          <g id="g5254" transform="translate(0.805 42.828)">
            <path id="path5256" d="M-94.563-2.4a5.665,5.665,0,0,0-1.609-.21c-3.333,0-3.333,2.146-6.666,2.146V8.691h3.219V-.465c2.688,0,3.208-1.4,5.057-1.936" transform="translate(102.838 2.611)" fill="#57a4ff"/>
          </g>
          <g id="g5258" transform="translate(15.746 42.828)">
            <path id="path5260" d="M-18.391-24.521c2.688,0,3.208-1.4,5.056-1.936a5.664,5.664,0,0,0-1.609-.21c-2.688,0-3.208,1.4-5.056,1.936a5.665,5.665,0,0,0,1.609.21" transform="translate(20 26.667)" fill="#57a4ff"/>
          </g>
          <g id="g5262" transform="translate(7.857 7.75)">
            <path id="path5264" d="M-40.608-163.016h3.219a16.285,16.285,0,0,1,2.4-5.787l-5.952-5.952,2.528-2.528h-3.219l-2.528,2.528,5.952,5.952a16.285,16.285,0,0,0-2.4,5.787" transform="translate(44.161 177.282)" fill="#898890"/>
          </g>
          <g id="g5266" transform="translate(37.675 5.667)">
            <path id="path5268" d="M-23.514-68.011l4.342-4.342-1.609-1.609-4.791,4.791a16.353,16.353,0,0,1,2.058,1.161" transform="translate(25.572 73.962)" fill="#898890"/>
          </g>
          <g id="g5270" transform="translate(2.995 22.016)">
            <path id="path5272" d="M-70.446,0h-3.219L-76.61,2.946V6.521h3.219V2.946Z" transform="translate(76.61)" fill="#898890"/>
          </g>
          <g id="g5274" transform="translate(20.478 0.805)">
            <path id="path5276" d="M-13.267-123.572a16.288,16.288,0,0,1,5.787-2.4v-8.416H-10.7v8.416a16.254,16.254,0,0,0-3.729,1.237Z" transform="translate(14.428 134.386)" fill="#898890"/>
          </g>
          <g id="g5278" transform="translate(37.675 38.934)">
            <path id="path5280" d="M0-13.268l2.707,2.707H5.926L2.058-14.429A16.339,16.339,0,0,1,0-13.268" transform="translate(0 14.429)" fill="#898890"/>
          </g>
          <g id="g5282" transform="translate(9.941 28.537)">
            <path id="path5284" d="M-36.781-157.935V-162.1l3.869-3.869a16.287,16.287,0,0,1-2.4-5.786H-38.53a16.287,16.287,0,0,0,2.4,5.786L-40-162.1v4.166l2.317,2.317q.153.055.319.1l1.5-1.5Z" transform="translate(40 171.757)" fill="#898890"/>
          </g>
          <g id="g5286" transform="translate(20.478 38.934)">
            <path id="path5288" d="M-79.391-57.277v-2.614a16.288,16.288,0,0,1-5.787-2.4l-1.161,1.161a16.257,16.257,0,0,0,3.729,1.237v2.614a5.317,5.317,0,0,0,3.261,1.027,5.66,5.66,0,0,0,1.609-.21,6.1,6.1,0,0,1-1.652-.817" transform="translate(86.338 62.289)" fill="#898890"/>
          </g>
          <g id="g5290" transform="translate(20.699 16.559)">
            <path id="path5292" d="M-109.536,0h-3.219l-6.367,11.028h3.219Z" transform="translate(119.122)" fill="#ffb655"/>
          </g>
          <g id="g5294" transform="translate(22.436 27.587)">
            <path id="path5296" d="M-42.152,0l-3.689,6.389h3.219L-38.934,0Z" transform="translate(45.841)" fill="#ffb655"/>
          </g>
          <g id="g5298" transform="translate(46.854 13.833)">
            <path id="path5300" d="M0,0A22.362,22.362,0,0,1,2.887,8.182" fill="none" stroke="#000" stroke-miterlimit="10" stroke-width="1" stroke-dasharray="15 10 15 10 350"/>
          </g>
          <g id="g5302" transform="translate(45.522 30.893)">
            <path id="path5304" d="M-42.821,0a22.415,22.415,0,0,1-3.747,7.826" transform="translate(46.568)" fill="none" stroke="#000" stroke-miterlimit="10" stroke-width="1"/>
          </g>
          <g id="g5306" transform="translate(5.194 28.538)">
            <path id="path5308" d="M-32.991-93.5a22.361,22.361,0,0,1-2.887-8.182" transform="translate(35.879 101.682)" fill="none" stroke="#000" stroke-miterlimit="10" stroke-width="1" stroke-dasharray="15 10 15 10 350"/>
          </g>
          <g id="g5310" transform="translate(5.666 11.834)">
            <path id="path5312" d="M0-89.431a22.419,22.419,0,0,1,3.747-7.826" transform="translate(0 97.257)" fill="none" stroke="#000" stroke-miterlimit="10" stroke-width="1"/>
          </g>
          <g id="g5314" transform="translate(16.024 3.003)">
            <path id="path5316" d="M0-32.993A22.36,22.36,0,0,1,8.182-35.88" transform="translate(0 35.88)" fill="none" stroke="#000" stroke-miterlimit="10" stroke-width="1" stroke-dasharray="15 10 15 10 350"/>
          </g>
          <g id="g5318" transform="translate(33.084 3.475)">
            <path id="path5320" d="M0,0A22.416,22.416,0,0,1,7.826,3.747" fill="none" stroke="#000" stroke-miterlimit="10" stroke-width="1"/>
          </g>
          <g id="g5322" transform="translate(0.805 42.828)">
            <path id="path5324" d="M0-24.521c3.333,0,3.333-2.146,6.666-2.146S10-24.521,13.332-24.521,16.665-26.667,20-26.667s3.333,2.146,6.666,2.146S30-26.667,33.329-26.667s3.333,2.146,6.666,2.146,3.333-2.146,6.666-2.146,3.333,2.146,6.665,2.146v9.156H0Z" transform="translate(0 26.667)" fill="none" stroke="#000" stroke-miterlimit="10" stroke-width="1"/>
          </g>
          <g id="g5326" transform="translate(34.134 45.51)">
            <path id="path5328" d="M0,0A2.8,2.8,0,0,1,1.881.646a7.969,7.969,0,0,0,4.785,1.5A7.969,7.969,0,0,0,11.45.646,2.8,2.8,0,0,1,13.331,0" transform="translate(0 0)" fill="none" stroke="#fff" stroke-miterlimit="10" stroke-width="1" stroke-dasharray="15 10 15 10 350"/>
          </g>
          <g id="g5330" transform="translate(20.699 16.559)">
            <path id="path5332" d="M-92.678-73.009-88.99-79.4h-5.433l-6.367,11.028h5.425l-3.689,6.389h5.433l6.367-11.028Z" transform="translate(100.789 79.398)" fill="none" stroke="#000" stroke-miterlimit="10" stroke-width="1"/>
          </g>
          <g id="g5334" transform="translate(17.799 34.936)">
            <path id="path5336" d="M-110.483-45.837a13.638,13.638,0,0,1-9.669-4.011" transform="translate(120.152 49.848)" fill="none" stroke="#000" stroke-miterlimit="10" stroke-width="1"/>
          </g>
          <g id="g5338" transform="translate(27.467 11.588)">
            <path id="path5340" d="M0,0A13.7,13.7,0,0,1,13.68,13.68" fill="none" stroke="#fff" stroke-miterlimit="10" stroke-width="1" stroke-dasharray="15 10 15 10 350"/>
          </g>
          <g id="g5342" transform="translate(24.529 18.428)">
            <path id="path5344" d="M-47.312,0l-4.14,7.171" transform="translate(51.452)" fill="none" stroke="#fff" stroke-miterlimit="10" stroke-width="1" stroke-dasharray="15 10 15 10 350"/>
          </g>
          <g id="g5346" transform="translate(2.995 0.805)">
            <path id="path5348" d="M-503.712-451.019l-5.952-5.952a16.288,16.288,0,0,0,2.4-5.787h5.469l2.946-2.946v-3.575h-8.416a16.287,16.287,0,0,0-2.4-5.787l3.868-3.868V-483.1l-2.528-2.528-5.952,5.952a16.287,16.287,0,0,0-5.787-2.4v-5.469l-2.946-2.946h-3.575v8.416a16.288,16.288,0,0,0-5.786,2.4l-3.869-3.868H-540.4l-2.528,2.528,5.952,5.952a16.287,16.287,0,0,0-2.4,5.787h-5.469l-2.946,2.946v3.575h8.416a16.292,16.292,0,0,0,2.4,5.787l-3.868,3.868v2.868" transform="translate(547.793 490.489)" fill="none" stroke="#000" stroke-miterlimit="10" stroke-width="1"/>
          </g>
          <g id="g5350" transform="translate(30.728 38.934)">
            <path id="path5352" d="M0-27.407c.173-.035.345-.074.516-.114a6.9,6.9,0,0,1,1.463-.418,16.317,16.317,0,0,0,3.807-1.866l3.868,3.868" transform="translate(0 29.805)" fill="none" stroke="#000" stroke-miterlimit="10" stroke-width="1"/>
          </g>
          <g id="g5354" transform="translate(14.543 38.934)">
            <path id="path5356" d="M0-44.3,3.877-48.18a16.319,16.319,0,0,0,3.8,1.865,6.909,6.909,0,0,1,1.471.42c.17.04.34.078.511.113" transform="translate(0 48.18)" fill="none" stroke="#000" stroke-miterlimit="10" stroke-width="1"/>
          </g>
        </g>
      </g>
    </g>
  </g>
</svg>
