<svg xmlns="http://www.w3.org/2000/svg" xmlns:xlink="http://www.w3.org/1999/xlink" width="108.914" height="108.914" viewBox="0 0 108.914 108.914">
  <defs>
    <filter id="Trazado_874925" x="0" y="0" width="108.914" height="108.914" filterUnits="userSpaceOnUse">
      <feOffset dy="3" input="SourceAlpha"/>
      <feGaussianBlur stdDeviation="3" result="blur"/>
      <feFlood flood-opacity="0.161"/>
      <feComposite operator="in" in2="blur"/>
      <feComposite in="SourceGraphic"/>
    </filter>
  </defs>
  <g id="Grupo_1114090" data-name="Grupo 1114090" transform="translate(6598.008 5514.622)">
    <g transform="matrix(1, 0, 0, 1, -6598.01, -5514.62)" filter="url(#Trazado_874925)">
      <g id="Trazado_874925-2" data-name="Trazado 874925" transform="translate(9 6)" fill="#bacbec" opacity="0.859">
        <path d="M 45.45676803588867 89.41407012939453 C 39.52198028564453 89.41407012939453 33.76551818847656 88.25206756591797 28.34726715087891 85.96034240722656 C 23.11311721801758 83.74648284912109 18.41204261779785 80.57682800292969 14.37464332580566 76.5394287109375 C 10.33724308013916 72.50202941894531 7.167593002319336 67.80095672607422 4.953730583190918 62.56679534912109 C 2.662005424499512 57.14855575561523 1.500005483627319 51.39208221435547 1.500005483627319 45.45729446411133 C 1.500005483627319 39.52198028564453 2.662005424499512 33.76551818847656 4.953730583190918 28.34726905822754 C 7.167593002319336 23.11310577392578 10.33724308013916 18.41203117370605 14.37464332580566 14.37464332580566 C 18.41204261779785 10.33724403381348 23.11311721801758 7.167593955993652 28.34726715087891 4.953731060028076 C 33.76551818847656 2.662006139755249 39.52198028564453 1.500006198883057 45.45676803588867 1.500006198883057 C 51.39155578613281 1.500006198883057 57.14802932739258 2.662006139755249 62.56626892089844 4.953731060028076 C 67.80043029785156 7.167593955993652 72.50150299072266 10.33724403381348 76.53890228271484 14.37464332580566 C 80.57630920410156 18.41203117370605 83.74595642089844 23.11310577392578 85.95981597900391 28.34726905822754 C 88.25154113769531 33.76551818847656 89.41354370117188 39.52198028564453 89.41354370117188 45.45676803588867 C 89.41354370117188 51.39208221435547 88.25154113769531 57.14855575561523 85.95981597900391 62.56679534912109 C 83.74595642089844 67.80095672607422 80.57630920410156 72.50202941894531 76.53890228271484 76.5394287109375 C 72.50150299072266 80.57682800292969 67.80043029785156 83.74648284912109 62.56626892089844 85.96034240722656 C 57.14802932739258 88.25206756591797 51.39155578613281 89.41407012939453 45.45676803588867 89.41407012939453 Z" stroke="none"/>
        <path d="M 45.45676803588867 3 C 39.72381210327148 3 34.1639404296875 4.12213134765625 28.93159484863281 6.335227966308594 C 23.87622833251953 8.473472595214844 19.33542633056641 11.53517150878906 15.43529510498047 15.435302734375 C 11.53517150878906 19.33543395996094 8.473464965820312 23.87622833251953 6.335227966308594 28.93160247802734 C 4.122123718261719 34.16394424438477 3 39.72381591796875 3 45.4572868347168 C 3 51.19024658203125 4.122123718261719 56.75011825561523 6.335227966308594 61.98246002197266 C 8.473464965820312 67.03782653808594 11.53517150878906 71.57862854003906 15.43529510498047 75.478759765625 C 19.33542633056641 79.37889099121094 23.87622833251953 82.44058990478516 28.93159484863281 84.57883453369141 C 34.1639404296875 86.79193115234375 39.72381210327148 87.9140625 45.45676803588867 87.9140625 C 51.18972396850586 87.9140625 56.74959564208984 86.79193115234375 61.98194122314453 84.57883453369141 C 67.03730773925781 82.44058990478516 71.57810974121094 79.37889099121094 75.47824096679688 75.478759765625 C 79.37837219238281 71.57862854003906 82.44007110595703 67.03782653808594 84.57830810546875 61.98246002197266 C 86.79141235351562 56.75011825561523 87.91353607177734 51.19024658203125 87.91353607177734 45.4567756652832 C 87.91353607177734 39.72381591796875 86.79141235351562 34.16394424438477 84.57830810546875 28.93160247802734 C 82.44007110595703 23.87622833251953 79.37837219238281 19.33543395996094 75.47824096679688 15.435302734375 C 71.57810974121094 11.53517150878906 67.03730773925781 8.473472595214844 61.98194122314453 6.335227966308594 C 56.74959564208984 4.12213134765625 51.18972396850586 3 45.45676803588867 3 M 45.45676803588867 0 C 70.56185150146484 0 90.91353607177734 20.35169219970703 90.91353607177734 45.4567756652832 L 90.91353607177734 45.4572868347168 C 90.91353607177734 70.5623779296875 70.56185150146484 90.9140625 45.45676803588867 90.9140625 C 20.3516845703125 90.9140625 0 70.5623779296875 0 45.4572868347168 L 0 45.4567756652832 C 0 20.35169219970703 20.3516845703125 0 45.45676803588867 0 Z" stroke="none" fill="#fff"/>
      </g>
    </g>
    <g id="Grupo_1114089" data-name="Grupo 1114089" transform="translate(-6580.468 -5492.986)">
      <g id="Grupo_1114087" data-name="Grupo 1114087" transform="translate(10.457 0.611)">
        <path id="Trazado_999925" data-name="Trazado 999925" d="M361.852,378.236H354.7c2.353-5.6,2.551-11.334,2.9-16.936h1.34C359.3,366.891,359.5,372.634,361.852,378.236Z" transform="translate(-316.739 -319.836)" fill="#fff"/>
        <g id="Grupo_1114085" data-name="Grupo 1114085" transform="translate(33.363 29.198)">
          <path id="Trazado_999926" data-name="Trazado 999926" d="M333.556,256.222l4.776,11.1-2.97-1.386a2.891,2.891,0,0,1-1.654-2.306l-.839-7.222A.359.359,0,0,1,333.556,256.222Z" transform="translate(-330.81 -256.001)" fill="#9ec33b"/>
          <path id="Trazado_999927" data-name="Trazado 999927" d="M315.309,378.28l7.222-9.68.28,3.262a2.919,2.919,0,0,1-1.165,2.586l-5.836,4.345A.362.362,0,0,1,315.309,378.28Z" transform="translate(-315.232 -355.484)" fill="#9ec33b"/>
          <path id="Trazado_999928" data-name="Trazado 999928" d="M404.1,345.9l-12-1.421,2.691-1.875a2.908,2.908,0,0,1,2.819-.291l6.674,2.889A.365.365,0,0,1,404.1,345.9Z" transform="translate(-383.146 -332.046)" fill="#9ec33b"/>
        </g>
        <path id="Trazado_999929" data-name="Trazado 999929" d="M370.98,344.69a2.19,2.19,0,1,1-2.19-2.19A2.187,2.187,0,0,1,370.98,344.69Z" transform="translate(-327.253 -303.226)" fill="#fccd43"/>
        <path id="Trazado_999930" data-name="Trazado 999930" d="M375.2,351a2.179,2.179,0,0,1-3.1,0l3.1-3.1A2.2,2.2,0,0,1,375.2,351Z" transform="translate(-332.112 -307.997)" opacity="0.1"/>
        <path id="Trazado_999931" data-name="Trazado 999931" d="M122.192,249.684H107.9c4.717-11.206,5.1-22.679,5.812-33.884h2.679C117.09,227.006,117.486,238.479,122.192,249.684Z" transform="translate(-98.687 -191.284)" fill="#fff"/>
        <g id="Grupo_1114086" data-name="Grupo 1114086">
          <path id="Trazado_999932" data-name="Trazado 999932" d="M65.257,5.769l9.551,22.2L68.868,25.2a5.819,5.819,0,0,1-3.32-4.6L63.859,6.142A.732.732,0,0,1,65.257,5.769Z" transform="translate(-59.772 -5.33)" fill="#9ec33b"/>
          <path id="Trazado_999933" data-name="Trazado 999933" d="M28.955,249.771,43.411,230.4l.571,6.523a5.812,5.812,0,0,1-2.33,5.172L29.98,250.8A.733.733,0,0,1,28.955,249.771Z" transform="translate(-28.804 -204.184)" fill="#9ec33b"/>
          <path id="Trazado_999934" data-name="Trazado 999934" d="M206.507,185.323l-24.007-2.83,5.37-3.751a5.83,5.83,0,0,1,5.649-.571l13.36,5.766A.724.724,0,0,1,206.507,185.323Z" transform="translate(-164.597 -157.616)" fill="#9ec33b"/>
        </g>
        <path id="Trazado_999935" data-name="Trazado 999935" d="M140.448,182.58a4.374,4.374,0,1,1-4.38-4.38A4.372,4.372,0,0,1,140.448,182.58Z" transform="translate(-119.715 -158.064)" fill="#f76959"/>
        <path id="Trazado_999936" data-name="Trazado 999936" d="M148.885,195.4a4.376,4.376,0,0,1-6.185-.012l6.185-6.185A4.38,4.38,0,0,1,148.885,195.4Z" transform="translate(-129.433 -167.783)" opacity="0.1"/>
      </g>
      <g id="Grupo_1114088" data-name="Grupo 1114088" transform="translate(8.038 -0.011)">
        <path id="Trazado_999937" data-name="Trazado 999937" d="M331.842,264.094l-6.686-2.877a3.532,3.532,0,0,0-3.425.349l-.827.582a2.807,2.807,0,0,0-2.283-1.176,2.691,2.691,0,0,0-.745.117l-4.123-9.575a.985.985,0,0,0-1.887.489l.85,7.233a3.531,3.531,0,0,0,2.015,2.784l1.328.629a2.864,2.864,0,0,0-.245,1.142,2.816,2.816,0,0,0,.548,1.654l-6.348,8.5a.982.982,0,0,0,1.374,1.374l5.335-3.972a33.88,33.88,0,0,1-2.26,9.132.62.62,0,0,0,.571.862h7.152a.62.62,0,0,0,.571-.862c-1.922-4.578-2.376-9.19-2.714-14.292a2.8,2.8,0,0,0,1.176-1.386c10.355,1.223,10.1,1.2,10.215,1.2a1,1,0,0,0,.408-1.91Zm-11.648-.326a1.567,1.567,0,1,1-1.573-1.572A1.571,1.571,0,0,1,320.193,263.767Zm-6.243-4.706-.641-5.475,3.436,7.979-1.491-.7A2.284,2.284,0,0,1,313.95,259.061Zm2.551,10.9-4.426,3.3,5.2-6.966.14,1.631A2.27,2.27,0,0,1,316.5,269.964Zm4.776,10.111h-5.312a37.888,37.888,0,0,0,2.167-10.087,3.475,3.475,0,0,0,.513-2.167l-.1-1.258c.023,0,.058.012.082.012a1.426,1.426,0,0,0,.221-.023C319.157,271.327,319.611,275.707,321.277,280.075Zm.14-16.529c-.012-.082-.012-.163-.023-.245l1.048-.734a2.281,2.281,0,0,1,2.213-.221l5.067,2.178Z" transform="translate(-274.665 -221.681)"/>
        <path id="Trazado_999938" data-name="Trazado 999938" d="M140.343,56.046a17.608,17.608,0,0,1,18.6,9.878.623.623,0,0,0,1.13-.524,18.854,18.854,0,0,0-19.93-10.577.619.619,0,1,0,.2,1.223Z" transform="translate(-124.296 -48.229)"/>
        <path id="Trazado_999939" data-name="Trazado 999939" d="M12.518,151.769a.629.629,0,0,0,.14-.874,17.489,17.489,0,0,1-.9-19.313.619.619,0,0,0-1.06-.641,18.744,18.744,0,0,0,.944,20.687A.631.631,0,0,0,12.518,151.769Z" transform="translate(-8.038 -115.425)"/>
        <path id="Trazado_999940" data-name="Trazado 999940" d="M53.316,196.988a.617.617,0,0,0,.233-.85,12.548,12.548,0,0,1-1.328-8.794.622.622,0,0,0-1.211-.28,13.748,13.748,0,0,0,1.456,9.668A.612.612,0,0,0,53.316,196.988Z" transform="translate(-45.726 -164.85)"/>
        <path id="Trazado_999941" data-name="Trazado 999941" d="M157.86,97.246a.619.619,0,1,0,.093,1.235,12.459,12.459,0,0,1,9.575,3.623.618.618,0,0,0,.874-.874A13.7,13.7,0,0,0,157.86,97.246Z" transform="translate(-139.903 -85.888)"/>
        <path id="Trazado_999942" data-name="Trazado 999942" d="M42.7,29.588A4.988,4.988,0,0,0,45.262,26.5c21.933,2.586,20.687,2.446,20.85,2.446a1.347,1.347,0,0,0,.524-2.586l-13.36-5.777a6.4,6.4,0,0,0-6.243.641l-2.178,1.514a5,5,0,0,0-4.391-2.609,4.844,4.844,0,0,0-1.84.361L30.154.806A1.321,1.321,0,0,0,28.57.037a1.338,1.338,0,0,0-1,1.456l1.689,14.455a6.415,6.415,0,0,0,3.669,5.09l3.25,1.514a4.958,4.958,0,0,0,.559,5.871l-12.988,17.4a1.354,1.354,0,0,0,1.9,1.887c4.834-3.6,11.264-8.363,11.835-8.818A69.867,69.867,0,0,1,32.74,58.767a.613.613,0,0,0,.058.582.626.626,0,0,0,.513.28h14.3a.6.6,0,0,0,.513-.28.613.613,0,0,0,.058-.582c-3.96-9.4-4.846-18.788-5.486-29.179Zm5.044-7.35a5.172,5.172,0,0,1,5.044-.513l13.349,5.766c.035.012.082.035.058.128s-.082.082-.116.082L45.448,25.267a4.645,4.645,0,0,0-.14-1.328Zm-17.251-6.43L28.8,1.353c0-.035-.012-.093.082-.116s.1.023.116.058l8.515,19.8a5.388,5.388,0,0,0-.559.466L33.451,19.92A5.168,5.168,0,0,1,30.492,15.809Zm9.959,5.568A3.757,3.757,0,1,1,36.7,25.139,3.768,3.768,0,0,1,40.451,21.376ZM36.572,38.033l-11.683,8.69c-.035.023-.07.058-.128-.012s-.035-.116-.012-.14l12.918-17.3a4.623,4.623,0,0,0,.664.373l.326,3.774A5.177,5.177,0,0,1,36.572,38.033ZM34.231,58.383a74.835,74.835,0,0,0,4.648-21.037,6.453,6.453,0,0,0,1.013-4.054l-.28-3.25a5.13,5.13,0,0,0,.85.082,4.935,4.935,0,0,0,1.025-.1c.629,10.052,1.514,19.2,5.2,28.363Z" transform="translate(-21.679 0.011)"/>
        <path id="Trazado_999943" data-name="Trazado 999943" d="M230.038,266.677a.627.627,0,0,0-.85.233,12.544,12.544,0,0,1-4.158,4.368.624.624,0,0,0,.676,1.048,13.783,13.783,0,0,0,4.578-4.8A.628.628,0,0,0,230.038,266.677Z" transform="translate(-199.501 -235.541)"/>
      </g>
    </g>
  </g>
</svg>
