<svg xmlns="http://www.w3.org/2000/svg" xmlns:xlink="http://www.w3.org/1999/xlink" width="108.914" height="108.914" viewBox="0 0 108.914 108.914">
  <defs>
    <filter id="Trazado_874925" x="0" y="0" width="108.914" height="108.914" filterUnits="userSpaceOnUse">
      <feOffset dy="3" input="SourceAlpha"/>
      <feGaussianBlur stdDeviation="3" result="blur"/>
      <feFlood flood-opacity="0.161"/>
      <feComposite operator="in" in2="blur"/>
      <feComposite in="SourceGraphic"/>
    </filter>
  </defs>
  <g id="Grupo_1114118" data-name="Grupo 1114118" transform="translate(5968.008 5514.622)">
    <g transform="matrix(1, 0, 0, 1, -5968.01, -5514.62)" filter="url(#Trazado_874925)">
      <g id="Trazado_874925-2" data-name="Trazado 874925" transform="translate(9 6)" fill="#bacbec" opacity="0.859">
        <path d="M 45.45676803588867 89.41407012939453 C 39.52198028564453 89.41407012939453 33.76551818847656 88.25206756591797 28.34726715087891 85.96034240722656 C 23.11311721801758 83.74648284912109 18.41204261779785 80.57682800292969 14.37464332580566 76.5394287109375 C 10.33724308013916 72.50202941894531 7.167593002319336 67.80095672607422 4.953730583190918 62.56679534912109 C 2.662005424499512 57.14855575561523 1.500005483627319 51.39208221435547 1.500005483627319 45.45729446411133 C 1.500005483627319 39.52198028564453 2.662005424499512 33.76551818847656 4.953730583190918 28.34726905822754 C 7.167593002319336 23.11310577392578 10.33724308013916 18.41203117370605 14.37464332580566 14.37464332580566 C 18.41204261779785 10.33724403381348 23.11311721801758 7.167593955993652 28.34726715087891 4.953731060028076 C 33.76551818847656 2.662006139755249 39.52198028564453 1.500006198883057 45.45676803588867 1.500006198883057 C 51.39155578613281 1.500006198883057 57.14802932739258 2.662006139755249 62.56626892089844 4.953731060028076 C 67.80043029785156 7.167593955993652 72.50150299072266 10.33724403381348 76.53890228271484 14.37464332580566 C 80.57630920410156 18.41203117370605 83.74595642089844 23.11310577392578 85.95981597900391 28.34726905822754 C 88.25154113769531 33.76551818847656 89.41354370117188 39.52198028564453 89.41354370117188 45.45676803588867 C 89.41354370117188 51.39208221435547 88.25154113769531 57.14855575561523 85.95981597900391 62.56679534912109 C 83.74595642089844 67.80095672607422 80.57630920410156 72.50202941894531 76.53890228271484 76.5394287109375 C 72.50150299072266 80.57682800292969 67.80043029785156 83.74648284912109 62.56626892089844 85.96034240722656 C 57.14802932739258 88.25206756591797 51.39155578613281 89.41407012939453 45.45676803588867 89.41407012939453 Z" stroke="none"/>
        <path d="M 45.45676803588867 3 C 39.72381210327148 3 34.1639404296875 4.12213134765625 28.93159484863281 6.335227966308594 C 23.87622833251953 8.473472595214844 19.33542633056641 11.53517150878906 15.43529510498047 15.435302734375 C 11.53517150878906 19.33543395996094 8.473464965820312 23.87622833251953 6.335227966308594 28.93160247802734 C 4.122123718261719 34.16394424438477 3 39.72381591796875 3 45.4572868347168 C 3 51.19024658203125 4.122123718261719 56.75011825561523 6.335227966308594 61.98246002197266 C 8.473464965820312 67.03782653808594 11.53517150878906 71.57862854003906 15.43529510498047 75.478759765625 C 19.33542633056641 79.37889099121094 23.87622833251953 82.44058990478516 28.93159484863281 84.57883453369141 C 34.1639404296875 86.79193115234375 39.72381210327148 87.9140625 45.45676803588867 87.9140625 C 51.18972396850586 87.9140625 56.74959564208984 86.79193115234375 61.98194122314453 84.57883453369141 C 67.03730773925781 82.44058990478516 71.57810974121094 79.37889099121094 75.47824096679688 75.478759765625 C 79.37837219238281 71.57862854003906 82.44007110595703 67.03782653808594 84.57830810546875 61.98246002197266 C 86.79141235351562 56.75011825561523 87.91353607177734 51.19024658203125 87.91353607177734 45.4567756652832 C 87.91353607177734 39.72381591796875 86.79141235351562 34.16394424438477 84.57830810546875 28.93160247802734 C 82.44007110595703 23.87622833251953 79.37837219238281 19.33543395996094 75.47824096679688 15.435302734375 C 71.57810974121094 11.53517150878906 67.03730773925781 8.473472595214844 61.98194122314453 6.335227966308594 C 56.74959564208984 4.12213134765625 51.18972396850586 3 45.45676803588867 3 M 45.45676803588867 0 C 70.56185150146484 0 90.91353607177734 20.35169219970703 90.91353607177734 45.4567756652832 L 90.91353607177734 45.4572868347168 C 90.91353607177734 70.5623779296875 70.56185150146484 90.9140625 45.45676803588867 90.9140625 C 20.3516845703125 90.9140625 0 70.5623779296875 0 45.4572868347168 L 0 45.4567756652832 C 0 20.35169219970703 20.3516845703125 0 45.45676803588867 0 Z" stroke="none" fill="#fff"/>
      </g>
    </g>
    <g id="Grupo_1114117" data-name="Grupo 1114117" transform="translate(-5947.935 -5497.549)">
      <g id="Grupo_1114111" data-name="Grupo 1114111" transform="translate(7.5 7.5)">
        <g id="Grupo_1114107" data-name="Grupo 1114107" transform="translate(0 12.448)">
          <g id="Grupo_1114103" data-name="Grupo 1114103">
            <path id="Trazado_999967" data-name="Trazado 999967" d="M173.541,129.493v7.338A320.818,320.818,0,0,0,135.4,133c-1.874-3.006-2.938-6.208-.918-9.6a84.738,84.738,0,0,1,36.74,2.987A3.24,3.24,0,0,1,173.541,129.493Z" transform="translate(-119.772 -122.557)" fill="#8ce09f"/>
            <path id="Trazado_999968" data-name="Trazado 999968" d="M23.13,139.915A33.591,33.591,0,0,1,7.5,143.746v-7.414a3.251,3.251,0,0,1,2.254-3.091,77,77,0,0,1,12.458-2.931A53.569,53.569,0,0,0,23.13,139.915Z" transform="translate(-7.5 -129.471)" fill="#73da8c"/>
          </g>
          <g id="Grupo_1114104" data-name="Grupo 1114104" transform="translate(0 28.62)">
            <path id="Trazado_999969" data-name="Trazado 999969" d="M267.09,392.748v4.327a3.245,3.245,0,0,1-3.246,3.246h-3.038c-11.435-1.336-21.217-4.119-22.517-12.1C247.931,386.748,257.515,388.321,267.09,392.748Z" transform="translate(-213.322 -387.62)" fill="#ffa93f"/>
            <path id="Trazado_999970" data-name="Trazado 999970" d="M54.985,399.8H10.746A3.245,3.245,0,0,1,7.5,396.558v-4.327a35.4,35.4,0,0,1,24.968-4.53Q40.582,396.213,54.985,399.8Z" transform="translate(-7.5 -387.103)" fill="#ff9c20"/>
          </g>
          <g id="Grupo_1114105" data-name="Grupo 1114105" transform="translate(0 9.736)">
            <path id="Trazado_999971" data-name="Trazado 999971" d="M186.674,217.089v9.737c-12.166-1.5-23.89-2.739-35.165-4.177-3.228-2.419-3.981-5.608-2.974-9.391Q166.868,210.759,186.674,217.089Z" transform="translate(-132.905 -212.551)" fill="#b5e9f1"/>
            <path id="Trazado_999972" data-name="Trazado 999972" d="M26.1,228.481c-6.487,3.053-12.649,3.828-18.6,4.177v-9.737a77.352,77.352,0,0,1,15.63-3.831A40.391,40.391,0,0,0,26.1,228.481Z" transform="translate(-7.5 -218.383)" fill="#9be1ec"/>
          </g>
          <g id="Grupo_1114106" data-name="Grupo 1114106" transform="translate(0 19.473)">
            <path id="Trazado_999973" data-name="Trazado 999973" d="M214.189,307.092v9.737a89.984,89.984,0,0,0-28.8-4.53c-4.443-2.172-6.81-5.225-6.367-9.384A87.2,87.2,0,0,1,214.189,307.092Z" transform="translate(-160.421 -302.554)" fill="#99b2e9"/>
            <path id="Trazado_999974" data-name="Trazado 999974" d="M32.47,315.274A76.953,76.953,0,0,0,7.5,319.8v-9.737a77.066,77.066,0,0,1,18.6-4.177A34.452,34.452,0,0,0,32.47,315.274Z" transform="translate(-7.5 -305.529)" fill="#85a4e4"/>
          </g>
        </g>
        <path id="Trazado_999975" data-name="Trazado 999975" d="M220.157,140.7h1.725a.865.865,0,0,0,.7-1.37l-3.548-4.947a1.082,1.082,0,0,0-1.758,0l-3.548,4.947a.865.865,0,0,0,.7,1.37h2l-.769,1.506a5.41,5.41,0,0,0,0,4.922l.141.276a2.7,2.7,0,0,1,0,2.461l-.141.276a5.409,5.409,0,0,0,0,4.922l.141.276a2.7,2.7,0,0,1,0,2.461l-.141.276a5.409,5.409,0,0,0,0,4.922l.308.6a1.655,1.655,0,0,0,1.474.9h0a1.655,1.655,0,0,0,1.474-2.408l-.168-.328a2.7,2.7,0,0,1,0-2.461l.141-.276a5.409,5.409,0,0,0,0-4.922l-.141-.276a2.7,2.7,0,0,1,0-2.461l.141-.276a5.409,5.409,0,0,0,0-4.922l-.141-.275a2.7,2.7,0,0,1,0-2.461Z" transform="translate(-191.274 -120.257)" fill="#f9ee80"/>
        <path id="Trazado_999976" data-name="Trazado 999976" d="M65.622,180.7h1.394a.865.865,0,0,0,.7-1.37l-3.548-4.947a1.082,1.082,0,0,0-1.758,0l-3.548,4.947a.865.865,0,0,0,.7,1.37H60.69a.541.541,0,0,1,.482.787l-.367.719a5.41,5.41,0,0,0,0,4.922l.141.276a2.7,2.7,0,0,1,0,2.461l-.141.276a5.409,5.409,0,0,0,0,4.922l.141.276a2.7,2.7,0,0,1,0,2.461l-.141.276a5.409,5.409,0,0,0,0,4.922l.308.6a1.655,1.655,0,0,0,1.474.9h0a1.655,1.655,0,0,0,1.474-2.408l-.168-.328a2.7,2.7,0,0,1,0-2.461l.141-.275a5.409,5.409,0,0,0,0-4.922l-.141-.276a2.7,2.7,0,0,1,0-2.461l.141-.276a5.409,5.409,0,0,0,0-4.922l-.141-.275a2.7,2.7,0,0,1,0-2.461L65.14,181A.541.541,0,0,1,65.622,180.7Z" transform="translate(-53.163 -155.93)" fill="#f9ee80"/>
        <path id="Trazado_999977" data-name="Trazado 999977" d="M375.353,180.7h1.394a.865.865,0,0,0,.7-1.37l-3.548-4.947a1.082,1.082,0,0,0-1.758,0l-3.548,4.947a.865.865,0,0,0,.7,1.37h1.121a.541.541,0,0,1,.482.787l-.367.719a5.409,5.409,0,0,0,0,4.922l.141.276a2.7,2.7,0,0,1,0,2.461l-.141.276a5.41,5.41,0,0,0,0,4.922l.141.276a2.7,2.7,0,0,1,0,2.461l-.141.276a5.409,5.409,0,0,0,0,4.922l.308.6a1.655,1.655,0,0,0,1.474.9h0a1.655,1.655,0,0,0,1.474-2.408l-.168-.328a2.7,2.7,0,0,1,0-2.461l.141-.275a5.409,5.409,0,0,0,0-4.922l-.141-.276a2.7,2.7,0,0,1,0-2.461l.141-.276a5.409,5.409,0,0,0,0-4.922l-.141-.275a2.7,2.7,0,0,1,0-2.461L374.871,181A.541.541,0,0,1,375.353,180.7Z" transform="translate(-329.385 -155.93)" fill="#f9ee80"/>
        <g id="Grupo_1114110" data-name="Grupo 1114110" transform="translate(15.525 0)">
          <g id="Grupo_1114108" data-name="Grupo 1114108">
            <path id="Trazado_999978" data-name="Trazado 999978" d="M235.315,18.86a11.311,11.311,0,0,1-1.933,6.342C222.922,24.3,218.436,18.613,220.6,8A11.369,11.369,0,0,1,235.315,18.86Z" transform="translate(-212.595 -7.5)" fill="#ffa1ac"/>
            <path id="Trazado_999979" data-name="Trazado 999979" d="M171.786,29.359A11.361,11.361,0,1,1,159,12.162C159.071,21.01,163.41,26.817,171.786,29.359Z" transform="translate(-151 -11.658)" fill="#ff8a98"/>
          </g>
          <g id="Grupo_1114109" data-name="Grupo 1114109" transform="translate(6.266 3.913)">
            <path id="Trazado_999980" data-name="Trazado 999980" d="M244.43,50.641l-2.48,3.227a6.967,6.967,0,0,1-4.451-6.094l3.036-3.953a.394.394,0,0,1,.7.325l-1.046,4.75a.394.394,0,0,0,.384.478h3.236A.787.787,0,0,1,244.43,50.641Z" transform="translate(-234.408 -43.666)" fill="#f9ee80"/>
            <path id="Trazado_999981" data-name="Trazado 999981" d="M216.463,87.735l-3.484,4.536a.393.393,0,0,1-.7-.325l1.045-4.751a.393.393,0,0,0-.384-.478h-3.236a.786.786,0,0,1-.624-1.265l2.927-3.811A15.016,15.016,0,0,0,216.463,87.735Z" transform="translate(-208.921 -77.533)" fill="#f9d171"/>
          </g>
        </g>
      </g>
      <g id="Grupo_1114116" data-name="Grupo 1114116" transform="translate(7.5 7.5)">
        <path id="Trazado_999982" data-name="Trazado 999982" d="M7.5,254.5v9.737a78.229,78.229,0,0,1,7.678-2.314" transform="translate(-7.5 -227.778)" fill="none" stroke="#000" stroke-linecap="round" stroke-linejoin="round" stroke-miterlimit="10" stroke-width="1"/>
        <path id="Trazado_999983" data-name="Trazado 999983" d="M430.631,254.5v9.737q-4.52-1.444-8.961-2.429" transform="translate(-376.863 -227.778)" fill="none" stroke="#000" stroke-linecap="round" stroke-linejoin="round" stroke-miterlimit="10" stroke-width="1"/>
        <path id="Trazado_999984" data-name="Trazado 999984" d="M273.4,304.052a85.128,85.128,0,0,0-14.287-1.432" transform="translate(-231.889 -270.692)" fill="none" stroke="#000" stroke-linecap="round" stroke-linejoin="round" stroke-miterlimit="10" stroke-width="1"/>
        <path id="Trazado_999985" data-name="Trazado 999985" d="M118.172,308.1q-2.53.316-5.032.8" transform="translate(-101.711 -275.579)" fill="none" stroke="#000" stroke-linecap="round" stroke-linejoin="round" stroke-miterlimit="10" stroke-width="1"/>
        <path id="Trazado_999986" data-name="Trazado 999986" d="M198.07,302.87q-1.8.052-3.59.187" transform="translate(-174.251 -270.915)" fill="none" stroke="#000" stroke-linecap="round" stroke-linejoin="round" stroke-miterlimit="10" stroke-width="1"/>
        <path id="Trazado_999987" data-name="Trazado 999987" d="M275.547,393.971a84.878,84.878,0,0,0-13.247-1.3" transform="translate(-234.734 -351)" fill="none" stroke="#000" stroke-linecap="round" stroke-linejoin="round" stroke-miterlimit="10" stroke-width="1"/>
        <path id="Trazado_999988" data-name="Trazado 999988" d="M120.8,392.82a76.983,76.983,0,0,0-13.154,1.488" transform="translate(-96.815 -351.134)" fill="none" stroke="#000" stroke-linecap="round" stroke-linejoin="round" stroke-miterlimit="10" stroke-width="1"/>
        <path id="Trazado_999989" data-name="Trazado 999989" d="M51.631,410.69q4.774,1.022,9.637,2.576v4.327a3.245,3.245,0,0,1-3.246,3.246H10.746A3.245,3.245,0,0,1,7.5,417.593v-4.327q3.512-1.256,7.081-2.165" transform="translate(-7.5 -367.07)" fill="none" stroke="#000" stroke-linecap="round" stroke-linejoin="round" stroke-miterlimit="10" stroke-width="1"/>
        <line id="Línea_580" data-name="Línea 580" y1="9.517" transform="translate(0.713 37.194)" fill="none" stroke="#000" stroke-linecap="round" stroke-linejoin="round" stroke-miterlimit="10" stroke-width="1"/>
        <line id="Línea_581" data-name="Línea 581" y1="3.273" transform="translate(53.768 42.923)" fill="none" stroke="#000" stroke-linecap="round" stroke-linejoin="round" stroke-miterlimit="10" stroke-width="1"/>
        <line id="Línea_582" data-name="Línea 582" y1="2.678" transform="translate(53.768 36.459)" fill="none" stroke="#000" stroke-linecap="round" stroke-linejoin="round" stroke-miterlimit="10" stroke-width="1"/>
        <g id="Grupo_1114113" data-name="Grupo 1114113" transform="translate(20.128 45.895)">
          <line id="Línea_583" data-name="Línea 583" y2="1.298" fill="none" stroke="#000" stroke-linecap="round" stroke-linejoin="round" stroke-miterlimit="10" stroke-width="1"/>
          <line id="Línea_584" data-name="Línea 584" y2="1.298" transform="translate(13.512)" fill="none" stroke="#000" stroke-linecap="round" stroke-linejoin="round" stroke-miterlimit="10" stroke-width="1"/>
          <g id="Grupo_1114112" data-name="Grupo 1114112" transform="translate(3.648 2.072)">
            <path id="Trazado_999990" data-name="Trazado 999990" d="M230.4,450.876a1.564,1.564,0,1,1-3.128,0" transform="translate(-227.27 -450.876)" fill="none" stroke="#000" stroke-linecap="round" stroke-linejoin="round" stroke-miterlimit="10" stroke-width="1"/>
            <path id="Trazado_999991" data-name="Trazado 999991" d="M259.309,450.876a1.564,1.564,0,1,1-3.128,0" transform="translate(-253.053 -450.876)" fill="none" stroke="#000" stroke-linecap="round" stroke-linejoin="round" stroke-miterlimit="10" stroke-width="1"/>
          </g>
        </g>
        <path id="Trazado_999992" data-name="Trazado 999992" d="M227.8,217.5a5.407,5.407,0,0,0,.32,4.155l.141.276a2.7,2.7,0,0,1,0,2.461l-.141.275a5.41,5.41,0,0,0,0,4.922l.141.275a2.7,2.7,0,0,1,0,2.461l-.141.276a5.407,5.407,0,0,0,0,4.921l.308.6a1.655,1.655,0,1,0,2.948-1.506l-.168-.328a2.7,2.7,0,0,1,0-2.461l.141-.276a5.408,5.408,0,0,0,0-4.921l-.141-.276a2.7,2.7,0,0,1,0-2.46l.141-.276a5.408,5.408,0,0,0,0-4.921l-.141-.276a2.7,2.7,0,0,1,0-2.461l.237-.464" transform="translate(-203.72 -194.781)" fill="none" stroke="#000" stroke-linecap="round" stroke-linejoin="round" stroke-miterlimit="10" stroke-width="1"/>
        <path id="Trazado_999993" data-name="Trazado 999993" d="M65.622,180.7h1.394a.865.865,0,0,0,.7-1.37l-3.548-4.947a1.082,1.082,0,0,0-1.758,0l-3.548,4.947a.865.865,0,0,0,.7,1.37H60.69a.541.541,0,0,1,.482.787l-.367.719a5.41,5.41,0,0,0,0,4.922l.141.276a2.7,2.7,0,0,1,0,2.461l-.141.276a5.409,5.409,0,0,0,0,4.922l.141.276a2.7,2.7,0,0,1,0,2.461l-.141.276a5.409,5.409,0,0,0,0,4.922l.308.6a1.655,1.655,0,0,0,1.474.9h0a1.655,1.655,0,0,0,1.474-2.408l-.168-.328a2.7,2.7,0,0,1,0-2.461l.141-.275a5.409,5.409,0,0,0,0-4.922l-.141-.276a2.7,2.7,0,0,1,0-2.461l.141-.276a5.409,5.409,0,0,0,0-4.922l-.141-.275a2.7,2.7,0,0,1,0-2.461L65.14,181A.541.541,0,0,1,65.622,180.7Z" transform="translate(-53.163 -155.93)" fill="none" stroke="#000" stroke-linecap="round" stroke-linejoin="round" stroke-miterlimit="10" stroke-width="1"/>
        <path id="Trazado_999994" data-name="Trazado 999994" d="M375.353,180.7h1.394a.865.865,0,0,0,.7-1.37l-3.548-4.947a1.082,1.082,0,0,0-1.758,0l-3.548,4.947a.865.865,0,0,0,.7,1.37h1.121a.541.541,0,0,1,.482.787l-.367.719a5.409,5.409,0,0,0,0,4.922l.141.276a2.7,2.7,0,0,1,0,2.461l-.141.276a5.41,5.41,0,0,0,0,4.922l.141.276a2.7,2.7,0,0,1,0,2.461l-.141.276a5.409,5.409,0,0,0,0,4.922l.308.6a1.655,1.655,0,0,0,1.474.9h0a1.655,1.655,0,0,0,1.474-2.408l-.168-.328a2.7,2.7,0,0,1,0-2.461l.141-.275a5.409,5.409,0,0,0,0-4.922l-.141-.276a2.7,2.7,0,0,1,0-2.461l.141-.276a5.409,5.409,0,0,0,0-4.922l-.141-.275a2.7,2.7,0,0,1,0-2.461L374.871,181A.541.541,0,0,1,375.353,180.7Z" transform="translate(-329.385 -155.93)" fill="none" stroke="#000" stroke-linecap="round" stroke-linejoin="round" stroke-miterlimit="10" stroke-width="1"/>
        <path id="Trazado_999995" data-name="Trazado 999995" d="M172.612,23.757a11.375,11.375,0,1,0-2.181,3.1" transform="translate(-135.475 -7.5)" fill="none" stroke="#000" stroke-linecap="round" stroke-linejoin="round" stroke-miterlimit="10" stroke-width="1"/>
        <path id="Trazado_999996" data-name="Trazado 999996" d="M218.316,49.375H215.08a.393.393,0,0,1-.384-.478l1.046-4.75a.393.393,0,0,0-.7-.324l-5.964,7.763a.787.787,0,0,0,.624,1.266h3.236a.393.393,0,0,1,.384.478l-1.046,4.75a.393.393,0,0,0,.7.324l5.964-7.763A.787.787,0,0,0,218.316,49.375Z" transform="translate(-187.127 -39.754)" fill="none" stroke="#000" stroke-linecap="round" stroke-linejoin="round" stroke-miterlimit="10" stroke-width="1"/>
        <g id="Grupo_1114114" data-name="Grupo 1114114" transform="translate(42.346 4.327)">
          <path id="Trazado_999997" data-name="Trazado 999997" d="M399.3,47.5a1.831,1.831,0,0,0-.161,2.012,3.058,3.058,0,0,1,.483.8,2.108,2.108,0,0,1-.322,1.69" transform="translate(-398.914 -47.5)" fill="none" stroke="#000" stroke-linecap="round" stroke-linejoin="round" stroke-miterlimit="10" stroke-width="1"/>
          <path id="Trazado_999998" data-name="Trazado 999998" d="M450.972,55.833a1.831,1.831,0,0,0-.161,2.012,3.058,3.058,0,0,1,.483.8,2.108,2.108,0,0,1-.322,1.69" transform="translate(-444.992 -54.931)" fill="none" stroke="#000" stroke-linecap="round" stroke-linejoin="round" stroke-miterlimit="10" stroke-width="1"/>
        </g>
        <g id="Grupo_1114115" data-name="Grupo 1114115" transform="translate(5.058 4.327)">
          <path id="Trazado_999999" data-name="Trazado 999999" d="M106.3,47.5a1.831,1.831,0,0,1,.161,2.012,3.058,3.058,0,0,0-.483.8,2.108,2.108,0,0,0,.322,1.69" transform="translate(-100.326 -47.5)" fill="none" stroke="#000" stroke-linecap="round" stroke-linejoin="round" stroke-miterlimit="10" stroke-width="1"/>
          <path id="Trazado_1000000" data-name="Trazado 1000000" d="M54.633,55.833a1.831,1.831,0,0,1,.161,2.012,3.057,3.057,0,0,0-.483.8,2.108,2.108,0,0,0,.322,1.69" transform="translate(-54.248 -54.931)" fill="none" stroke="#000" stroke-linecap="round" stroke-linejoin="round" stroke-miterlimit="10" stroke-width="1"/>
        </g>
        <path id="Trazado_1000001" data-name="Trazado 1000001" d="M285.05,213.43h0a85.039,85.039,0,0,1,9.3.97" transform="translate(-255.023 -191.151)" fill="none" stroke="#000" stroke-linecap="round" stroke-linejoin="round" stroke-miterlimit="10" stroke-width="1"/>
        <path id="Trazado_1000002" data-name="Trazado 1000002" d="M359.43,130.64a95.7,95.7,0,0,1,13.377,2.951,3.24,3.24,0,0,1,2.317,3.11v7.338q-3.473-1.11-6.9-1.947" transform="translate(-321.356 -117.318)" fill="none" stroke="#000" stroke-linecap="round" stroke-linejoin="round" stroke-miterlimit="10" stroke-width="1"/>
        <path id="Trazado_1000003" data-name="Trazado 1000003" d="M13.783,140.666q-3.166.841-6.283,1.956v-7.414a3.251,3.251,0,0,1,2.254-3.091,76.994,76.994,0,0,1,13.412-3.067" transform="translate(-7.5 -115.9)" fill="none" stroke="#000" stroke-linecap="round" stroke-linejoin="round" stroke-miterlimit="10" stroke-width="1"/>
        <path id="Trazado_1000004" data-name="Trazado 1000004" d="M139.9,213.8a76.756,76.756,0,0,1,9.239-.856h0" transform="translate(-125.576 -190.714)" fill="none" stroke="#000" stroke-linecap="round" stroke-linejoin="round" stroke-miterlimit="10" stroke-width="1"/>
      </g>
    </g>
  </g>
</svg>
