<svg xmlns="http://www.w3.org/2000/svg" xmlns:xlink="http://www.w3.org/1999/xlink" width="124.002" height="124.002" viewBox="0 0 124.002 124.002">
  <defs>
    <filter id="Trazado_896985" x="0" y="0" width="124.002" height="124.002" filterUnits="userSpaceOnUse">
      <feOffset dy="3" input="SourceAlpha"/>
      <feGaussianBlur stdDeviation="3" result="blur"/>
      <feFlood flood-opacity="0.161"/>
      <feComposite operator="in" in2="blur"/>
      <feComposite in="SourceGraphic"/>
    </filter>
  </defs>
  <g id="Grupo_1114163" data-name="Grupo 1114163" transform="translate(-1157.998 -6778.898)">
    <g id="Grupo_1098742" data-name="Grupo 1098742" transform="translate(1166.998 6784.898)">
      <g transform="matrix(1, 0, 0, 1, -9, -6)" filter="url(#Trazado_896985)">
        <g id="Trazado_896985-2" data-name="Trazado 896985" transform="translate(9 6)" fill="#f7eca4">
          <path d="M 53.00102615356445 104.502197265625 C 46.04776763916016 104.502197265625 39.30329895019531 103.1407241821289 32.9549674987793 100.4556121826172 C 26.82244110107422 97.86177062988281 21.31455421447754 94.14815521240234 16.58429718017578 89.41790008544922 C 11.85405445098877 84.68765258789062 8.140425682067871 79.17977142333984 5.54658317565918 73.0472412109375 C 2.861469030380249 66.69889831542969 1.499997615814209 59.95442581176758 1.499997615814209 53.00117111206055 C 1.499997615814209 46.04777145385742 2.861469030380249 39.30329895019531 5.54658317565918 32.95497131347656 C 8.140425682067871 26.82244110107422 11.85405445098877 21.31455612182617 16.58429718017578 16.58429908752441 C 21.31455421447754 11.85405540466309 26.82244110107422 8.140427589416504 32.9549674987793 5.546584129333496 C 39.30329895019531 2.861469984054565 46.04776763916016 1.499998688697815 53.00102615356445 1.499998688697815 C 59.95428466796875 1.499998688697815 66.69875335693359 2.861469984054565 73.04709625244141 5.546584129333496 C 79.17962646484375 8.140427589416504 84.68751525878906 11.85405540466309 89.41775512695312 16.58429908752441 C 94.14801025390625 21.31455612182617 97.86162567138672 26.82244110107422 100.4554672241211 32.95497131347656 C 103.1405868530273 39.30329895019531 104.5020523071289 46.04777145385742 104.5020523071289 53.00102615356445 C 104.5020523071289 59.95442581176758 103.1405868530273 66.69889831542969 100.4554672241211 73.0472412109375 C 97.86162567138672 79.17977142333984 94.14801025390625 84.68765258789062 89.41775512695312 89.41790008544922 C 84.68751525878906 94.14815521240234 79.17962646484375 97.86177062988281 73.04709625244141 100.4556121826172 C 66.69875335693359 103.1407241821289 59.95428466796875 104.502197265625 53.00102615356445 104.502197265625 Z" stroke="none"/>
          <path d="M 53.00102615356445 3 C 46.24961090087891 3 39.70172882080078 4.321601867675781 33.53929138183594 6.9281005859375 C 27.58555603027344 9.446311950683594 22.23792266845703 13.05197906494141 17.64495849609375 17.64496612548828 C 13.05197906494141 22.23793029785156 9.446311950683594 27.58556365966797 6.928092956542969 33.53929901123047 C 4.32159423828125 39.70172882080078 2.999992370605469 46.24961471557617 2.999992370605469 53.00116348266602 C 2.999992370605469 59.75258255004883 4.32159423828125 66.30046081542969 6.928092956542969 72.46289825439453 C 9.446311950683594 78.41663360595703 13.05197906494141 83.76426696777344 17.64495849609375 88.35723114013672 C 22.23792266845703 92.95021820068359 27.58555603027344 96.55587768554688 33.53929138183594 99.0740966796875 C 39.70172882080078 101.6805953979492 46.24961090087891 103.002197265625 53.00102615356445 103.002197265625 C 59.75244140625 103.002197265625 66.30032348632812 101.6805953979492 72.46276092529297 99.0740966796875 C 78.41648864746094 96.55587768554688 83.76410675048828 92.95021820068359 88.35709381103516 88.35723114013672 C 92.95005798339844 83.76426696777344 96.55574035644531 78.41663360595703 99.07394409179688 72.46289825439453 C 101.6804428100586 66.30046081542969 103.0020446777344 59.75258255004883 103.0020446777344 53.00103378295898 C 103.0020446777344 46.24961471557617 101.6804428100586 39.70172882080078 99.07394409179688 33.53929901123047 C 96.55574035644531 27.58556365966797 92.95005798339844 22.23793029785156 88.35709381103516 17.64496612548828 C 83.76410675048828 13.05197906494141 78.41648864746094 9.446311950683594 72.46276092529297 6.9281005859375 C 66.30032348632812 4.321601867675781 59.75244140625 3 53.00102615356445 3 M 53.00102615356445 0 C 82.27268981933594 0 106.0020446777344 23.72936248779297 106.0020446777344 53.00103378295898 L 106.0020446777344 53.00116348266602 C 106.0020446777344 82.27283477783203 82.27268981933594 106.002197265625 53.00102615356445 106.002197265625 C 23.72936248779297 106.002197265625 -7.62939453125e-06 82.27283477783203 -7.62939453125e-06 53.00116348266602 L -7.62939453125e-06 53.00103378295898 C -7.62939453125e-06 23.72936248779297 23.72936248779297 0 53.00102615356445 0 Z" stroke="none" fill="#fff"/>
        </g>
      </g>
      <g id="Rectángulo_400907" data-name="Rectángulo 400907" transform="translate(0)" fill="none" stroke="#fff" stroke-width="3">
        <rect width="106.002" height="106.002" rx="53.001" stroke="none"/>
        <rect x="1.5" y="1.5" width="103.002" height="103.002" rx="51.501" fill="none"/>
      </g>
    </g>
    <g id="Grupo_1114162" data-name="Grupo 1114162" transform="translate(1177.884 6795.733)">
      <g id="Grupo_1114156" data-name="Grupo 1114156" transform="translate(7.5 16.167)">
        <path id="Trazado_1000039" data-name="Trazado 1000039" d="M55.07,402.279h3.357a.977.977,0,0,0,.977-.977v-5.523h-5.31V401.3A.977.977,0,0,0,55.07,402.279Z" transform="translate(-47.593 -350.279)" fill="#7b6c79"/>
        <path id="Trazado_1000040" data-name="Trazado 1000040" d="M80.195,401.3v-5.523H84.38V401.3a.977.977,0,0,1-.977.977H79.218A.977.977,0,0,0,80.195,401.3Z" transform="translate(-69.213 -350.279)" fill="#6d5f6c"/>
        <path id="Trazado_1000041" data-name="Trazado 1000041" d="M54.093,75.135H59.4V70.6a.977.977,0,0,0-.977-.977H55.07a.977.977,0,0,0-.977.977Z" transform="translate(-47.593 -69.625)" fill="#7b6c79"/>
        <path id="Trazado_1000042" data-name="Trazado 1000042" d="M79.218,69.625H83.4a.977.977,0,0,1,.977.977v4.533H80.195V70.6A.977.977,0,0,0,79.218,69.625Z" transform="translate(-69.213 -69.625)" fill="#6d5f6c"/>
        <path id="Trazado_1000043" data-name="Trazado 1000043" d="M8.477,227.973H24.833A.977.977,0,0,0,25.81,227v-20.69l-7.476-8.056L7.5,206.306V227A.977.977,0,0,0,8.477,227.973Z" transform="translate(-7.5 -180.306)" fill="#26a6fe"/>
        <path id="Trazado_1000044" data-name="Trazado 1000044" d="M78.291,227v-20.69l-8.667-6.445,2.167-1.611,10.833,8.056V227a.976.976,0,0,1-.977.977H77.314A.976.976,0,0,0,78.291,227Z" transform="translate(-60.957 -180.305)" fill="#0593fc"/>
        <path id="Trazado_1000045" data-name="Trazado 1000045" d="M24.833,122.354l.977-1.256V101.664a.977.977,0,0,0-.977-.977H8.477a.977.977,0,0,0-.977.977v20.69Z" transform="translate(-7.5 -96.354)" fill="#f45d5d"/>
        <path id="Trazado_1000046" data-name="Trazado 1000046" d="M124.749,100.687h4.333a.977.977,0,0,1,.977.977v20.69h-4.333v-20.69A.977.977,0,0,0,124.749,100.687Z" transform="translate(-108.392 -96.354)" fill="#db4d4d"/>
        <circle id="Elipse_12031" data-name="Elipse 12031" cx="6.5" cy="6.5" r="6.5" transform="translate(4.333 30.333)" fill="#ecebfc"/>
        <circle id="Elipse_12032" data-name="Elipse 12032" cx="6.5" cy="6.5" r="6.5" transform="translate(4.333 8.667)" fill="#ecebfc"/>
        <g id="Grupo_1114155" data-name="Grupo 1114155" transform="translate(43.333 5.51)">
          <path id="Trazado_1000047" data-name="Trazado 1000047" d="M318.123,122.121a13,13,0,0,1,13-13c4.208,0,10.833,5.82,10.833,13a13.005,13.005,0,0,1-8.667,12.26v6.437h-6.5v-6.437A13.005,13.005,0,0,1,318.123,122.121Z" transform="translate(-318.123 -109.121)" fill="#ffe02f"/>
          <path id="Trazado_1000048" data-name="Trazado 1000048" d="M407.216,122.121a13,13,0,0,0-10.907-12.831,13,13,0,0,1,6.426,25.092v6.437H398.55v-6.437A13.005,13.005,0,0,0,407.216,122.121Z" transform="translate(-385.402 -109.121)" fill="#fbc700"/>
          <path id="Trazado_1000049" data-name="Trazado 1000049" d="M366.883,322.456a2.167,2.167,0,1,1,0-4.333h5.54a2.167,2.167,0,0,1,2.167,2.167c0,1.2-.551,2.167-1.748,2.167,1.2,0,1.748.97,1.748,2.167a2.167,2.167,0,0,1-2.167,2.167H370.8a2.167,2.167,0,1,1,0,4.333h-2.29a2.167,2.167,0,1,1,0-4.333h-1.625a2.167,2.167,0,0,1,0-4.333Z" transform="translate(-358.216 -288.966)" fill="#7b6c79"/>
          <path id="Trazado_1000050" data-name="Trazado 1000050" d="M402.89,328.956a2.167,2.167,0,0,0-2.167-2.167h1.625a2.167,2.167,0,0,0,0-4.333,2.167,2.167,0,1,0,0-4.333h4.185a2.167,2.167,0,1,1,0,4.333,2.167,2.167,0,0,1,0,4.333h-1.625a2.167,2.167,0,1,1,0,4.333h-4.185A2.167,2.167,0,0,0,402.89,328.956Z" transform="translate(-389.2 -288.966)" fill="#6d5f6c"/>
        </g>
      </g>
      <g id="Grupo_1114161" data-name="Grupo 1114161" transform="translate(7.5 7.5)">
        <g id="Grupo_1114157" data-name="Grupo 1114157" transform="translate(43.333 14.177)">
          <path id="Trazado_1000051" data-name="Trazado 1000051" d="M337.2,110.628a13,13,0,1,0-10.414,23.753v3.9" transform="translate(-318.122 -109.121)" fill="none" stroke="#000" stroke-linecap="round" stroke-linejoin="round" stroke-miterlimit="10" stroke-width="1"/>
          <path id="Trazado_1000052" data-name="Trazado 1000052" d="M442.372,165.054v-3.9a13,13,0,0,0,5.363-20.919" transform="translate(-425.039 -135.897)" fill="none" stroke="#000" stroke-linecap="round" stroke-linejoin="round" stroke-miterlimit="10" stroke-width="1"/>
          <path id="Trazado_1000053" data-name="Trazado 1000053" d="M399.793,157.455l-2.951,6.257h4.037l-3.027,6.5" transform="translate(-385.86 -150.712)" fill="none" stroke="#000" stroke-linecap="round" stroke-linejoin="round" stroke-miterlimit="10" stroke-width="1"/>
          <path id="Trazado_1000054" data-name="Trazado 1000054" d="M367.8,322.456h-.919a2.167,2.167,0,0,1-2.167-2.167h0a2.167,2.167,0,0,1,2.167-2.167h8.667a2.167,2.167,0,0,1,2.167,2.167h0a2.167,2.167,0,0,1-2.167,2.167h-3.188" transform="translate(-358.217 -288.966)" fill="none" stroke="#000" stroke-linecap="round" stroke-linejoin="round" stroke-miterlimit="10" stroke-width="1"/>
          <path id="Trazado_1000055" data-name="Trazado 1000055" d="M375.549,349.185a2.167,2.167,0,0,1,2.167,2.167h0a2.167,2.167,0,0,1-2.167,2.167h-8.667a2.167,2.167,0,0,1-2.167-2.167h0a2.167,2.167,0,0,1,2.167-2.167" transform="translate(-358.216 -315.695)" fill="none" stroke="#000" stroke-linecap="round" stroke-linejoin="round" stroke-miterlimit="10" stroke-width="1"/>
          <path id="Trazado_1000056" data-name="Trazado 1000056" d="M383.947,380.247a2.167,2.167,0,0,1,2.167,2.167h0a2.167,2.167,0,0,1-2.167,2.167h-5.417a2.167,2.167,0,0,1-2.167-2.167h0a2.167,2.167,0,0,1,2.167-2.167" transform="translate(-368.239 -342.424)" fill="none" stroke="#000" stroke-linecap="round" stroke-linejoin="round" stroke-miterlimit="10" stroke-width="1"/>
        </g>
        <path id="Trazado_1000057" data-name="Trazado 1000057" d="M29.167,109.71v33.334a.977.977,0,0,1-.977.977H8.477a.977.977,0,0,1-.977-.977v-41.38a.977.977,0,0,1,.977-.977H28.19a.977.977,0,0,1,.977.977v3.486" transform="translate(-7.5 -87.687)" fill="none" stroke="#000" stroke-linecap="round" stroke-linejoin="round" stroke-miterlimit="10" stroke-width="1"/>
        <line id="Línea_585" data-name="Línea 585" x2="21.666" transform="translate(0 34.666)" fill="none" stroke="#000" stroke-linecap="round" stroke-linejoin="round" stroke-miterlimit="10" stroke-width="1"/>
        <g id="Grupo_1114158" data-name="Grupo 1114158" transform="translate(8.667 21.666)">
          <line id="Línea_586" data-name="Línea 586" y2="4.333" transform="translate(2.167)" fill="none" stroke="#000" stroke-linecap="round" stroke-linejoin="round" stroke-miterlimit="10" stroke-width="1"/>
          <line id="Línea_587" data-name="Línea 587" x1="4.333" transform="translate(0 2.167)" fill="none" stroke="#000" stroke-linecap="round" stroke-linejoin="round" stroke-miterlimit="10" stroke-width="1"/>
        </g>
        <circle id="Elipse_12033" data-name="Elipse 12033" cx="6.5" cy="6.5" r="6.5" transform="translate(4.333 17.333)" fill="none" stroke="#000" stroke-linecap="round" stroke-linejoin="round" stroke-miterlimit="10" stroke-width="1"/>
        <g id="Grupo_1114159" data-name="Grupo 1114159" transform="translate(8.667 45.5)">
          <line id="Línea_588" data-name="Línea 588" x1="4.333" fill="none" stroke="#000" stroke-linecap="round" stroke-linejoin="round" stroke-miterlimit="10" stroke-width="1"/>
        </g>
        <circle id="Elipse_12034" data-name="Elipse 12034" cx="6.5" cy="6.5" r="6.5" transform="translate(4.333 39)" fill="none" stroke="#000" stroke-linecap="round" stroke-linejoin="round" stroke-miterlimit="10" stroke-width="1"/>
        <path id="Trazado_1000058" data-name="Trazado 1000058" d="M62.76,411.309v3.357a.977.977,0,0,1-.977.977H55.07a.977.977,0,0,1-.977-.977v-3.357" transform="translate(-47.593 -354.976)" fill="none" stroke="#000" stroke-linecap="round" stroke-linejoin="round" stroke-miterlimit="10" stroke-width="1"/>
        <path id="Trazado_1000059" data-name="Trazado 1000059" d="M54.093,73.958V70.6a.977.977,0,0,1,.977-.977h6.714a.977.977,0,0,1,.977.977v3.357" transform="translate(-47.593 -60.958)" fill="none" stroke="#000" stroke-linecap="round" stroke-linejoin="round" stroke-miterlimit="10" stroke-width="1"/>
        <path id="Trazado_1000060" data-name="Trazado 1000060" d="M85.156,29.466V26.775a3.213,3.213,0,0,1,3.213-3.213h19.574a3.213,3.213,0,0,1,3.213,3.213h0a3.213,3.213,0,0,0,3.213,3.213h13.074a3.213,3.213,0,0,1,3.213,3.213v2.3" transform="translate(-74.323 -21.321)" fill="none" stroke="#000" stroke-linecap="round" stroke-linejoin="round" stroke-miterlimit="10" stroke-width="1"/>
        <path id="Trazado_1000061" data-name="Trazado 1000061" d="M162.811,7.5l2.167,2.241-2.167,2.093" transform="translate(-141.145 -7.5)" fill="none" stroke="#000" stroke-linecap="round" stroke-linejoin="round" stroke-miterlimit="10" stroke-width="1"/>
        <path id="Trazado_1000062" data-name="Trazado 1000062" d="M333.654,54.093l2.167,2.241-2.167,2.093" transform="translate(-288.154 -47.593)" fill="none" stroke="#000" stroke-linecap="round" stroke-linejoin="round" stroke-miterlimit="10" stroke-width="1"/>
        <g id="Grupo_1114160" data-name="Grupo 1114160" transform="translate(10.833 56.333)">
          <path id="Trazado_1000063" data-name="Trazado 1000063" d="M85.156,415.643v3.213a3.213,3.213,0,0,0,3.213,3.213h19.574a3.213,3.213,0,0,0,3.213-3.213h0a3.213,3.213,0,0,1,3.213-3.213h13.074a3.213,3.213,0,0,0,3.213-3.213v-1.12" transform="translate(-85.156 -411.31)" fill="none" stroke="#000" stroke-linecap="round" stroke-linejoin="round" stroke-miterlimit="10" stroke-width="1"/>
          <path id="Trazado_1000064" data-name="Trazado 1000064" d="M162.811,477.767l2.167-2.241-2.167-2.093" transform="translate(-151.978 -464.767)" fill="none" stroke="#000" stroke-linecap="round" stroke-linejoin="round" stroke-miterlimit="10" stroke-width="1"/>
          <path id="Trazado_1000065" data-name="Trazado 1000065" d="M333.654,431.173l2.167-2.241-2.167-2.093" transform="translate(-298.988 -424.674)" fill="none" stroke="#000" stroke-linecap="round" stroke-linejoin="round" stroke-miterlimit="10" stroke-width="1"/>
        </g>
      </g>
    </g>
  </g>
</svg>
