<svg xmlns="http://www.w3.org/2000/svg" width="73" height="66" viewBox="0 0 73 66">
  <g id="Grupo_1116422" data-name="Grupo 1116422" transform="translate(-192.051 -3058)">
    <rect id="Rectángulo_405684" data-name="Rectángulo 405684" width="73" height="66" rx="11" transform="translate(192.051 3058)" fill="#e3eaf7"/>
    <g id="layer2" transform="translate(204.387 3066.836)">
      <path id="path2334" d="M16.315,3.916c4.543.128,7.869.784,7.869,1.6s-4.228,1.524-9.444,1.524S5.3,6.338,5.3,5.469c0-.768,3.326-1.425,7.87-1.553" transform="translate(9.425 6.698)" fill="#549ad4"/>
      <path id="path2324" d="M9.222,4.7C10.8,11.788,6.06,29.134,3.7,36.221c0,.907,2.707,1.744,7.095,2.2a74.081,74.081,0,0,0,14.181,0c4.388-.453,7.09-1.29,7.09-2.2-2.361-7.087-7.1-24.432-5.522-31.519h-.488a34.119,34.119,0,0,1-8.171.788A34.108,34.108,0,0,1,9.722,4.7Z" transform="translate(6.276 8.252)" fill="#e4eff8"/>
      <path id="path2308" d="M13.162,6.076c-.735-.033-1.491-.049-2.25-.049A27.787,27.787,0,0,0,1.852,7.6a27.787,27.787,0,0,0,9.06,1.576c.7,0,1.406-.014,2.092-.043" transform="translate(2.616 10.872)" fill="#549ad4"/>
      <path id="path2301" d="M11.283,6.076c.735-.033,1.491-.049,2.25-.049,5,0,9.06.705,9.06,1.576s-4.056,1.576-9.06,1.576c-.7,0-1.406-.014-2.092-.043" transform="translate(21.267 10.872)" fill="#549ad4"/>
      <path id="path2282" d="M5.207,6.824A31.7,31.7,0,0,0,13,7.6c.7,0,1.394-.015,2.073-.043-.715,7.383-3.252,16.947-5.045,22.657-4.6-.276-9.238-.772-9.238-1.343C3.155,21.786,6.307,13.911,4.733,6.824Z" transform="translate(0.523 12.449)" fill="#e4eff8"/>
      <path id="path2286" d="M4.733,6.824C6.307,13.911,3.155,21.786.794,28.872c0,.572,4.636,1.067,9.238,1.343.011-.035.023-.077.034-.112-4.031-.287-7.7-.724-7.7-1.231,2.332-7,5.427-14.763,3.988-21.78-.437-.082-.823-.172-1.151-.268Z" transform="translate(0.523 12.449)" fill="#c4dcf0"/>
      <path id="path2229" d="M21.213,6.824a31.7,31.7,0,0,1-7.8.777c-.7,0-1.394-.015-2.073-.043.715,7.383,3.252,16.947,5.045,22.657,4.6-.276,9.238-.772,9.238-1.343-2.361-7.087-5.513-14.962-3.939-22.048Z" transform="translate(21.384 12.449)" fill="#e4eff8"/>
      <path id="path2278" d="M21.213,6.824a31.7,31.7,0,0,1-7.8.777c-.7,0-1.394-.015-2.073-.043.049.511.128,1.053.194,1.583.617.023,1.247.035,1.879.035a31.7,31.7,0,0,0,7.8-.777h.208c.067-.529.15-1.055.266-1.576Z" transform="translate(21.384 12.449)" fill="#c4dcf0"/>
      <path id="path2247" d="M11.315,6.824c.612,7.469,3.275,17.494,5.127,23.391.524-.031,1.024-.075,1.542-.112-1.851-5.91-4.485-15.854-5.093-23.279Z" transform="translate(21.33 12.449)" fill="#c4dcf0"/>
      <path id="path2317" d="M10.912,6.027c-5,0-9.06.705-9.06,1.576,0,.277.427.549,1.226.788A31.437,31.437,0,0,1,10.912,7.6c.731,0,1.459.016,2.168.046l.082-1.573c-.735-.033-1.491-.049-2.25-.049Z" transform="translate(2.616 10.872)" fill="#3588cb"/>
      <path id="path2129" d="M8.863,13.421,11.619,18.2a7.875,7.875,0,0,0,3.935-6.819H10.041" transform="translate(16.481 21.453)" fill="#ffca28"/>
      <path id="path2126" d="M9.222,4.7C10.8,11.788,6.06,29.134,3.7,36.221c0,.907,2.707,1.744,7.095,2.2a74.081,74.081,0,0,0,14.181,0c4.388-.453,7.09-1.29,7.09-2.2-.016-.048-.036-.119-.052-.168a30.9,30.9,0,0,1-4.67.789,74.081,74.081,0,0,1-14.181,0c-4.388-.453-7.091-1.29-7.095-2.2,2.2-6.609,6.461-22.131,5.75-29.943Z" transform="translate(6.276 8.252)" fill="#c4dcf0"/>
      <path id="path2133" d="M12.26,14.563l2.756-4.775a7.867,7.867,0,0,0-7.87,0L9.9,14.564" transform="translate(13.084 16.224)" fill="#ffca28"/>
      <path id="path2292" d="M4.733,6.824a18.136,18.136,0,0,1,.4,3.274A20.336,20.336,0,0,0,5,6.824Zm10.4,0-.023.431c.013-.14.036-.293.048-.431Zm-.057.734-.138.006q-.131,1.519-.254,3.121c.158-1.071.295-2.121.392-3.127ZM1.226,27.587c-.144.424-.293.866-.432,1.285,0,.572,4.636,1.067,9.238,1.343.124-.394.258-.848.388-1.277-4.167-.1-6.882-.337-9.194-1.351Z" transform="translate(0.523 12.449)" fill="#c4dcf0"/>
      <path id="path2298" d="M2.117,6.824c.116.521.2,1.047.266,1.576h.208a31.7,31.7,0,0,0,7.8.777c.632,0,1.261-.012,1.879-.035.066-.53.144-1.072.194-1.583-.679.028-1.375.043-2.073.043a31.7,31.7,0,0,1-7.8-.777Z" transform="translate(3.139 12.449)" fill="#c4dcf0"/>
      <path id="path2305" d="M13.533,6.027c-.759,0-1.515.017-2.25.049l.082,1.573c.709-.031,1.437-.046,2.168-.046a31.437,31.437,0,0,1,7.834.788c.8-.239,1.223-.511,1.226-.788,0-.87-4.056-1.576-9.06-1.576Z" transform="translate(21.267 10.872)" fill="#3588cb"/>
      <path id="path2331" d="M5.556,4.7a12.635,12.635,0,0,1,.231,1.576h.269a34.107,34.107,0,0,0,8.166.788,34.12,34.12,0,0,0,8.171-.788h.257A12.637,12.637,0,0,1,22.881,4.7h-.488a34.119,34.119,0,0,1-8.171.788A34.108,34.108,0,0,1,6.056,4.7Z" transform="translate(9.941 8.252)" fill="#c4dcf0"/>
      <path id="path2136" d="M11.336,11.377H5.824A7.875,7.875,0,0,0,9.76,18.2l2.756-4.777" transform="translate(10.472 21.453)" fill="#ffca28"/>
      <path id="ellipse2178" d="M12.4,12.946a2.361,2.361,0,1,1-2.361-2.362A2.362,2.362,0,0,1,12.4,12.946Z" transform="translate(14.129 19.884)" fill="#549ad4"/>
      <path id="ellipse2182" d="M7.674,12.876a2.36,2.36,0,0,0,4.619.685,2.359,2.359,0,0,1-2.942-2.942,2.362,2.362,0,0,0-1.677,2.257Z" transform="translate(14.129 19.954)" fill="#3588cb"/>
      <g id="Grupo_1116418" data-name="Grupo 1116418" transform="translate(16.296 25.203)">
        <path id="path2207" d="M10.042,11.377,8.863,13.421,11.619,18.2a7.871,7.871,0,0,0,2.368-2.11,7.871,7.871,0,0,1-.792.534l-2.756-4.776.269-.468Z" transform="translate(0.185 -3.75)" fill="#ecb200"/>
        <path id="path2219" d="M9.163,8.816a7.868,7.868,0,0,0-2.017.809L9.9,14.4l2.359,0,.909-1.576-1.693,0Z" transform="translate(-3.212 -8.816)" fill="#ecb200"/>
        <path id="path2213" d="M5.824,11.377A7.875,7.875,0,0,0,9.76,18.2l1.09-1.89a7.874,7.874,0,0,1-3.29-4.93Z" transform="translate(-5.824 -3.75)" fill="#ecb200"/>
      </g>
      <path id="path2345" d="M13.146,3.916C8.819,4.039,5.57,4.642,5.3,5.373a37.231,37.231,0,0,1,5.429-.5h3.15c4.543.128,7.868.784,7.869,1.553a.3.3,0,0,1-.028.1c1.567-.289,2.437-.664,2.44-1.054,0-.769-3.322-1.426-7.869-1.554Z" transform="translate(9.444 6.697)" fill="#3588cb"/>
      <path id="path2336" d="M22.051,13.2V8.237a1.148,1.148,0,0,0-1.145-1.156h-5.58a1.148,1.148,0,0,1-1.145-1.156,1.148,1.148,0,0,0-1.145-1.156l-9.1-.05C1.616,4.719.8,2.369.8.794H16.264A1.148,1.148,0,0,1,17.409,1.95a1.148,1.148,0,0,0,1.145,1.156h3.781A2.718,2.718,0,0,1,25.2,6v7.2" transform="translate(0.539 0.524)" fill="#e4eff8"/>
      <path id="path2340" d="M.8.794c0,1.575.815,3.925,3.137,3.925l9.1.049a1.149,1.149,0,0,1,1.146,1.156,1.149,1.149,0,0,0,1.145,1.157h5.579a1.147,1.147,0,0,1,1.145,1.156V13.2h1.576V6.661a1.147,1.147,0,0,0-1.145-1.156H16.9a1.149,1.149,0,0,1-1.145-1.157,1.149,1.149,0,0,0-1.146-1.156l-9.1-.049A3,3,0,0,1,2.64.794Z" transform="translate(0.539 0.524)" fill="#c4dcf0"/>
      <path id="path2546" d="M1.339.529a.787.787,0,0,0-.786.785,5.663,5.663,0,0,0,.82,2.979,3.57,3.57,0,0,0,3.1,1.739l9.1.046a.368.368,0,0,1,.36.377,1.936,1.936,0,0,0,1.931,1.937h5.576a.363.363,0,0,1,.362.366v1.1a34.689,34.689,0,0,0-5.007.52,8.535,8.535,0,0,0-1.81.523,2.326,2.326,0,0,0-.651.408,1.185,1.185,0,0,0-.4.86,1.2,1.2,0,0,0,.477.925,2.247,2.247,0,0,0,.361.235,15.208,15.208,0,0,1,.247,2.8c-.493-.015-.993-.021-1.494-.021a40.024,40.024,0,0,0-6.541.471,10.312,10.312,0,0,0-2.106.552,2.649,2.649,0,0,0-.739.425,1.224,1.224,0,0,0-.459.919,1.21,1.21,0,0,0,.459.912,2.331,2.331,0,0,0,.392.263C5.943,26.421,2.92,34.018.571,41.068a.786.786,0,0,0-.042.251,1.225,1.225,0,0,0,.46.919,2.648,2.648,0,0,0,.739.425,10.33,10.33,0,0,0,2.1.546,37.964,37.964,0,0,0,5.578.464c-.055.169-.128.389-.181.548a.828.828,0,0,0-.037.255,1.641,1.641,0,0,0,.846,1.314,6.287,6.287,0,0,0,1.611.7,28.91,28.91,0,0,0,5.344.965,74.647,74.647,0,0,0,14.341,0,28.921,28.921,0,0,0,5.345-.965,6.277,6.277,0,0,0,1.611-.7,1.653,1.653,0,0,0,.843-1.32.786.786,0,0,0-.042-.249c-.053-.159-.128-.378-.183-.548a37.944,37.944,0,0,0,5.581-.465,10.4,10.4,0,0,0,2.111-.546,2.648,2.648,0,0,0,.739-.425,1.224,1.224,0,0,0,.459-.919.785.785,0,0,0-.04-.251C45.41,34.019,42.4,26.352,43.8,19.652a2.248,2.248,0,0,0,.389-.263,1.211,1.211,0,0,0,.46-.912,1.225,1.225,0,0,0-.46-.919,2.648,2.648,0,0,0-.739-.425,10.3,10.3,0,0,0-2.1-.552A40.042,40.042,0,0,0,34.8,16.11c-.5,0-1.008.007-1.5.021a15.214,15.214,0,0,1,.248-2.8,2.311,2.311,0,0,0,.372-.242,1.2,1.2,0,0,0,.475-.925,1.184,1.184,0,0,0-.4-.86,2.334,2.334,0,0,0-.652-.408,8.52,8.52,0,0,0-1.808-.523,34.7,34.7,0,0,0-5.007-.52V6.519a3.718,3.718,0,0,0-1.012-2.651,3.641,3.641,0,0,0-2.64-1.023H19.094a.362.362,0,0,1-.355-.372A1.941,1.941,0,0,0,16.8.529ZM16.8,2.106a.353.353,0,0,1,.359.375,1.929,1.929,0,0,0,1.934,1.933h3.779a2.088,2.088,0,0,1,1.519.565,2.1,2.1,0,0,1,.557,1.54v6.428c-.263,0-.516,0-.785,0s-.522,0-.785,0V8.758a1.93,1.93,0,0,0-1.937-1.942H15.865a.355.355,0,0,1-.355-.366A1.958,1.958,0,0,0,13.574,4.5L4.468,4.454a1.972,1.972,0,0,1-1.763-1,3.965,3.965,0,0,1-.5-1.343Zm5,9.321V12.9a35.919,35.919,0,0,1-4.187-.4,12.654,12.654,0,0,1-1.514-.337c.273-.083.609-.167,1-.245a33.282,33.282,0,0,1,4.7-.494Zm4.722,0a33.327,33.327,0,0,1,4.7.492,10.261,10.261,0,0,1,1,.245,12.6,12.6,0,0,1-1.511.337,36.151,36.151,0,0,1-4.187.392ZM16.455,13.882c.286.064.568.119.9.174a43.425,43.425,0,0,0,6.81.472,43.425,43.425,0,0,0,6.81-.472c.327-.054.626-.111.891-.174-.508,3.848.388,9.832,1.471,14.993A153.879,153.879,0,0,0,37.5,44.418a4.809,4.809,0,0,1-1.3.574,27.8,27.8,0,0,1-5.025.892,73.476,73.476,0,0,1-14.016,0,28,28,0,0,1-5.042-.9,4.435,4.435,0,0,1-1.288-.569,154.612,154.612,0,0,0,4.155-15.545c.842-4,2.051-10.622,1.474-14.993Zm-1.46,3.825c-.022.487-.057,1.015-.1,1.534-.447.012-.914.02-1.368.02a38.782,38.782,0,0,1-6.269-.448A11.3,11.3,0,0,1,5.8,18.47a11.448,11.448,0,0,1,1.454-.337,40.581,40.581,0,0,1,5.663-.442c1.477,0,1.591,0,2.074.015Zm27.524.763a11.21,11.21,0,0,1-1.449.343,38.783,38.783,0,0,1-6.269.448c-.456,0-.929-.005-1.379-.017-.043-.519-.077-1.05-.1-1.537.514-.015.609-.018,2.062-.02a38.934,38.934,0,0,1,5.684.446,11.375,11.375,0,0,1,1.449.337Zm-35.533,1.9a40.022,40.022,0,0,0,6.541.471c.4,0,.816,0,1.213-.014-.275,2.429-.741,5.068-1.3,7.726-1.054,5.021-2.421,9.983-3.532,13.561a37.8,37.8,0,0,1-5.8-.453,9.374,9.374,0,0,1-1.78-.454A.992.992,0,0,1,2.2,41.15c2.219-6.6,5.128-13.978,4.033-20.936.245.055.472.1.75.151ZM46.124,41.148A.939.939,0,0,1,46,41.2a9.353,9.353,0,0,1-1.779.454,37.912,37.912,0,0,1-5.8.44c-1.113-3.578-2.491-8.527-3.545-13.548-.558-2.658-1.024-5.3-1.3-7.729.4.01.818.017,1.222.017a40.044,40.044,0,0,0,6.543-.471c.266-.046.525-.1.749-.151-1.082,6.871,1.813,14.334,4.031,20.933ZM19.837,25.134a.788.788,0,0,0-.291,1.077l2.41,4.176a3.187,3.187,0,0,0-.842,1.458l-4.818,0a.779.779,0,0,0-.786.788,8.663,8.663,0,0,0,4.327,7.5.788.788,0,0,0,1.076-.291l2.411-4.177a3.063,3.063,0,0,0,1.682,0l2.41,4.176a.791.791,0,0,0,1.082.291,8.669,8.669,0,0,0,4.327-7.5.789.789,0,0,0-.791-.785l-4.822,0a3.116,3.116,0,0,0-.842-1.459s1.608-2.783,2.413-4.179a.789.789,0,0,0-.291-1.077,8.668,8.668,0,0,0-8.654,0Zm4.327.417A7.256,7.256,0,0,1,27,26.145L25.007,29.6a3.44,3.44,0,0,0-.843-.117,3.114,3.114,0,0,0-.84.117l-2-3.458a7.3,7.3,0,0,1,2.838-.594Zm0,5.51a1.576,1.576,0,1,1-1.569,1.576A1.587,1.587,0,0,1,24.164,31.061Zm-3.05,2.363a3.2,3.2,0,0,0,.842,1.461l-1.993,3.458a7.112,7.112,0,0,1-2.836-4.918Zm6.1,0,3.988,0a7.109,7.109,0,0,1-2.837,4.919l-2-3.46a3.2,3.2,0,0,0,.845-1.462Z" transform="translate(0 0)"/>
    </g>
  </g>
</svg>
