<svg xmlns="http://www.w3.org/2000/svg" width="73" height="66" viewBox="0 0 73 66">
  <g id="Grupo_1116421" data-name="Grupo 1116421" transform="translate(-192.051 -3161)">
    <rect id="Rectángulo_405685" data-name="Rectángulo 405685" width="73" height="66" rx="11" transform="translate(192.051 3161)" fill="#e3eaf7"/>
    <g id="Grupo_1116420" data-name="Grupo 1116420" transform="translate(199.906 3168.334)">
      <g id="Grupo_1116419" data-name="Grupo 1116419" transform="translate(4.682 0.702)">
        <path id="Trazado_1002184" data-name="Trazado 1002184" d="M249.982,225.429l-12.818,1.864.1-2.078,9.12-2.1,3.555,1.108Z" transform="translate(-215.089 -201.45)" fill="#bec7cf" fill-rule="evenodd"/>
        <path id="Trazado_1002185" data-name="Trazado 1002185" d="M237.872,225.809l9-2.072,2.5.782.6.188.458.142.023.605.168-.026-.043-1.2-.381-.119-.546-.171-2.629-.819-9.12,2.1Z" transform="translate(-215.726 -201.45)" fill="#abb3ba" fill-rule="evenodd"/>
        <path id="Trazado_1002186" data-name="Trazado 1002186" d="M30.375,160.708l-12.232,9.655L17,168.137l8.239-7.674,4.374-.983Z" transform="translate(-16.997 -144.192)" fill="#bec7cf" fill-rule="evenodd"/>
        <path id="Trazado_1002187" data-name="Trazado 1002187" d="M94.844,21.849,88.685,7.536,91.132,7l5.278,9.944-.182,4.479Z" transform="translate(-81.497 -7.005)" fill="#bec7cf" fill-rule="evenodd"/>
        <path id="Trazado_1002188" data-name="Trazado 1002188" d="M166.3,138.935l15.421-2.245-.122,2.5-10.97,2.524-4.28-1.336Z" transform="translate(-151.329 -123.687)" fill="#bec7cf" fill-rule="evenodd"/>
        <path id="Trazado_1002189" data-name="Trazado 1002189" d="M132.729,191.316h-6l2.205-28.037h1.592Z" transform="translate(-115.724 -147.61)" fill="#d3dde6" fill-rule="evenodd"/>
        <path id="Trazado_1002190" data-name="Trazado 1002190" d="M133.5,143.526a2.582,2.582,0,1,0-2.581-2.584,2.582,2.582,0,0,0,2.581,2.584Z" transform="translate(-119.499 -125.192)" fill="#fdbf00" fill-rule="evenodd"/>
        <path id="Trazado_1002191" data-name="Trazado 1002191" d="M371.7,118.6l1.515-12.863,1.984.634-.333,9.351-1.992,3.152Z" transform="translate(-336.133 -95.837)" fill="#bec7cf" fill-rule="evenodd"/>
        <path id="Trazado_1002192" data-name="Trazado 1002192" d="M376.6,243.641l12.033,4.795-1.125,1.748-8.947-2.74-2.527-2.74Z" transform="translate(-340.035 -219.915)" fill="#bec7cf" fill-rule="evenodd"/>
        <path id="Trazado_1002193" data-name="Trazado 1002193" d="M353.1,265.979h-4.991l1.833-23.3h1.324Z" transform="translate(-314.913 -219.048)" fill="#d3dde6" fill-rule="evenodd"/>
        <path id="Trazado_1002194" data-name="Trazado 1002194" d="M353.746,226.25A2.146,2.146,0,1,0,351.6,224.1,2.146,2.146,0,0,0,353.746,226.25Z" transform="translate(-318.052 -200.407)" fill="#fdbf00" fill-rule="evenodd"/>
        <path id="Trazado_1002195" data-name="Trazado 1002195" d="M50.733,384.883A11.481,11.481,0,0,0,36.3,392.028a1.338,1.338,0,0,0,1.273,1.763H78.165c5.613,0-.273-15.165-12.13-8.367-4.169-5.1-10.831-5.437-15.3-.54Z" transform="translate(-34.306 -343.86)" fill="#91dc5a" fill-rule="evenodd"/>
        <path id="Trazado_1002196" data-name="Trazado 1002196" d="M66.009,385.419c-4.064-4.971-10.5-5.417-14.964-.9-.114.117-.227.236-.338.358a11.7,11.7,0,0,0-5.181-.443,11.29,11.29,0,0,0-9.248,7.588,1.311,1.311,0,0,0,.185,1.208,1.458,1.458,0,0,0,.293.3,1.549,1.549,0,0,1,.043-.153,11.262,11.262,0,0,1,8.614-7.48,11.7,11.7,0,0,1,5.767.321l.048.017c4.471-4.9,11.132-4.562,15.3.54.449-.259.89-.483,1.319-.679a11.178,11.178,0,0,1,4.169-1.066,8.54,8.54,0,0,1,8.049,4.857,8.622,8.622,0,0,0-8.157-6.221,10.619,10.619,0,0,0-3.934.8,15.7,15.7,0,0,0-1.967.955Z" transform="translate(-34.28 -343.856)" fill="#83c651" fill-rule="evenodd"/>
        <path id="Trazado_1002197" data-name="Trazado 1002197" d="M131.943,140.522A2.587,2.587,0,0,1,134,138.414a2.582,2.582,0,0,0-3.069,2.336c0,.065-.006.13-.006.2a2.578,2.578,0,0,0,2.581,2.583,2.558,2.558,0,0,0,.494-.048,2.57,2.57,0,0,1-1.432-.813,2.446,2.446,0,0,1-.324-.455,2.6,2.6,0,0,1-.3-1.691Z" transform="translate(-119.5 -125.195)" fill="#e4ac00" fill-rule="evenodd"/>
        <path id="Trazado_1002198" data-name="Trazado 1002198" d="M130.119,210.259l1.742-22.151a2.587,2.587,0,0,1-.929-.2l-1.768,22.441Q129.637,210.289,130.119,210.259Z" transform="translate(-117.918 -169.774)" fill="#bec7cf" fill-rule="evenodd"/>
        <path id="Trazado_1002199" data-name="Trazado 1002199" d="M25.492,163.56l2.987-.671a2.683,2.683,0,0,1-.057-.548c0-.065,0-.13.006-.2l-3.189.716L17,170.535l.324.631Z" transform="translate(-17 -146.59)" fill="#abb3ba" fill-rule="evenodd"/>
        <path id="Trazado_1002200" data-name="Trazado 1002200" d="M94.943,23.576l-5.53-12.858-.728.159,5.573,12.957a2.618,2.618,0,0,1,.685-.259Z" transform="translate(-81.497 -10.346)" fill="#abb3ba" fill-rule="evenodd"/>
        <path id="Trazado_1002201" data-name="Trazado 1002201" d="M181.475,139.245l13.784-2.006.028-.549-13.909,2.023a2.507,2.507,0,0,1,.1.531Z" transform="translate(-164.897 -123.687)" fill="#abb3ba" fill-rule="evenodd"/>
        <path id="Trazado_1002202" data-name="Trazado 1002202" d="M352.251,224.1a2.153,2.153,0,0,1,1.495-2.046,2.482,2.482,0,0,1,.327-.074,1.918,1.918,0,0,0-.316-.026h-.011a2.146,2.146,0,1,0,0,4.291,2.449,2.449,0,0,0,.327-.023,2.146,2.146,0,0,1-1.788-1.745,2.082,2.082,0,0,1-.034-.378Z" transform="translate(-318.052 -200.404)" fill="#e4ac00" fill-rule="evenodd"/>
        <path id="Trazado_1002203" data-name="Trazado 1002203" d="M353.669,277.851l1.145-14.56a2.069,2.069,0,0,1-.566-.148l-1.177,14.927C353.274,277.99,353.473,277.919,353.669,277.851Z" transform="translate(-319.376 -237.462)" fill="#bec7cf" fill-rule="evenodd"/>
        <path id="Trazado_1002204" data-name="Trazado 1002204" d="M373.7,117.474l1.361-11.553-.577-.185-1.373,11.653a1.914,1.914,0,0,1,.315.026A2.122,2.122,0,0,1,373.7,117.474Z" transform="translate(-337.408 -95.837)" fill="#abb3ba" fill-rule="evenodd"/>
        <path id="Trazado_1002205" data-name="Trazado 1002205" d="M391.649,249l10.712,4.266.321-.5-10.817-4.311a2.106,2.106,0,0,1-.216.543Z" transform="translate(-354.085 -224.252)" fill="#abb3ba" fill-rule="evenodd"/>
      </g>
      <path id="Trazado_1002206" data-name="Trazado 1002206" d="M53.946,29.007a.7.7,0,0,0-.409-.438L43.221,24.46c0-.02,0-.039,0-.059a2.829,2.829,0,0,0-.437-1.513L44,20.962a.7.7,0,0,0,.108-.35l.332-9.35a.7.7,0,0,0-.487-.693l-1.984-.637a.7.7,0,0,0-.912.586l-1.308,11.1a2.846,2.846,0,0,0-1.385.759L36.185,21.7a.7.7,0,0,0-.367-.014l-9.12,2.1a.7.7,0,0,0-.544.651l-.1,2.08a.7.7,0,0,0,.8.728l10.958-1.594a2.868,2.868,0,0,0,1,1.135l-1.1,14.046c-.378.163-.757.345-1.139.547a10.834,10.834,0,0,0-7.793-3.834A10.278,10.278,0,0,0,22.036,39.9l-1.623-20.65a3.31,3.31,0,0,0,.764-.655l2.593.811a.7.7,0,0,0,.367.014l10.97-2.527a.7.7,0,0,0,.544-.65l.122-2.5a.7.7,0,0,0-.8-.729L21.607,14.956a3.307,3.307,0,0,0-1.428-1.426l.117-2.856a.7.7,0,0,0-.081-.358L14.937.372a.7.7,0,0,0-.769-.357L11.721.547a.7.7,0,0,0-.5.963l5.348,12.432A3.291,3.291,0,0,0,15.5,15.674l-2.73.616a.7.7,0,0,0-.324.171L4.2,24.131a.7.7,0,0,0-.146.835L5.2,27.194a.7.7,0,0,0,1.059.231l10.518-8.3q.087.062.177.119L15.273,40.668A12,12,0,0,0,6.01,48.654a2.045,2.045,0,0,0,1.943,2.68H48.54a2.635,2.635,0,0,0,2.622-1.766c.793-2.174-.54-5.523-3.036-7.625a8.969,8.969,0,0,0-5.116-2.106l-.05,0L42.03,27.99l.66.715a.7.7,0,0,0,.31.2l8.947,2.742a.7.7,0,0,0,.8-.292L53.868,29.6a.7.7,0,0,0,.078-.594ZM37.531,24.27,27.5,25.729l.033-.7L35.948,23.1l1.689.528a2.83,2.83,0,0,0-.106.646ZM21.967,16.322l12.362-1.8-.055,1.119L24.008,18l-2.157-.674a3.269,3.269,0,0,0,.12-.875c0-.045,0-.088,0-.132Zm-15.9,9.472-.513-1,7.711-7.179,2.209-.5a3.256,3.256,0,0,0,.366.963Zm33.115-2.2.006-.009a1.443,1.443,0,0,1,1.191-.63h0a1.444,1.444,0,0,1,.563,2.772l-.006,0a1.442,1.442,0,0,1-1.118,0l-.005,0a1.443,1.443,0,0,1-.633-2.134Zm1.01,3.646c.062,0,.124.007.188.007s.125,0,.187-.007l.991,12.6a11.1,11.1,0,0,0-2.392.456ZM12.851,1.738,13.946,1.5l4.939,9.307-.1,2.365-.1,0a3.267,3.267,0,0,0-.866.117Zm3.955,14.716a1.878,1.878,0,0,1,2.426-1.8l.019.006a1.889,1.889,0,0,1,1.23,1.233l.006.022a1.879,1.879,0,1,1-3.68.538Zm1.522,3.263a3.233,3.233,0,0,0,.714,0l1.663,21.159a12.352,12.352,0,0,0-4.011-.389Zm31.515,29.37a1.239,1.239,0,0,1-1.3.843H7.954a.6.6,0,0,1-.518-.264.612.612,0,0,1-.092-.576,10.6,10.6,0,0,1,8.565-7.107h.02a.7.7,0,0,0,.206-.031,10.9,10.9,0,0,1,4.759.441.7.7,0,0,0,.733-.195,9.3,9.3,0,0,1,7.113-3.255,9.584,9.584,0,0,1,7.126,3.766.7.7,0,0,0,.892.165,14.661,14.661,0,0,1,1.812-.886.7.7,0,0,0,.129-.051,9.828,9.828,0,0,1,3.562-.725l.048,0,.056,0h0a7.589,7.589,0,0,1,4.856,1.8C49.435,44.881,50.364,47.661,49.844,49.087Zm-8.1-27.181a2.827,2.827,0,0,0-.583-.241L42.356,11.53l.666.214-.307,8.629Zm10.1,8.239-8.257-2.531-1.155-1.252a2.863,2.863,0,0,0,.4-.541l9.385,3.738ZM46,18.53a.7.7,0,1,1,.972-1.013,9.459,9.459,0,0,1,2.939,6.872.7.7,0,0,1-.7.7h0a.7.7,0,0,1-.7-.7A8.066,8.066,0,0,0,46,18.53ZM18.108,1.778a.7.7,0,0,1,.7-.7h.006A15.4,15.4,0,0,1,32.8,10.349a.7.7,0,0,1-1.288.559A13.992,13.992,0,0,0,18.8,2.486a.7.7,0,0,1-.7-.708ZM46.015,14.214A.7.7,0,0,1,46.984,14,12.272,12.272,0,0,1,52.7,24.4c0,.353-.018.726-.054,1.141a.7.7,0,0,1-.7.641l-.062,0a.7.7,0,0,1-.638-.76c.033-.374.048-.707.048-1.019a10.875,10.875,0,0,0-5.066-9.218.7.7,0,0,1-.216-.969ZM29.426,10.789a.7.7,0,0,1-1.241.656,10.8,10.8,0,0,0-7.69-5.576.7.7,0,0,1,.234-1.384A12.208,12.208,0,0,1,29.426,10.789Zm-18.9-3.33a.7.7,0,1,1,.942,1.04,10.754,10.754,0,0,0-3.524,7.955c0,.335.014.659.042.964a.7.7,0,0,1-.634.763c-.022,0-.044,0-.065,0a.7.7,0,0,1-.7-.637c-.032-.348-.048-.716-.048-1.093a12.161,12.161,0,0,1,3.985-9ZM4.472,20.812a.7.7,0,0,1-.679-.527A15.388,15.388,0,0,1,9.236,4.326.7.7,0,0,1,10.1,5.433a13.985,13.985,0,0,0-4.947,14.5.7.7,0,0,1-.68.877Z"/>
    </g>
  </g>
</svg>
