<svg xmlns="http://www.w3.org/2000/svg" width="93" height="69" viewBox="0 0 93 69">
  <g id="Grupo_1116424" data-name="Grupo 1116424" transform="translate(-820.051 -4099.853)">
    <rect id="Rect치ngulo_404438" data-name="Rect치ngulo 404438" width="93" height="69" rx="12" transform="translate(820.051 4099.853)" fill="#818da4"/>
    <g id="Grupo_1114024" data-name="Grupo 1114024" transform="translate(0 144.853)">
      <rect id="Rect치ngulo_404781" data-name="Rect치ngulo 404781" width="63" height="63" transform="translate(834.051 3958)" fill="none"/>
      <g id="Grupo_1114023" data-name="Grupo 1114023" transform="translate(836.051 3960)">
        <path id="Trazado_999786" data-name="Trazado 999786" d="M15.355,32v5.613H6V32h9.355Z" transform="translate(-0.323 -2)" fill="#fcd770"/>
        <path id="Trazado_999787" data-name="Trazado 999787" d="M17.1,54v7.484H4V54H17.1Z" transform="translate(-0.194 -3.419)" fill="#fcd770"/>
        <path id="Trazado_999788" data-name="Trazado 999788" d="M12.742,23.81v7.662H9V24.446Z" transform="translate(-0.516 -1.472)" fill="#aab2bd"/>
        <path id="Trazado_999789" data-name="Trazado 999789" d="M8,38h5.613V52.968H8Z" transform="translate(-0.452 -2.387)" fill="#aab2bd"/>
        <path id="Trazado_999790" data-name="Trazado 999790" d="M41.515,10.32l4.023,6.96L34.424,19.17A6.545,6.545,0,0,0,24.33,20.891h-.009L12.29,22.94l-3.742.636-2.516.43a4.04,4.04,0,0,1-.58.047A3.449,3.449,0,0,1,2,20.6V19.516a3.448,3.448,0,0,1,2.909-3.405Z" transform="translate(-0.065 -0.601)" fill="#ccd1d9"/>
        <path id="Trazado_999791" data-name="Trazado 999791" d="M59.449,12.824a4.794,4.794,0,0,1-.271,6.483A4.7,4.7,0,0,1,55.9,20.7a.456.456,0,0,1-.112.009h-5.5l-2.3-3.966-4.023-6.96L40,2.935V2h8.064a4.779,4.779,0,0,1,3.658,1.693Z" transform="translate(-2.516 -0.065)" fill="#aab2bd"/>
        <path id="Trazado_999792" data-name="Trazado 999792" d="M56.742,22V33.225H53V22h3.63a.456.456,0,0,0,.112-.009Z" transform="translate(-3.355 -1.354)" fill="#aab2bd"/>
        <path id="Trazado_999793" data-name="Trazado 999793" d="M57,15.5a1.012,1.012,0,0,1,.253.683A1.046,1.046,0,0,1,56.2,17.226h-3.34L46.36,6h2.114a1.046,1.046,0,0,1,.8.374Z" transform="translate(-2.926 -0.323)" fill="#e6e9ed"/>
        <path id="Trazado_999794" data-name="Trazado 999794" d="M34.834,45l.589,3.742H28.07L28.659,45Z" transform="translate(-1.746 -2.839)" fill="#b27946"/>
        <path id="Trazado_999795" data-name="Trazado 999795" d="M41.434,59.848v.084H37.683L35.756,47.771l-.589-3.742L33.23,31.765a6.5,6.5,0,0,0,3.48-1.815Z" transform="translate(-2.079 -1.868)" fill="#cf9e76"/>
        <path id="Trazado_999796" data-name="Trazado 999796" d="M30.2,31.765,28.268,44.029l-.589,3.742h-.009L25.751,59.932H22v-.094L26.724,29.95a6.5,6.5,0,0,0,3.48,1.815Z" transform="translate(-1.355 -1.868)" fill="#cf9e76"/>
        <path id="Trazado_999797" data-name="Trazado 999797" d="M32.7,30.994a6.485,6.485,0,0,1-2.3,0,6.5,6.5,0,0,1-3.48-1.815V29.17A6.561,6.561,0,0,1,25.8,21.386h.009A6.546,6.546,0,1,1,36.179,29.17v.009a6.5,6.5,0,0,1-3.48,1.815Z" transform="translate(-1.548 -1.097)" fill="#fcd770"/>
        <ellipse id="Elipse_12023" data-name="Elipse 12023" cx="3" cy="2.5" rx="3" ry="2.5" transform="translate(27 21)" fill="#ffeaa7"/>
        <path id="Trazado_999798" data-name="Trazado 999798" d="M60.077,46.691a6.518,6.518,0,0,1-5.5,10.019H54.52a6.518,6.518,0,0,1-5.5-10.019L54.548,38Z" transform="translate(-3.032 -2.387)" fill="#fcd770"/>
        <path id="Trazado_999799" data-name="Trazado 999799" d="M56.71,46.463l-1.579,1,1.45,2.278a1.838,1.838,0,0,1,.288.99,1.858,1.858,0,0,1-1.9,1.843l.056,1.871a3.714,3.714,0,0,0,3.133-5.708Z" transform="translate(-3.482 -2.933)"/>
        <path id="Trazado_999800" data-name="Trazado 999800" d="M54.484,36.137l-6.318,9.928a7.484,7.484,0,1,0,12.637,0Zm-.028,19.517a5.585,5.585,0,0,1-4.711-8.584l4.739-7.447,4.739,7.448a5.584,5.584,0,0,1-4.767,8.583Z" transform="translate(-2.968 -2.267)"/>
        <path id="Trazado_999801" data-name="Trazado 999801" d="M35.627,28.369a7.445,7.445,0,0,0,.533-9.157l8.833-1.5,2.241,3.872H48.71V32.806h5.613V21.48a5.725,5.725,0,0,0,3.322-9.328l-7.72-9.124A5.72,5.72,0,0,0,45.551,1h-9V3.123L39.956,9.01,4.7,14.583A4.367,4.367,0,0,0,1,18.915V20a4.388,4.388,0,0,0,5.122,4.324l1.427-.243v4.982H4.742v7.484H6.613v13.1H2.871v7.484H1V59H59V57.129H40.143ZM17.839,57.129V49.645H14.1v-13.1h1.871V29.065H13.161V23.127l9.625-1.638a7.392,7.392,0,0,0,1.587,6.88l-4.539,28.76ZM30,29.065a5.613,5.613,0,1,1,5.613-5.613A5.619,5.619,0,0,1,30,29.065ZM27.709,43.1h4.582l.3,1.871H27.414Zm.3-1.871,1.627-10.309c.123.007.244.019.369.019s.246-.012.369-.019L32,41.226ZM26.042,29.791a7.448,7.448,0,0,0,1.745.809L23.6,57.129H21.728Zm1.077,17.047h5.764l1.624,10.29H25.495ZM32.213,30.6a7.447,7.447,0,0,0,1.745-.809l4.314,27.338H36.4Zm18.367.335V21.581h1.871v9.355ZM45.551,2.871A3.849,3.849,0,0,1,48.5,4.237l7.721,9.124a3.857,3.857,0,0,1-2.944,6.349H48.314L38.564,2.871ZM5.808,22.481a2.554,2.554,0,0,1-.423.036A2.518,2.518,0,0,1,2.871,20V18.915a2.5,2.5,0,0,1,2.123-2.484l35.967-5.687,3.032,5.237L34.62,17.577A7.454,7.454,0,0,0,23.7,19.436Zm3.611,1.283,1.871-.318v5.619H9.419ZM6.613,30.935H14.1v3.742H6.613Zm1.871,5.613h3.742v13.1H8.484ZM4.742,51.516H15.968v5.613H4.742Z" transform="translate(0 0)"/>
        <path id="Trazado_999802" data-name="Trazado 999802" d="M31.742,21a3.742,3.742,0,1,0,3.742,3.742A3.746,3.746,0,0,0,31.742,21Zm0,5.613a1.871,1.871,0,1,1,1.871-1.871A1.873,1.873,0,0,1,31.742,26.613Z" transform="translate(-1.742 -1.29)"/>
        <path id="Trazado_999803" data-name="Trazado 999803" d="M56.086,18.1a1.986,1.986,0,0,0,1.515-3.27L49.881,5.7A1.985,1.985,0,0,0,48.366,5H44.624l7.582,13.1ZM48.366,6.871a.116.116,0,0,1,.088.04l7.748,9.2a.117.117,0,0,1-.115.116h-2.8L47.869,6.871Z" transform="translate(-2.814 -0.258)"/>
      </g>
    </g>
  </g>
</svg>
