<svg xmlns="http://www.w3.org/2000/svg" width="93" height="69" viewBox="0 0 93 69">
  <g id="Grupo_1116425" data-name="Grupo 1116425" transform="translate(-820.051 -4195.853)">
    <rect id="Rect치ngulo_404456" data-name="Rect치ngulo 404456" width="93" height="69" rx="12" transform="translate(820.051 4195.853)" fill="#818da4"/>
    <g id="Grupo_1114029" data-name="Grupo 1114029" transform="translate(0 144.853)">
      <rect id="Rect치ngulo_404782" data-name="Rect치ngulo 404782" width="63" height="63" transform="translate(835.051 4054)" fill="none"/>
      <g id="Grupo_1114028" data-name="Grupo 1114028" transform="translate(831.047 4059)">
        <g id="Grupo_1114026" data-name="Grupo 1114026" transform="translate(10.781 0.777)">
          <path id="Trazado_999804" data-name="Trazado 999804" d="M40.848,93.95c-.01-1.771-.26-2.174-1.359-3.758l-1.162-3.106L34.444,81.2l-1.131-.68c-.641-.971-.912-.759-1.553.212l-5.584,7.955a10.223,10.223,0,0,0-1.545,5.385c-.121,4.672,3.056,7.712,7.738,7.712s8.6-3.165,8.478-7.837Z" transform="translate(-23.889 -72.386)" fill="#e1ebf0"/>
          <path id="Trazado_999805" data-name="Trazado 999805" d="M318.251,27.634a11.587,11.587,0,0,0-1.857-6.437l-6.7-10.1c-.77-1.161-2.141-.319-2.912.842l-6.458,9.529c-1.218,1.878-2.451,4-2.447,6.169-.145,5.584,3.761,9.323,9.388,9.324,3.567,0,7.565-1.031,9.391-3.786A9.529,9.529,0,0,0,318.251,27.634Z" transform="translate(-268.804 -10.223)" fill="#e1ebf0"/>
          <path id="Trazado_999806" data-name="Trazado 999806" d="M316.659,30.447a10.319,10.319,0,0,1-8.589,4.576,10.061,10.061,0,0,1-10.189-10.114,12.165,12.165,0,0,1,1.857-6.437l6.7-10.1a1.956,1.956,0,0,1,3.223-.047l-3.914,5.9a12.165,12.165,0,0,0-1.857,6.437,10.061,10.061,0,0,0,10.189,10.114,10.326,10.326,0,0,0,2.576-.326Z" transform="translate(-268.812 -7.498)" fill="#d2e4e7"/>
          <path id="Trazado_999807" data-name="Trazado 999807" d="M34.461,89.568a9.735,9.735,0,0,0-1.545-5.386L31.941,82.7l-5.62,8.535q-.493.767-.922,1.594a1.764,1.764,0,0,1-3.216-.186,7.962,7.962,0,0,1-.53-3.079A10.219,10.219,0,0,1,23.2,84.182l4.86-7.362-.719-1.09a1.623,1.623,0,0,0-2.709,0l-5.578,8.451a10.219,10.219,0,0,0-1.545,5.386,8.312,8.312,0,0,0,6.063,8.115h0a8.611,8.611,0,0,0,4.488.092,8.326,8.326,0,0,0,6.4-8.207Z" transform="translate(-17.504 -68.004)" fill="#d2e4e7"/>
          <path id="Trazado_999808" data-name="Trazado 999808" d="M140.213,107.643a18.734,18.734,0,0,0-2.963-10.348l-10.693-16.24a3.143,3.143,0,0,0-.525-.611c-1.364-1.226-2.782-.292-3.857,1.341L111.711,97.63a17.846,17.846,0,0,0-3.017,9.78c-.231,8.976,6.289,16.489,15.266,16.491A16.112,16.112,0,0,0,140.213,107.643Z" transform="translate(-99.235 -72.378)" fill="#f1f6f7"/>
          <path id="Trazado_999809" data-name="Trazado 999809" d="M117.5,121.807a16.518,16.518,0,0,1-2.073.131,16.112,16.112,0,0,1-16.253-16.258,19.684,19.684,0,0,1,2.962-10.348L112.83,79.09a3.115,3.115,0,0,1,4.671-.612,3.172,3.172,0,0,0-.525.612L106.284,95.331a19.684,19.684,0,0,0-2.962,10.348A16.056,16.056,0,0,0,117.5,121.807Z" transform="translate(-90.704 -70.414)" fill="#e1ebf0"/>
          <path id="Trazado_999810" data-name="Trazado 999810" d="M151.282,250.788c-6.945,0-12.062-4.781-12.062-11.727,0-3.779,1.184-7.141,3.828-9.451a12.59,12.59,0,0,1,16.746,18.8C157.556,250.449,154.539,250.788,151.282,250.788Z" transform="translate(-126.602 -203.796)" fill="#b3e59f"/>
          <path id="Trazado_999811" data-name="Trazado 999811" d="M156.57,267.565A12.592,12.592,0,1,1,139.8,249.01a12.591,12.591,0,0,0,16.772,18.555Z" transform="translate(-122.371 -223.973)" fill="#95d6a4"/>
          <path id="Trazado_999812" data-name="Trazado 999812" d="M217.909,278.06l-3.691,7.775-1.356,1.081a.154.154,0,0,1-.292-.065l-.392-3.688a.764.764,0,0,0-.767-.76h-3.019l-1.08-.445a.152.152,0,0,1-.139-.216l4.392-9.388a.154.154,0,0,1,.293.064l.32,2.04v2.624a.763.763,0,0,0,.767.76h4.826A.152.152,0,0,1,217.909,278.06Z" transform="translate(-187.497 -244.818)" fill="#f5de46"/>
          <g id="Grupo_1114025" data-name="Grupo 1114025" transform="translate(19.023 25.814)">
            <path id="Trazado_999813" data-name="Trazado 999813" d="M206.66,256.654v3.674l-3.785,7.945h-1.719a.152.152,0,0,1-.139-.216l5.35-11.468A.154.154,0,0,1,206.66,256.654Z" transform="translate(-201.003 -256.502)" fill="#f3d332"/>
            <path id="Trazado_999814" data-name="Trazado 999814" d="M251.02,370.811v2.6l-1.781,3.752a.153.153,0,0,1-.291-.065v-6.286a.764.764,0,0,0-.766-.761h2.073A.764.764,0,0,1,251.02,370.811Z" transform="translate(-243.289 -358.279)" fill="#f3d332"/>
          </g>
        </g>
        <g id="Grupo_1114027" data-name="Grupo 1114027" transform="translate(10.004 0)">
          <path id="Trazado_999815" data-name="Trazado 999815" d="M61.005,18.176a12.425,12.425,0,0,0-1.992-6.862l-6.7-10.095a2.735,2.735,0,0,0-4.553,0l-7.1,10.71-1.911-2.9a3.888,3.888,0,0,0-6.494,0l-5.175,7.859-2.334-3.529a.778.778,0,1,0-1.3.858l2.7,4.084-4.593,6.975a19.217,19.217,0,0,0-2.175,4.749l-.124,0a7.857,7.857,0,0,1-5.6-2.358,7.288,7.288,0,0,1-2.1-5.306c0-.007,0-.014,0-.021a9.481,9.481,0,0,1,1.417-4.956l5.578-8.452a.847.847,0,0,1,1.412,0l1.769,2.681a.778.778,0,0,0,1.3-.857L21.266,8.075a2.4,2.4,0,0,0-4.008,0l-5.582,8.459a10.947,10.947,0,0,0-1.669,5.8,8.831,8.831,0,0,0,2.546,6.42,9.423,9.423,0,0,0,6.423,2.822,20.352,20.352,0,0,0-.5,4.459,16.275,16.275,0,0,0,4.692,11.842,17.234,17.234,0,0,0,24.679,0,16.276,16.276,0,0,0,4.692-11.845A21.664,21.664,0,0,0,51.342,29a10.8,10.8,0,0,0,9.663-10.827ZM50.723,27.5a15.493,15.493,0,0,0-1.281-2.24L46.683,21.07a.778.778,0,1,0-1.3.855l2.763,4.2.01.015a17.97,17.97,0,0,1,2.824,9.91c0,.005,0,.011,0,.016A14.733,14.733,0,0,1,46.732,46.79a15.679,15.679,0,0,1-22.451,0A14.732,14.732,0,0,1,20.03,36.063q0-.011,0-.021a19,19,0,0,1,2.835-9.919L33.558,9.882a2.333,2.333,0,0,1,3.9,0l6.217,9.442a.778.778,0,1,0,1.3-.855l-3.376-5.127L49.059,2.078a1.18,1.18,0,0,1,1.961,0l6.7,10.1.01.015a10.815,10.815,0,0,1,1.717,6q0,.008,0,.016A9.254,9.254,0,0,1,50.723,27.5Z" transform="translate(-10.004 0)"/>
          <path id="Trazado_999816" data-name="Trazado 999816" d="M140.373,219a13.367,13.367,0,0,0-10.014,22.229.778.778,0,0,0,1.164-1.031,11.815,11.815,0,1,1,2.206,1.944.778.778,0,1,0-.877,1.285A13.372,13.372,0,1,0,140.373,219Z" transform="translate(-114.871 -196.297)"/>
          <path id="Trazado_999817" data-name="Trazado 999817" d="M203.8,261.128a.777.777,0,0,0,1.036-.369l1.53-3.223a.93.93,0,0,0-.841-1.328h-4.815v-6.281a.931.931,0,0,0-1.775-.392L193.584,261a.93.93,0,0,0,.844,1.323h4.727v6.27a.925.925,0,0,0,.726.907.951.951,0,0,0,.208.023.925.925,0,0,0,.838-.532l2.575-5.423a.778.778,0,0,0-1.4-.667l-1.387,2.921v-3.517a1.543,1.543,0,0,0-1.544-1.537h-3.756l3.745-8.028v3.484a1.543,1.543,0,0,0,1.544,1.538h3.838l-1.106,2.329A.777.777,0,0,0,203.8,261.128Z" transform="translate(-174.474 -223.184)"/>
        </g>
      </g>
    </g>
  </g>
</svg>
