<svg xmlns="http://www.w3.org/2000/svg" xmlns:xlink="http://www.w3.org/1999/xlink" width="108.914" height="108.914" viewBox="0 0 108.914 108.914">
  <defs>
    <filter id="Trazado_874925" x="0" y="0" width="108.914" height="108.914" filterUnits="userSpaceOnUse">
      <feOffset dy="3" input="SourceAlpha"/>
      <feGaussianBlur stdDeviation="3" result="blur"/>
      <feFlood flood-opacity="0.161"/>
      <feComposite operator="in" in2="blur"/>
      <feComposite in="SourceGraphic"/>
    </filter>
  </defs>
  <g id="Grupo_1114072" data-name="Grupo 1114072" transform="translate(-792.376 -6100.771)">
    <g transform="matrix(1, 0, 0, 1, 792.38, 6100.77)" filter="url(#Trazado_874925)">
      <g id="Trazado_874925-2" data-name="Trazado 874925" transform="translate(9 6)" fill="#bacbec" opacity="0.859">
        <path d="M 45.45676803588867 89.41407012939453 C 39.52198028564453 89.41407012939453 33.76551818847656 88.25206756591797 28.34726715087891 85.96034240722656 C 23.11311721801758 83.74648284912109 18.41204261779785 80.57682800292969 14.37464332580566 76.5394287109375 C 10.33724308013916 72.50202941894531 7.167593002319336 67.80095672607422 4.953730583190918 62.56679534912109 C 2.662005424499512 57.14855575561523 1.500005483627319 51.39208221435547 1.500005483627319 45.45729446411133 C 1.500005483627319 39.52198028564453 2.662005424499512 33.76551818847656 4.953730583190918 28.34726905822754 C 7.167593002319336 23.11310577392578 10.33724308013916 18.41203117370605 14.37464332580566 14.37464332580566 C 18.41204261779785 10.33724403381348 23.11311721801758 7.167593955993652 28.34726715087891 4.953731060028076 C 33.76551818847656 2.662006139755249 39.52198028564453 1.500006198883057 45.45676803588867 1.500006198883057 C 51.39155578613281 1.500006198883057 57.14802932739258 2.662006139755249 62.56626892089844 4.953731060028076 C 67.80043029785156 7.167593955993652 72.50150299072266 10.33724403381348 76.53890228271484 14.37464332580566 C 80.57630920410156 18.41203117370605 83.74595642089844 23.11310577392578 85.95981597900391 28.34726905822754 C 88.25154113769531 33.76551818847656 89.41354370117188 39.52198028564453 89.41354370117188 45.45676803588867 C 89.41354370117188 51.39208221435547 88.25154113769531 57.14855575561523 85.95981597900391 62.56679534912109 C 83.74595642089844 67.80095672607422 80.57630920410156 72.50202941894531 76.53890228271484 76.5394287109375 C 72.50150299072266 80.57682800292969 67.80043029785156 83.74648284912109 62.56626892089844 85.96034240722656 C 57.14802932739258 88.25206756591797 51.39155578613281 89.41407012939453 45.45676803588867 89.41407012939453 Z" stroke="none"/>
        <path d="M 45.45676803588867 3 C 39.72381210327148 3 34.1639404296875 4.12213134765625 28.93159484863281 6.335227966308594 C 23.87622833251953 8.473472595214844 19.33542633056641 11.53517150878906 15.43529510498047 15.435302734375 C 11.53517150878906 19.33543395996094 8.473464965820312 23.87622833251953 6.335227966308594 28.93160247802734 C 4.122123718261719 34.16394424438477 3 39.72381591796875 3 45.4572868347168 C 3 51.19024658203125 4.122123718261719 56.75011825561523 6.335227966308594 61.98246002197266 C 8.473464965820312 67.03782653808594 11.53517150878906 71.57862854003906 15.43529510498047 75.478759765625 C 19.33542633056641 79.37889099121094 23.87622833251953 82.44058990478516 28.93159484863281 84.57883453369141 C 34.1639404296875 86.79193115234375 39.72381210327148 87.9140625 45.45676803588867 87.9140625 C 51.18972396850586 87.9140625 56.74959564208984 86.79193115234375 61.98194122314453 84.57883453369141 C 67.03730773925781 82.44058990478516 71.57810974121094 79.37889099121094 75.47824096679688 75.478759765625 C 79.37837219238281 71.57862854003906 82.44007110595703 67.03782653808594 84.57830810546875 61.98246002197266 C 86.79141235351562 56.75011825561523 87.91353607177734 51.19024658203125 87.91353607177734 45.4567756652832 C 87.91353607177734 39.72381591796875 86.79141235351562 34.16394424438477 84.57830810546875 28.93160247802734 C 82.44007110595703 23.87622833251953 79.37837219238281 19.33543395996094 75.47824096679688 15.435302734375 C 71.57810974121094 11.53517150878906 67.03730773925781 8.473472595214844 61.98194122314453 6.335227966308594 C 56.74959564208984 4.12213134765625 51.18972396850586 3 45.45676803588867 3 M 45.45676803588867 0 C 70.56185150146484 0 90.91353607177734 20.35169219970703 90.91353607177734 45.4567756652832 L 90.91353607177734 45.4572868347168 C 90.91353607177734 70.5623779296875 70.56185150146484 90.9140625 45.45676803588867 90.9140625 C 20.3516845703125 90.9140625 0 70.5623779296875 0 45.4572868347168 L 0 45.4567756652832 C 0 20.35169219970703 20.3516845703125 0 45.45676803588867 0 Z" stroke="none" fill="#fff"/>
      </g>
    </g>
    <g id="Grupo_1114071" data-name="Grupo 1114071" transform="translate(819.114 6120.651)">
      <g id="Grupo_1114070" data-name="Grupo 1114070" transform="translate(0.948 14.316)">
        <path id="Trazado_999865" data-name="Trazado 999865" d="M169.879,199.283h26.306L190.519,173a2.8,2.8,0,0,1,.106-1.6l1.776-4.97a4.8,4.8,0,0,0,.28-1.618v-.827a.753.753,0,0,0-.833-.83H173.383v2.491l2.336,6.542Z" transform="translate(-152.599 -155.85)" fill="#e0dbee" fill-rule="evenodd"/>
        <path id="Trazado_999866" data-name="Trazado 999866" d="M343.067,199.282h2.6L340,172.994a2.791,2.791,0,0,1,.106-1.6l1.776-4.973a4.8,4.8,0,0,0,.28-1.618v-.827a.753.753,0,0,0-.833-.83h-1.77v1.658a4.794,4.794,0,0,1-.28,1.618l-1.776,4.973a2.793,2.793,0,0,0-.106,1.6Z" transform="translate(-302.084 -155.849)" fill="#d3cee5" fill-rule="evenodd"/>
        <path id="Trazado_999867" data-name="Trazado 999867" d="M9.514,138.546l30.789,0-6.847-31.762a2.906,2.906,0,0,1,.106-1.6L35.811,98.9a4.809,4.809,0,0,0,.28-1.621V95.95a.835.835,0,0,0-.833-.834H13.727a.835.835,0,0,0-.833.834v1.326a4.821,4.821,0,0,0,.28,1.621l2.248,6.293a2.834,2.834,0,0,1,.106,1.594l-6.67,30.95c-.119.545.091.812.657.812Z" transform="translate(-8.825 -95.116)" fill="#faf8f9" fill-rule="evenodd"/>
        <path id="Trazado_999868" data-name="Trazado 999868" d="M220.415,138.546l2.6,0-6.846-31.762a2.906,2.906,0,0,1,.106-1.6l2.248-6.293a4.81,4.81,0,0,0,.28-1.621V95.95a.835.835,0,0,0-.833-.834H216.2v2.16a4.811,4.811,0,0,1-.28,1.621l-2.248,6.293a2.849,2.849,0,0,0-.106,1.6Z" transform="translate(-191.541 -95.116)" fill="#ede9fb" fill-rule="evenodd"/>
        <path id="Trazado_999869" data-name="Trazado 999869" d="M243.41,344.728a15.69,15.69,0,1,0-31.379,0l15.691,1.32Z" transform="translate(-190.228 -303.938)" fill="#fed1a3" fill-rule="evenodd"/>
        <path id="Trazado_999870" data-name="Trazado 999870" d="M226.42,329.091a15.648,15.648,0,0,1,13.656,10.889,1.666,1.666,0,0,1-1.7,2.144H212.247a15.6,15.6,0,0,0-.216,2.6H243.41a15.942,15.942,0,0,0-.213-2.6,15.7,15.7,0,0,0-15.475-13.088C227.284,329.036,226.849,329.054,226.42,329.091Z" transform="translate(-190.228 -303.937)" fill="#ffbc85" fill-rule="evenodd"/>
        <path id="Trazado_999871" data-name="Trazado 999871" d="M330.475,386.949h4.48a.835.835,0,0,1,.833.833v9.164h-6.144v-9.164A.834.834,0,0,1,330.475,386.949Z" transform="translate(-295.223 -355.637)" fill="#d57080" fill-rule="evenodd"/>
        <path id="Trazado_999872" data-name="Trazado 999872" d="M212.865,477.922h29.712a.837.837,0,0,0,.834-.833v-1.81H212.032v1.81A.836.836,0,0,0,212.865,477.922Z" transform="translate(-190.229 -434.489)" fill="#0c5e7f" fill-rule="evenodd"/>
        <path id="Trazado_999873" data-name="Trazado 999873" d="M101.993,251a6.354,6.354,0,1,0-6.354-6.354A6.368,6.368,0,0,0,101.993,251Z" transform="translate(-86.324 -222.934)" fill="#ffe07d" fill-rule="evenodd"/>
        <path id="Trazado_999874" data-name="Trazado 999874" d="M111.237,245.3a6.353,6.353,0,1,1-8.6,8.6,6.353,6.353,0,0,0,8.6-8.6Z" transform="translate(-92.573 -229.185)" fill="#ffd064" fill-rule="evenodd"/>
        <path id="Trazado_999875" data-name="Trazado 999875" d="M9.25,475.279l-.392,1.828c-.119.544.091.812.657.812H31.422a.835.835,0,0,1-.794-.83v-1.81Z" transform="translate(-8.825 -434.489)" fill="#ede9fb" fill-rule="evenodd"/>
      </g>
      <path id="Trazado_999876" data-name="Trazado 999876" d="M28.241,42.142,26.866,35.77a.8.8,0,1,1,1.572-.332l1.229,5.7a16.421,16.421,0,0,1,8.775-2.525c.386,0,.772.012,1.156.04l-1.691-7.838a.785.785,0,0,1,.03-.435l2.287-6.412V22.418H27.243l-1,2.81,1.433,6.646a.8.8,0,0,1-1.572.335l-1.481-6.871a.785.785,0,0,1,.03-.435q1.378-3.869,2.759-7.732V15.118H5.822v2.053L8.584,24.9a.827.827,0,0,1,.018.477L1.8,56.942H21.948V55.105a16.456,16.456,0,0,1,4.83-11.664,16.982,16.982,0,0,1,1.463-1.3Zm3.79-23.182a.8.8,0,1,1-1.3-.943,9.64,9.64,0,0,1,4.66-3.078,21.214,21.214,0,0,1,6.934-1.1h9.59a.806.806,0,0,1,0,1.612h-9.59a19.633,19.633,0,0,0-6.405,1,8.086,8.086,0,0,0-3.887,2.506ZM18.326,12.293a.8.8,0,0,1-1.3-.943c1.469-2.029,4.118-3.75,7.512-4.942A34.784,34.784,0,0,1,35.924,4.6H51.913a.8.8,0,1,1,0,1.609H35.924A33.244,33.244,0,0,0,25.063,7.922C21.979,9.005,19.6,10.529,18.326,12.293ZM16.972,32.58a.8.8,0,1,1,1.162,1.107l-1.375,1.448,1.4,1.046a.8.8,0,0,1,.067,1.232l-1.965,2.068A.8.8,0,1,1,15.1,38.374l1.375-1.448-1.4-1.043a.807.807,0,0,1-.1-1.2Zm-.356-3.708a7.155,7.155,0,1,1-5.064,2.1A7.138,7.138,0,0,1,16.617,28.872Zm3.923,3.236a5.551,5.551,0,1,0,1.624,3.924A5.531,5.531,0,0,0,20.54,32.108ZM35.371,44.822h6.144a.807.807,0,0,1,.806.806V54.3H53.306a14.787,14.787,0,0,0-3.187-8.431.8.8,0,0,1,1.259-.991,16.428,16.428,0,0,1,3.558,10.229v2.643a.8.8,0,0,1-.806.8H.8a.8.8,0,0,1-.785-.97L6.99,25.229,4.268,17.607a.8.8,0,0,1-.055-.3V14.315a.8.8,0,0,1,.8-.806h23.2a.806.806,0,0,1,.806.806v2.993a.919.919,0,0,1-.049.271l-1.153,3.23H41.031a.8.8,0,0,1,.8.806v2.491a.856.856,0,0,1-.046.271L39.528,30.7l1.758,8.154a16.217,16.217,0,0,1,2.573.666,16.455,16.455,0,0,1,4.812,2.646.8.8,0,0,1-.992,1.259,14.886,14.886,0,0,0-24.1,10.87H34.565V45.628a.8.8,0,0,1,.806-.806Zm5.338,1.609H36.173V54.3h4.535ZM23.557,56.942h29.77V55.911H23.557Z" transform="translate(0 0)"/>
    </g>
  </g>
</svg>
