<svg xmlns="http://www.w3.org/2000/svg" xmlns:xlink="http://www.w3.org/1999/xlink" width="108.914" height="108.914" viewBox="0 0 108.914 108.914">
  <defs>
    <filter id="Trazado_874925" x="0" y="0" width="108.914" height="108.914" filterUnits="userSpaceOnUse">
      <feOffset dy="3" input="SourceAlpha"/>
      <feGaussianBlur stdDeviation="3" result="blur"/>
      <feFlood flood-opacity="0.161"/>
      <feComposite operator="in" in2="blur"/>
      <feComposite in="SourceGraphic"/>
    </filter>
  </defs>
  <g id="Grupo_1114083" data-name="Grupo 1114083" transform="translate(-1107.051 -6101)">
    <g transform="matrix(1, 0, 0, 1, 1107.05, 6101)" filter="url(#Trazado_874925)">
      <g id="Trazado_874925-2" data-name="Trazado 874925" transform="translate(9 6)" fill="#bacbec" opacity="0.859">
        <path d="M 45.45676803588867 89.41407012939453 C 39.52198028564453 89.41407012939453 33.76551818847656 88.25206756591797 28.34726715087891 85.96034240722656 C 23.11311721801758 83.74648284912109 18.41204261779785 80.57682800292969 14.37464332580566 76.5394287109375 C 10.33724308013916 72.50202941894531 7.167593002319336 67.80095672607422 4.953730583190918 62.56679534912109 C 2.662005424499512 57.14855575561523 1.500005483627319 51.39208221435547 1.500005483627319 45.45729446411133 C 1.500005483627319 39.52198028564453 2.662005424499512 33.76551818847656 4.953730583190918 28.34726905822754 C 7.167593002319336 23.11310577392578 10.33724308013916 18.41203117370605 14.37464332580566 14.37464332580566 C 18.41204261779785 10.33724403381348 23.11311721801758 7.167593955993652 28.34726715087891 4.953731060028076 C 33.76551818847656 2.662006139755249 39.52198028564453 1.500006198883057 45.45676803588867 1.500006198883057 C 51.39155578613281 1.500006198883057 57.14802932739258 2.662006139755249 62.56626892089844 4.953731060028076 C 67.80043029785156 7.167593955993652 72.50150299072266 10.33724403381348 76.53890228271484 14.37464332580566 C 80.57630920410156 18.41203117370605 83.74595642089844 23.11310577392578 85.95981597900391 28.34726905822754 C 88.25154113769531 33.76551818847656 89.41354370117188 39.52198028564453 89.41354370117188 45.45676803588867 C 89.41354370117188 51.39208221435547 88.25154113769531 57.14855575561523 85.95981597900391 62.56679534912109 C 83.74595642089844 67.80095672607422 80.57630920410156 72.50202941894531 76.53890228271484 76.5394287109375 C 72.50150299072266 80.57682800292969 67.80043029785156 83.74648284912109 62.56626892089844 85.96034240722656 C 57.14802932739258 88.25206756591797 51.39155578613281 89.41407012939453 45.45676803588867 89.41407012939453 Z" stroke="none"/>
        <path d="M 45.45676803588867 3 C 39.72381210327148 3 34.1639404296875 4.12213134765625 28.93159484863281 6.335227966308594 C 23.87622833251953 8.473472595214844 19.33542633056641 11.53517150878906 15.43529510498047 15.435302734375 C 11.53517150878906 19.33543395996094 8.473464965820312 23.87622833251953 6.335227966308594 28.93160247802734 C 4.122123718261719 34.16394424438477 3 39.72381591796875 3 45.4572868347168 C 3 51.19024658203125 4.122123718261719 56.75011825561523 6.335227966308594 61.98246002197266 C 8.473464965820312 67.03782653808594 11.53517150878906 71.57862854003906 15.43529510498047 75.478759765625 C 19.33542633056641 79.37889099121094 23.87622833251953 82.44058990478516 28.93159484863281 84.57883453369141 C 34.1639404296875 86.79193115234375 39.72381210327148 87.9140625 45.45676803588867 87.9140625 C 51.18972396850586 87.9140625 56.74959564208984 86.79193115234375 61.98194122314453 84.57883453369141 C 67.03730773925781 82.44058990478516 71.57810974121094 79.37889099121094 75.47824096679688 75.478759765625 C 79.37837219238281 71.57862854003906 82.44007110595703 67.03782653808594 84.57830810546875 61.98246002197266 C 86.79141235351562 56.75011825561523 87.91353607177734 51.19024658203125 87.91353607177734 45.4567756652832 C 87.91353607177734 39.72381591796875 86.79141235351562 34.16394424438477 84.57830810546875 28.93160247802734 C 82.44007110595703 23.87622833251953 79.37837219238281 19.33543395996094 75.47824096679688 15.435302734375 C 71.57810974121094 11.53517150878906 67.03730773925781 8.473472595214844 61.98194122314453 6.335227966308594 C 56.74959564208984 4.12213134765625 51.18972396850586 3 45.45676803588867 3 M 45.45676803588867 0 C 70.56185150146484 0 90.91353607177734 20.35169219970703 90.91353607177734 45.4567756652832 L 90.91353607177734 45.4572868347168 C 90.91353607177734 70.5623779296875 70.56185150146484 90.9140625 45.45676803588867 90.9140625 C 20.3516845703125 90.9140625 0 70.5623779296875 0 45.4572868347168 L 0 45.4567756652832 C 0 20.35169219970703 20.3516845703125 0 45.45676803588867 0 Z" stroke="none" fill="#fff"/>
      </g>
    </g>
    <g id="Filled_Outline" transform="translate(1117.051 6107.1)">
      <g id="Grupo_1114073" data-name="Grupo 1114073" transform="translate(53.983 41.234)">
        <path id="Trazado_999877" data-name="Trazado 999877" d="M331.409,256.14A3.419,3.419,0,0,1,328,252.731v-4.383a.974.974,0,1,1,1.948,0v4.383a1.461,1.461,0,1,0,2.922,0V229.357a5.357,5.357,0,1,1,10.713,0v1.461a.974.974,0,1,1-1.948,0v-1.461a3.409,3.409,0,1,0-6.817,0v23.374A3.419,3.419,0,0,1,331.409,256.14Z" transform="translate(-328 -224)" fill="#5c697a"/>
      </g>
      <path id="Trazado_999878" data-name="Trazado 999878" d="M31.791,223.374V200H24v27.27h7.791Z" transform="translate(-7.026 -161.688)" fill="#a5b25e"/>
      <path id="Trazado_999879" data-name="Trazado 999879" d="M72,344l1.948,5.844h7.791L79.791,344Z" transform="translate(-49.183 -288.157)" fill="#90a3bf"/>
      <path id="Trazado_999880" data-name="Trazado 999880" d="M31.791,200H24l1.948,5.844h7.791Z" transform="translate(-7.026 -161.688)" fill="#acc3e4"/>
      <path id="Trazado_999881" data-name="Trazado 999881" d="M97.739,205.844,95.791,200H88l1.948,5.844Z" transform="translate(-63.235 -161.688)" fill="#90a3bf"/>
      <path id="Trazado_999882" data-name="Trazado 999882" d="M136,344l1.948,5.844h7.791L143.791,344Z" transform="translate(-105.391 -288.157)" fill="#acc3e4"/>
      <path id="Trazado_999883" data-name="Trazado 999883" d="M161.739,205.844,159.791,200H152l1.948,5.844Z" transform="translate(-119.443 -161.688)" fill="#acc3e4"/>
      <path id="Trazado_999884" data-name="Trazado 999884" d="M200,344l1.948,5.844h7.791L207.791,344Z" transform="translate(-161.6 -288.157)" fill="#90a3bf"/>
      <path id="Trazado_999885" data-name="Trazado 999885" d="M271.791,344H264l1.948,5.844h7.791Z" transform="translate(-217.808 -288.157)" fill="#acc3e4"/>
      <path id="Trazado_999886" data-name="Trazado 999886" d="M225.739,205.844,223.791,200H216l1.948,5.844Z" transform="translate(-175.652 -161.688)" fill="#90a3bf"/>
      <path id="Trazado_999887" data-name="Trazado 999887" d="M47.791,248H40l1.948,5.844h7.791Z" transform="translate(-21.078 -203.844)" fill="#90a3bf"/>
      <path id="Trazado_999888" data-name="Trazado 999888" d="M111.791,248H104l1.948,5.844h7.791Z" transform="translate(-77.287 -203.844)" fill="#acc3e4"/>
      <path id="Trazado_999889" data-name="Trazado 999889" d="M177.739,253.844,175.791,248H168l1.948,5.844Z" transform="translate(-133.495 -203.844)" fill="#90a3bf"/>
      <path id="Trazado_999890" data-name="Trazado 999890" d="M233.948,253.844h7.791L239.791,248H232Z" transform="translate(-189.704 -203.844)" fill="#acc3e4"/>
      <path id="Trazado_999891" data-name="Trazado 999891" d="M63.791,296H56l1.948,5.844h7.791Z" transform="translate(-35.13 -246)" fill="#acc3e4"/>
      <path id="Trazado_999892" data-name="Trazado 999892" d="M120,296l1.948,5.844h7.791L127.791,296Z" transform="translate(-91.339 -246)" fill="#90a3bf"/>
      <path id="Trazado_999893" data-name="Trazado 999893" d="M184,296l1.948,5.844h7.791L191.791,296Z" transform="translate(-147.548 -246)" fill="#acc3e4"/>
      <path id="Trazado_999894" data-name="Trazado 999894" d="M249.948,301.844h7.791L255.791,296H248Z" transform="translate(-203.756 -246)" fill="#90a3bf"/>
      <path id="Trazado_999895" data-name="Trazado 999895" d="M88,392h31.166v3.9H88Z" transform="translate(-63.235 -330.313)" fill="#cedf75"/>
      <path id="Trazado_999896" data-name="Trazado 999896" d="M88,424h3.9v5.844H88Z" transform="translate(-63.235 -358.418)" fill="#889ab4"/>
      <path id="Trazado_999897" data-name="Trazado 999897" d="M67.687,466.922H56A2.915,2.915,0,0,1,58.922,464h5.844A2.915,2.915,0,0,1,67.687,466.922Z" transform="translate(-35.13 -393.548)" fill="#5c697a"/>
      <path id="Trazado_999898" data-name="Trazado 999898" d="M248,424h3.9v5.844H248Z" transform="translate(-203.756 -358.418)" fill="#889ab4"/>
      <path id="Trazado_999899" data-name="Trazado 999899" d="M227.687,466.922H216A2.915,2.915,0,0,1,218.922,464h5.844A2.915,2.915,0,0,1,227.687,466.922Z" transform="translate(-175.652 -393.548)" fill="#5c697a"/>
      <circle id="Elipse_12027" data-name="Elipse 12027" cx="5.844" cy="5.844" r="5.844" transform="translate(56.905 21.756)" fill="#f4e192"/>
      <g id="Grupo_1114074" data-name="Grupo 1114074" transform="translate(61.775 15.912)">
        <path id="Trazado_999900" data-name="Trazado 999900" d="M392.974,19.9a.977.977,0,0,1-.974-.974V16.974a.974.974,0,0,1,1.948,0v1.948A.977.977,0,0,1,392.974,19.9Z" transform="translate(-392 -16)" fill="#c9b978"/>
      </g>
      <g id="Grupo_1114075" data-name="Grupo 1114075" transform="translate(61.775 35.391)">
        <path id="Trazado_999901" data-name="Trazado 999901" d="M392.974,179.9a.977.977,0,0,1-.974-.974v-1.948a.974.974,0,0,1,1.948,0v1.948A.977.977,0,0,1,392.974,179.9Z" transform="translate(-392 -176)" fill="#c9b978"/>
      </g>
      <g id="Grupo_1114076" data-name="Grupo 1114076" transform="translate(67.968 19.062)">
        <path id="Trazado_999902" data-name="Trazado 999902" d="M443.852,45.189a1.03,1.03,0,0,1-.694-.28.977.977,0,0,1,0-1.376l1.376-1.376a.973.973,0,0,1,1.376,1.376l-1.376,1.376A.958.958,0,0,1,443.852,45.189Z" transform="translate(-442.875 -41.875)" fill="#c9b978"/>
      </g>
      <g id="Grupo_1114077" data-name="Grupo 1114077" transform="translate(54.199 32.831)">
        <path id="Trazado_999903" data-name="Trazado 999903" d="M330.752,158.289a1.03,1.03,0,0,1-.694-.28.977.977,0,0,1,0-1.376l1.376-1.376a.973.973,0,0,1,1.376,1.376l-1.376,1.376A.979.979,0,0,1,330.752,158.289Z" transform="translate(-329.775 -154.975)" fill="#c9b978"/>
      </g>
      <g id="Grupo_1114078" data-name="Grupo 1114078" transform="translate(70.54 26.625)">
        <path id="Trazado_999904" data-name="Trazado 999904" d="M466.922,105.948h-1.948a.974.974,0,0,1,0-1.948h1.948a.974.974,0,0,1,0,1.948Z" transform="translate(-464 -104)" fill="#c9b978"/>
      </g>
      <g id="Grupo_1114079" data-name="Grupo 1114079" transform="translate(51.061 26.625)">
        <path id="Trazado_999905" data-name="Trazado 999905" d="M306.922,105.948h-1.948a.974.974,0,0,1,0-1.948h1.948a.974.974,0,0,1,0,1.948Z" transform="translate(-304 -104)" fill="#c9b978"/>
      </g>
      <g id="Grupo_1114080" data-name="Grupo 1114080" transform="translate(67.968 32.831)">
        <path id="Trazado_999906" data-name="Trazado 999906" d="M445.228,158.289a1.03,1.03,0,0,1-.694-.28l-1.376-1.376a.973.973,0,0,1,1.376-1.376l1.376,1.376a.977.977,0,0,1,0,1.376A.958.958,0,0,1,445.228,158.289Z" transform="translate(-442.875 -154.975)" fill="#c9b978"/>
      </g>
      <g id="Grupo_1114081" data-name="Grupo 1114081" transform="translate(54.199 19.062)">
        <path id="Trazado_999907" data-name="Trazado 999907" d="M332.128,45.189a1.03,1.03,0,0,1-.694-.28l-1.376-1.376a.973.973,0,1,1,1.376-1.376l1.376,1.376a.968.968,0,0,1-.682,1.656Z" transform="translate(-329.775 -41.875)" fill="#c9b978"/>
      </g>
      <path id="Trazado_999908" data-name="Trazado 999908" d="M408,312h9.739v21.426H408Z" transform="translate(-344.278 -260.053)" fill="#acc3e4"/>
      <path id="Trazado_999909" data-name="Trazado 999909" d="M432,280h3.9v3.9H432Z" transform="translate(-365.356 -231.948)" fill="#5c697a"/>
      <path id="Trazado_999910" data-name="Trazado 999910" d="M408,456h9.739v3.9H408Z" transform="translate(-344.278 -386.522)" fill="#a3b05c"/>
      <path id="Trazado_999911" data-name="Trazado 999911" d="M408,424h9.739v3.9H408Z" transform="translate(-344.278 -358.418)" fill="#cedf75"/>
      <path id="Trazado_999912" data-name="Trazado 999912" d="M408,392h9.739v3.9H408Z" transform="translate(-344.278 -330.313)" fill="#e4f781"/>
      <circle id="Elipse_12028" data-name="Elipse 12028" cx="13.635" cy="13.635" r="13.635" transform="translate(20.87 16.886)" fill="#cedf75"/>
      <path id="Trazado_999913" data-name="Trazado 999913" d="M131.687,62.817H124.87l3.9-6.817h-5.844l-1.948,6.817-.974,3.9h5.844L123.9,76.452Z" transform="translate(-91.339 -35.218)" fill="#acc3e4"/>
      <g id="Grupo_1114082" data-name="Grupo 1114082" transform="translate(16 15.9)">
        <path id="Trazado_999914" data-name="Trazado 999914" d="M350.817,69.635A6.817,6.817,0,1,0,344,62.817,6.822,6.822,0,0,0,350.817,69.635Zm0-11.687a4.87,4.87,0,1,1-4.87,4.87A4.868,4.868,0,0,1,350.817,57.948Z" transform="translate(-304.069 -51.118)"/>
        <path id="Trazado_999915" data-name="Trazado 999915" d="M392.974,19.9a.977.977,0,0,0,.974-.974V16.974a.974.974,0,0,0-1.948,0v1.948A.977.977,0,0,0,392.974,19.9Z" transform="translate(-346.225 -15.988)"/>
        <path id="Trazado_999916" data-name="Trazado 999916" d="M392,176.974v1.948a.974.974,0,0,0,1.948,0v-1.948a.974.974,0,0,0-1.948,0Z" transform="translate(-346.225 -156.509)"/>
        <path id="Trazado_999917" data-name="Trazado 999917" d="M443.94,45.189a1.03,1.03,0,0,0,.694-.28l1.376-1.376a.973.973,0,0,0-1.376-1.376l-1.376,1.376a.968.968,0,0,0,.682,1.656Z" transform="translate(-390.995 -38.713)"/>
        <path id="Trazado_999918" data-name="Trazado 999918" d="M331.434,155.192l-1.376,1.376a.977.977,0,0,0,0,1.376.956.956,0,0,0,.694.28,1.007,1.007,0,0,0,.694-.28l1.376-1.376a.977.977,0,0,0-1.388-1.376Z" transform="translate(-291.576 -137.978)"/>
        <path id="Trazado_999919" data-name="Trazado 999919" d="M464,104.974a.977.977,0,0,0,.974.974h1.948a.974.974,0,0,0,0-1.948h-1.948A.977.977,0,0,0,464,104.974Z" transform="translate(-409.46 -93.275)"/>
        <path id="Trazado_999920" data-name="Trazado 999920" d="M304.974,105.948h1.948a.974.974,0,0,0,0-1.948h-1.948a.974.974,0,0,0,0,1.948Z" transform="translate(-268.939 -93.275)"/>
        <path id="Trazado_999921" data-name="Trazado 999921" d="M443.258,155.192a.977.977,0,0,0,0,1.376l1.376,1.376a.955.955,0,0,0,.694.28,1.007,1.007,0,0,0,.694-.28.977.977,0,0,0,0-1.376l-1.376-1.376A.97.97,0,0,0,443.258,155.192Z" transform="translate(-390.995 -137.978)"/>
        <path id="Trazado_999922" data-name="Trazado 999922" d="M331.522,44.809a.955.955,0,0,0,.694.28,1.007,1.007,0,0,0,.694-.28.977.977,0,0,0,0-1.376l-1.376-1.376a.973.973,0,0,0-1.376,1.376Z" transform="translate(-291.664 -38.625)"/>
        <path id="Trazado_999923" data-name="Trazado 999923" d="M73.462,50.973H71.514V48.052a.977.977,0,0,0-.974-.974h-.974v-.487a5.357,5.357,0,1,0-10.713,0V69.965a1.461,1.461,0,0,1-2.922,0V66.556a.977.977,0,0,0,.974-.974V61.7a1.025,1.025,0,0,0-.049-.329L49.065,38a.968.968,0,0,0-.925-.67h-.718a14.462,14.462,0,0,0,1.692-6.817,14.609,14.609,0,1,0-29.218.012,14.462,14.462,0,0,0,1.692,6.817H16.974a.964.964,0,0,0-.791.4.9.9,0,0,0-.183.548V65.57a.977.977,0,0,0,.974.974h6.817v2.922a3.907,3.907,0,0,0-3.9,3.9.977.977,0,0,0,.974.974H32.557a.977.977,0,0,0,.974-.974,3.907,3.907,0,0,0-3.9-3.9V66.544H43.27v2.922a3.907,3.907,0,0,0-3.9,3.9.977.977,0,0,0,.974.974H52.035a.977.977,0,0,0,.974-.974,3.907,3.907,0,0,0-3.9-3.9V66.544h4.87v3.409a3.409,3.409,0,0,0,6.817,0V46.591a3.409,3.409,0,1,1,6.817,0v.487h-.974a.977.977,0,0,0-.974.974v2.922H63.722a.977.977,0,0,0-.974.974V73.374a.977.977,0,0,0,.974.974h9.739a.977.977,0,0,0,.974-.974V51.947a.977.977,0,0,0-.974-.974ZM54.58,60.713H48.846l-1.3-3.9h5.734Zm-2.386-7.146.438,1.3H46.9l-1.3-3.9h5.734ZM25.471,60.713l-1.3-3.9H29.9l1.3,3.9Zm.268,5.844h1.948v2.922H25.739Zm2.216-15.583,1.3,3.9H23.524l-.438-1.3-.864-2.593Zm-6.379-1.948-.864-2.593-.438-1.3h5.734l1.3,3.9Zm6.489-3.9H33.8l1.3,3.9H29.367Zm1.948,5.844h5.734l1.3,3.9H31.315Zm5.844-5.844H41.59l1.3,3.9H37.159Zm1.838,11.687,1.3,3.9H33.263l-1.3-3.9Zm.11-5.844h5.734l1.3,3.9H39.106Zm7.682,5.844,1.3,3.9H41.054l-1.3-3.9Zm3.9-11.687.438,1.3.864,2.593H44.95l-1.3-3.9Zm-1.948-5.844,1.3,3.9H43l-.207-.633a14.651,14.651,0,0,0,3.4-3.263h1.242ZM34.5,17.86A12.661,12.661,0,1,1,21.844,30.521,12.683,12.683,0,0,1,34.5,17.86ZM22.83,39.286A14.568,14.568,0,0,0,24.778,41.4l.6,1.777H19.628l-1.3-3.9ZM17.948,64.608V44.314L18,44.46l5.795,17.385v2.764ZM31.327,72.4H22.1a1.944,1.944,0,0,1,1.692-.974h5.844A1.959,1.959,0,0,1,31.327,72.4Zm19.479,0H41.59a1.944,1.944,0,0,1,1.692-.974h5.844A1.954,1.954,0,0,1,50.806,72.4Zm-5.588-2.922V66.556h1.948v2.922Zm9.739-4.87H25.739V62.661H54.957ZM67.618,49.026h1.948v1.948H67.618ZM72.488,72.4H64.7V70.452h7.791Zm0-3.9H64.7V66.556h7.791Zm0-3.9H64.7V62.661h7.791Zm0-3.9H64.7V52.921h7.791Z" transform="translate(-16 -15.9)"/>
        <path id="Trazado_999924" data-name="Trazado 999924" d="M112.934,60.661h4.65l-1.717,8.571a.987.987,0,0,0,.609,1.108,1.118,1.118,0,0,0,.341.061.966.966,0,0,0,.84-.487l7.791-13.635a.991.991,0,0,0,0-.974.966.966,0,0,0-.84-.487h-5.137l3.068-5.357a.991.991,0,0,0,0-.974A.966.966,0,0,0,121.7,48h-5.844a.979.979,0,0,0-.937.706l-1.948,6.817a.045.045,0,0,1-.012.037l-.974,3.9a.97.97,0,0,0,.95,1.205Zm1.911-4.614,1.741-6.1h3.433L116.951,55.3a.991.991,0,0,0,0,.974.966.966,0,0,0,.84.487h5.137l-3.981,6.964.767-3.859a.913.913,0,0,0-.207-.8,1.01,1.01,0,0,0-.755-.353h-4.6Z" transform="translate(-100.273 -44.092)"/>
      </g>
    </g>
  </g>
</svg>
