<svg xmlns="http://www.w3.org/2000/svg" xmlns:xlink="http://www.w3.org/1999/xlink" width="108.914" height="108.914" viewBox="0 0 108.914 108.914">
  <defs>
    <filter id="Trazado_874925" x="0" y="0" width="108.914" height="108.914" filterUnits="userSpaceOnUse">
      <feOffset dy="3" input="SourceAlpha"/>
      <feGaussianBlur stdDeviation="3" result="blur"/>
      <feFlood flood-opacity="0.161"/>
      <feComposite operator="in" in2="blur"/>
      <feComposite in="SourceGraphic"/>
    </filter>
  </defs>
  <g id="Grupo_1114102" data-name="Grupo 1114102" transform="translate(6283.008 5514.622)">
    <g transform="matrix(1, 0, 0, 1, -6283.01, -5514.62)" filter="url(#Trazado_874925)">
      <g id="Trazado_874925-2" data-name="Trazado 874925" transform="translate(9 6)" fill="#bacbec" opacity="0.859">
        <path d="M 45.45676803588867 89.41407012939453 C 39.52198028564453 89.41407012939453 33.76551818847656 88.25206756591797 28.34726715087891 85.96034240722656 C 23.11311721801758 83.74648284912109 18.41204261779785 80.57682800292969 14.37464332580566 76.5394287109375 C 10.33724308013916 72.50202941894531 7.167593002319336 67.80095672607422 4.953730583190918 62.56679534912109 C 2.662005424499512 57.14855575561523 1.500005483627319 51.39208221435547 1.500005483627319 45.45729446411133 C 1.500005483627319 39.52198028564453 2.662005424499512 33.76551818847656 4.953730583190918 28.34726905822754 C 7.167593002319336 23.11310577392578 10.33724308013916 18.41203117370605 14.37464332580566 14.37464332580566 C 18.41204261779785 10.33724403381348 23.11311721801758 7.167593955993652 28.34726715087891 4.953731060028076 C 33.76551818847656 2.662006139755249 39.52198028564453 1.500006198883057 45.45676803588867 1.500006198883057 C 51.39155578613281 1.500006198883057 57.14802932739258 2.662006139755249 62.56626892089844 4.953731060028076 C 67.80043029785156 7.167593955993652 72.50150299072266 10.33724403381348 76.53890228271484 14.37464332580566 C 80.57630920410156 18.41203117370605 83.74595642089844 23.11310577392578 85.95981597900391 28.34726905822754 C 88.25154113769531 33.76551818847656 89.41354370117188 39.52198028564453 89.41354370117188 45.45676803588867 C 89.41354370117188 51.39208221435547 88.25154113769531 57.14855575561523 85.95981597900391 62.56679534912109 C 83.74595642089844 67.80095672607422 80.57630920410156 72.50202941894531 76.53890228271484 76.5394287109375 C 72.50150299072266 80.57682800292969 67.80043029785156 83.74648284912109 62.56626892089844 85.96034240722656 C 57.14802932739258 88.25206756591797 51.39155578613281 89.41407012939453 45.45676803588867 89.41407012939453 Z" stroke="none"/>
        <path d="M 45.45676803588867 3 C 39.72381210327148 3 34.1639404296875 4.12213134765625 28.93159484863281 6.335227966308594 C 23.87622833251953 8.473472595214844 19.33542633056641 11.53517150878906 15.43529510498047 15.435302734375 C 11.53517150878906 19.33543395996094 8.473464965820312 23.87622833251953 6.335227966308594 28.93160247802734 C 4.122123718261719 34.16394424438477 3 39.72381591796875 3 45.4572868347168 C 3 51.19024658203125 4.122123718261719 56.75011825561523 6.335227966308594 61.98246002197266 C 8.473464965820312 67.03782653808594 11.53517150878906 71.57862854003906 15.43529510498047 75.478759765625 C 19.33542633056641 79.37889099121094 23.87622833251953 82.44058990478516 28.93159484863281 84.57883453369141 C 34.1639404296875 86.79193115234375 39.72381210327148 87.9140625 45.45676803588867 87.9140625 C 51.18972396850586 87.9140625 56.74959564208984 86.79193115234375 61.98194122314453 84.57883453369141 C 67.03730773925781 82.44058990478516 71.57810974121094 79.37889099121094 75.47824096679688 75.478759765625 C 79.37837219238281 71.57862854003906 82.44007110595703 67.03782653808594 84.57830810546875 61.98246002197266 C 86.79141235351562 56.75011825561523 87.91353607177734 51.19024658203125 87.91353607177734 45.4567756652832 C 87.91353607177734 39.72381591796875 86.79141235351562 34.16394424438477 84.57830810546875 28.93160247802734 C 82.44007110595703 23.87622833251953 79.37837219238281 19.33543395996094 75.47824096679688 15.435302734375 C 71.57810974121094 11.53517150878906 67.03730773925781 8.473472595214844 61.98194122314453 6.335227966308594 C 56.74959564208984 4.12213134765625 51.18972396850586 3 45.45676803588867 3 M 45.45676803588867 0 C 70.56185150146484 0 90.91353607177734 20.35169219970703 90.91353607177734 45.4567756652832 L 90.91353607177734 45.4572868347168 C 90.91353607177734 70.5623779296875 70.56185150146484 90.9140625 45.45676803588867 90.9140625 C 20.3516845703125 90.9140625 0 70.5623779296875 0 45.4572868347168 L 0 45.4567756652832 C 0 20.35169219970703 20.3516845703125 0 45.45676803588867 0 Z" stroke="none" fill="#fff"/>
      </g>
    </g>
    <g id="Grupo_1114101" data-name="Grupo 1114101" transform="translate(-6254.206 -5490.247)">
      <g id="Grupo_1114099" data-name="Grupo 1114099" transform="translate(0.774 1.494)">
        <g id="Grupo_1114092" data-name="Grupo 1114092" transform="translate(2.387 20.733)">
          <path id="Trazado_999944" data-name="Trazado 999944" d="M58.234,251.25l-15.021,1.718-12.6-1.718c0-8.874,5.026-17.245,5.915-21.954a6.861,6.861,0,0,0,.134-1.264l9.987-1.435,5.539,1.435a6.861,6.861,0,0,0,.134,1.264C53.208,234.005,58.234,242.376,58.234,251.25Z" transform="translate(-30.61 -224.779)" fill="#738b95"/>
          <path id="Trazado_999945" data-name="Trazado 999945" d="M103.687,229.3H87.893a6.861,6.861,0,0,0,.134-1.264l9.987-1.435,5.539,1.435A6.861,6.861,0,0,0,103.687,229.3Z" transform="translate(-81.978 -224.779)" fill="#617881"/>
          <path id="Trazado_999946" data-name="Trazado 999946" d="M42.047,240.5c0,4.353-1.851,13.483-1.851,23.218H30.611c0-9.735,6.049-18.865,6.049-23.218Z" transform="translate(-30.611 -237.242)" fill="#617881"/>
          <g id="Grupo_1114091" data-name="Grupo 1114091" transform="translate(4.925)">
            <path id="Trazado_999947" data-name="Trazado 999947" d="M94.451,208.99H79.931a1.627,1.627,0,1,0,0,3.253h14.52a1.627,1.627,0,1,0,0-3.253Z" transform="translate(-78.304 -208.99)" fill="#f4dd45"/>
            <path id="Trazado_999948" data-name="Trazado 999948" d="M85.053,211.768a1.622,1.622,0,0,0,1.15.477H79.93a1.627,1.627,0,0,1,0-3.253H86.2a1.626,1.626,0,0,0-1.15,2.777Z" transform="translate(-78.303 -208.991)" fill="#ecbe6b"/>
          </g>
        </g>
        <g id="Grupo_1114094" data-name="Grupo 1114094" transform="translate(11.982 11.211)">
          <path id="Trazado_999949" data-name="Trazado 999949" d="M160.487,173.321l-20.1,2.3-16.86-2.3c0-11.872,6.724-23.07,7.913-29.369a9.171,9.171,0,0,0,.179-1.691l13.36-1.92,7.411,1.92a9.171,9.171,0,0,0,.179,1.691C153.763,150.252,160.487,161.449,160.487,173.321Z" transform="translate(-123.532 -137.909)" fill="#738b95"/>
          <path id="Trazado_999950" data-name="Trazado 999950" d="M221.292,143.951H200.164a9.17,9.17,0,0,0,.179-1.691l13.36-1.92,7.411,1.92A9.149,9.149,0,0,0,221.292,143.951Z" transform="translate(-192.25 -137.908)" fill="#617881"/>
          <path id="Trazado_999951" data-name="Trazado 999951" d="M138.833,158.934c0,5.824-2.476,18.037-2.476,31.06H123.534c0-13.023,8.092-25.236,8.092-31.06Z" transform="translate(-123.534 -154.582)" fill="#617881"/>
          <g id="Grupo_1114093" data-name="Grupo 1114093" transform="translate(6.589)">
            <path id="Trazado_999952" data-name="Trazado 999952" d="M208.936,116.788H189.511a2.176,2.176,0,0,0,0,4.352h19.425a2.176,2.176,0,0,0,0-4.352Z" transform="translate(-187.335 -116.788)" fill="#f4dd45"/>
            <path id="Trazado_999953" data-name="Trazado 999953" d="M196.364,120.5a2.17,2.17,0,0,0,1.539.637h-8.392a2.176,2.176,0,1,1,0-4.352H197.9a2.176,2.176,0,0,0-1.539,3.715Z" transform="translate(-187.335 -116.789)" fill="#ecbe6b"/>
          </g>
        </g>
        <g id="Grupo_1114095" data-name="Grupo 1114095" transform="translate(0 46.401)">
          <path id="Trazado_999954" data-name="Trazado 999954" d="M56.436,457.557H9.887a2.387,2.387,0,0,0,0,4.773h46.55a2.387,2.387,0,1,0,0-4.773Z" transform="translate(-7.5 -457.557)" fill="#bcdf95"/>
          <path id="Trazado_999955" data-name="Trazado 999955" d="M17.4,461.633a2.38,2.38,0,0,0,1.687.7h-9.2a2.386,2.386,0,0,1,0-4.773h9.2a2.386,2.386,0,0,0-1.687,4.074Z" transform="translate(-7.5 -457.559)" fill="#93c8a5"/>
        </g>
        <g id="Grupo_1114096" data-name="Grupo 1114096" transform="translate(21.522 23.222)">
          <path id="Trazado_999956" data-name="Trazado 999956" d="M268.126,234.288l-4.469,7.74-4.468-7.74A8.935,8.935,0,0,1,268.126,234.288Z" transform="translate(-254.719 -233.091)" fill="#f4dd45"/>
          <path id="Trazado_999957" data-name="Trazado 999957" d="M224.848,319.643l-4.468,7.74a8.946,8.946,0,0,1-4.469-7.74Z" transform="translate(-215.91 -310.705)" fill="#f4dd45"/>
          <path id="Trazado_999958" data-name="Trazado 999958" d="M311.4,319.643a8.935,8.935,0,0,1-4.47,7.739h0l-4.468-7.739Z" transform="translate(-293.521 -310.705)" fill="#f4dd45"/>
        </g>
        <g id="Grupo_1114097" data-name="Grupo 1114097" transform="translate(17.015 0)">
          <path id="Trazado_999959" data-name="Trazado 999959" d="M176.665,8.219a4.393,4.393,0,0,1,3.8,2.19,3.5,3.5,0,0,1,4.926,1.926,2.453,2.453,0,1,1,1.04,4.675h-9.768a4.4,4.4,0,0,1,0-8.791Z" transform="translate(-172.269 -8.219)" fill="#9bb9c1"/>
          <path id="Trazado_999960" data-name="Trazado 999960" d="M179.322,17.015h-2.657a4.4,4.4,0,1,1,1.327-8.587,4.4,4.4,0,0,0,1.33,8.587Z" transform="translate(-172.269 -8.223)" fill="#86a0af"/>
        </g>
        <g id="Grupo_1114098" data-name="Grupo 1114098" transform="translate(0 9.937)">
          <path id="Trazado_999961" data-name="Trazado 999961" d="M11.562,104.449a4.06,4.06,0,0,1,3.513,2.024,3.236,3.236,0,0,1,4.553,1.78,2.268,2.268,0,1,1,.962,4.321H11.562a4.063,4.063,0,0,1,0-8.125Z" transform="translate(-7.499 -104.449)" fill="#9bb9c1"/>
          <path id="Trazado_999962" data-name="Trazado 999962" d="M14.019,112.578H11.563a4.063,4.063,0,1,1,1.226-7.936,4.063,4.063,0,0,0,1.229,7.936Z" transform="translate(-7.5 -104.453)" fill="#86a0af"/>
        </g>
      </g>
      <g id="Grupo_1114100" data-name="Grupo 1114100" transform="translate(0 0.72)">
        <path id="Trazado_999963" data-name="Trazado 999963" d="M50.473,144.571c-.19-6.917-2.521-13.546-4.706-19.243a.774.774,0,0,0-1.446.555c2.124,5.539,4.388,11.969,4.6,18.6H13.548c.233-7.306,2.96-14.358,5.166-20.063,1.462-3.779,2.647-6.844,2.871-9.226h19.3a33.387,33.387,0,0,0,2.33,7.825.775.775,0,0,0,1.446-.555c-1.119-2.917-2.13-5.7-2.254-7.659a2.95,2.95,0,0,0-1.46-5.513H21.522a2.95,2.95,0,0,0-1.46,5.514,16.99,16.99,0,0,1-.927,4.008H9.713a2.4,2.4,0,0,0-2.4,2.4,2.38,2.38,0,0,0,.7,1.7,2.41,2.41,0,0,0,.4.325,29.14,29.14,0,0,1-2.064,6.592,76.307,76.307,0,0,0-2.9,8.516.775.775,0,1,0,1.5.387,75.1,75.1,0,0,1,2.84-8.345,31.763,31.763,0,0,0,2.139-6.771h7.428l-.094.244c-2.255,5.829-5.042,13.036-5.272,20.621H3.989a27.872,27.872,0,0,1,.333-2.8.775.775,0,0,0-1.527-.258,29.226,29.226,0,0,0-.362,3.145,3.161,3.161,0,0,0,.728,6.236h46.55a3.161,3.161,0,0,0,.762-6.229ZM21.522,110.837H40.946a1.4,1.4,0,1,1,0,2.8H21.522a1.4,1.4,0,1,1,0-2.8ZM9.713,122.063a.852.852,0,1,1,0-1.7H18.6c-.2.551-.413,1.12-.636,1.7Zm40,27.188H3.161a1.612,1.612,0,0,1,0-3.224H49.716a1.612,1.612,0,0,1,0,3.224Z" transform="translate(0 -98.077)"/>
        <path id="Trazado_999964" data-name="Trazado 999964" d="M208.41,235.357a9.719,9.719,0,0,0,4.857,8.412.774.774,0,0,0,1.057-.284l3.8-6.579,3.8,6.577a.775.775,0,0,0,1.059.283,9.75,9.75,0,0,0,4.857-8.409.774.774,0,0,0-.774-.775h-7.6l3.8-6.579a.775.775,0,0,0-.284-1.058,9.749,9.749,0,0,0-9.711,0,.775.775,0,0,0-.284,1.058l3.8,6.578h-7.6A.774.774,0,0,0,208.41,235.357Zm14.445,6.65-3.391-5.875h6.784A8.207,8.207,0,0,1,222.855,242.007Zm-1.341-14.073-3.392,5.875-3.392-5.875A8.206,8.206,0,0,1,221.514,227.933Zm-4.734,8.2-3.392,5.876A8.178,8.178,0,0,1,210,236.132h6.785Z" transform="translate(-186.888 -202.424)"/>
        <path id="Trazado_999965" data-name="Trazado 999965" d="M169.94,11.06h9.768a3.228,3.228,0,1,0-.626-6.4,4.275,4.275,0,0,0-5.055-1.94,5.169,5.169,0,1,0-4.086,8.335Zm0-8.791a3.636,3.636,0,0,1,3.132,1.8.774.774,0,0,0,1.03.3,2.694,2.694,0,0,1,1.266-.312,2.732,2.732,0,0,1,2.569,1.812A.774.774,0,0,0,179,6.311a1.664,1.664,0,0,1,.712-.158,1.679,1.679,0,1,1,0,3.358H169.94a3.621,3.621,0,0,1,0-7.242Z" transform="translate(-147.755 -0.72)"/>
        <path id="Trazado_999966" data-name="Trazado 999966" d="M4.837,106.624h9.028a3.042,3.042,0,1,0-.548-6.035,4.01,4.01,0,0,0-4.682-1.8,4.837,4.837,0,1,0-3.8,7.831Zm0-8.125a3.3,3.3,0,0,1,2.844,1.639.774.774,0,0,0,1.03.3,2.432,2.432,0,0,1,1.143-.282,2.467,2.467,0,0,1,2.319,1.636.775.775,0,0,0,1.059.441,1.478,1.478,0,0,1,.633-.141,1.493,1.493,0,1,1,0,2.986H4.837a3.288,3.288,0,1,1,0-6.576Z" transform="translate(0 -87.013)"/>
      </g>
    </g>
  </g>
</svg>
