<svg xmlns="http://www.w3.org/2000/svg" xmlns:xlink="http://www.w3.org/1999/xlink" width="108.914" height="108.914" viewBox="0 0 108.914 108.914">
  <defs>
    <filter id="Trazado_874925" x="0" y="0" width="108.914" height="108.914" filterUnits="userSpaceOnUse">
      <feOffset dy="3" input="SourceAlpha"/>
      <feGaussianBlur stdDeviation="3" result="blur"/>
      <feFlood flood-opacity="0.161"/>
      <feComposite operator="in" in2="blur"/>
      <feComposite in="SourceGraphic"/>
    </filter>
    <clipPath id="clip-path">
      <path id="path5481" d="M0-682.665H53.872v53.872H0Z" transform="translate(0 682.665)"/>
    </clipPath>
  </defs>
  <g id="Grupo_1114119" data-name="Grupo 1114119" transform="translate(5653.008 5514.622)">
    <g transform="matrix(1, 0, 0, 1, -5653.01, -5514.62)" filter="url(#Trazado_874925)">
      <g id="Trazado_874925-2" data-name="Trazado 874925" transform="translate(9 6)" fill="#bacbec" opacity="0.859">
        <path d="M 45.45676803588867 89.41407012939453 C 39.52198028564453 89.41407012939453 33.76551818847656 88.25206756591797 28.34726715087891 85.96034240722656 C 23.11311721801758 83.74648284912109 18.41204261779785 80.57682800292969 14.37464332580566 76.5394287109375 C 10.33724308013916 72.50202941894531 7.167593002319336 67.80095672607422 4.953730583190918 62.56679534912109 C 2.662005424499512 57.14855575561523 1.500005483627319 51.39208221435547 1.500005483627319 45.45729446411133 C 1.500005483627319 39.52198028564453 2.662005424499512 33.76551818847656 4.953730583190918 28.34726905822754 C 7.167593002319336 23.11310577392578 10.33724308013916 18.41203117370605 14.37464332580566 14.37464332580566 C 18.41204261779785 10.33724403381348 23.11311721801758 7.167593955993652 28.34726715087891 4.953731060028076 C 33.76551818847656 2.662006139755249 39.52198028564453 1.500006198883057 45.45676803588867 1.500006198883057 C 51.39155578613281 1.500006198883057 57.14802932739258 2.662006139755249 62.56626892089844 4.953731060028076 C 67.80043029785156 7.167593955993652 72.50150299072266 10.33724403381348 76.53890228271484 14.37464332580566 C 80.57630920410156 18.41203117370605 83.74595642089844 23.11310577392578 85.95981597900391 28.34726905822754 C 88.25154113769531 33.76551818847656 89.41354370117188 39.52198028564453 89.41354370117188 45.45676803588867 C 89.41354370117188 51.39208221435547 88.25154113769531 57.14855575561523 85.95981597900391 62.56679534912109 C 83.74595642089844 67.80095672607422 80.57630920410156 72.50202941894531 76.53890228271484 76.5394287109375 C 72.50150299072266 80.57682800292969 67.80043029785156 83.74648284912109 62.56626892089844 85.96034240722656 C 57.14802932739258 88.25206756591797 51.39155578613281 89.41407012939453 45.45676803588867 89.41407012939453 Z" stroke="none"/>
        <path d="M 45.45676803588867 3 C 39.72381210327148 3 34.1639404296875 4.12213134765625 28.93159484863281 6.335227966308594 C 23.87622833251953 8.473472595214844 19.33542633056641 11.53517150878906 15.43529510498047 15.435302734375 C 11.53517150878906 19.33543395996094 8.473464965820312 23.87622833251953 6.335227966308594 28.93160247802734 C 4.122123718261719 34.16394424438477 3 39.72381591796875 3 45.4572868347168 C 3 51.19024658203125 4.122123718261719 56.75011825561523 6.335227966308594 61.98246002197266 C 8.473464965820312 67.03782653808594 11.53517150878906 71.57862854003906 15.43529510498047 75.478759765625 C 19.33542633056641 79.37889099121094 23.87622833251953 82.44058990478516 28.93159484863281 84.57883453369141 C 34.1639404296875 86.79193115234375 39.72381210327148 87.9140625 45.45676803588867 87.9140625 C 51.18972396850586 87.9140625 56.74959564208984 86.79193115234375 61.98194122314453 84.57883453369141 C 67.03730773925781 82.44058990478516 71.57810974121094 79.37889099121094 75.47824096679688 75.478759765625 C 79.37837219238281 71.57862854003906 82.44007110595703 67.03782653808594 84.57830810546875 61.98246002197266 C 86.79141235351562 56.75011825561523 87.91353607177734 51.19024658203125 87.91353607177734 45.4567756652832 C 87.91353607177734 39.72381591796875 86.79141235351562 34.16394424438477 84.57830810546875 28.93160247802734 C 82.44007110595703 23.87622833251953 79.37837219238281 19.33543395996094 75.47824096679688 15.435302734375 C 71.57810974121094 11.53517150878906 67.03730773925781 8.473472595214844 61.98194122314453 6.335227966308594 C 56.74959564208984 4.12213134765625 51.18972396850586 3 45.45676803588867 3 M 45.45676803588867 0 C 70.56185150146484 0 90.91353607177734 20.35169219970703 90.91353607177734 45.4567756652832 L 90.91353607177734 45.4572868347168 C 90.91353607177734 70.5623779296875 70.56185150146484 90.9140625 45.45676803588867 90.9140625 C 20.3516845703125 90.9140625 0 70.5623779296875 0 45.4572868347168 L 0 45.4567756652832 C 0 20.35169219970703 20.3516845703125 0 45.45676803588867 0 Z" stroke="none" fill="#fff"/>
      </g>
    </g>
    <g id="g5475" transform="translate(-5623.206 -4807.436)">
      <g id="g5477" transform="translate(0 -682.665)">
        <g id="g5479" clip-path="url(#clip-path)">
          <g id="g5485" transform="translate(0.789 45.244)">
            <path id="path5487" d="M-604.231-36.843h-51.242a.526.526,0,0,1-.526-.526v-2.1a.526.526,0,0,1,.526-.526h51.242a.526.526,0,0,1,.526.526v2.1a.526.526,0,0,1-.526.526" transform="translate(655.998 40)" fill="#e29a6c"/>
          </g>
          <g id="g5489" transform="translate(49.4 45.244)">
            <path id="path5491" d="M-42.984-6.141v2.1a.526.526,0,0,1-.526.526h-3.157a.526.526,0,0,0,.526-.526v-2.1a.526.526,0,0,0-.526-.526h3.157a.526.526,0,0,1,.526.526" transform="translate(46.667 6.667)" fill="#ce845c"/>
          </g>
          <g id="g5493" transform="translate(4.472 39.141)">
            <path id="path5495" d="M-180.532,0h-13.889A1.578,1.578,0,0,0-196,1.578V6.1h17.045V1.578A1.578,1.578,0,0,0-180.532,0" transform="translate(196)" fill="#ffe07d"/>
          </g>
          <g id="g5497" transform="translate(16.782 39.141)">
            <path id="path5499" d="M-55.265-18.422V-13.9h-3.157v-4.524A1.579,1.579,0,0,0-60-20h3.157a1.579,1.579,0,0,1,1.578,1.578" transform="translate(60 20)" fill="#ffd064"/>
          </g>
          <g id="g5501" transform="translate(0.789 5.471)">
            <path id="path5503" d="M-142.461,0h0a12.205,12.205,0,0,0-12.205,12.205,12.2,12.2,0,0,0,5.709,10.335,3.178,3.178,0,0,1,1.5,2.685v2.132h10V25.225a3.178,3.178,0,0,1,1.5-2.685,12.2,12.2,0,0,0,5.709-10.335A12.205,12.205,0,0,0-142.461,0" transform="translate(154.666)" fill="#cdf2f9"/>
          </g>
          <g id="g5505" transform="translate(11.416 5.471)">
            <path id="path5507" d="M-160.883-142.461a12.2,12.2,0,0,1-5.709,10.335,3.178,3.178,0,0,0-1.5,2.685v2.132h-3.157v-2.132a3.178,3.178,0,0,1,1.5-2.685,12.2,12.2,0,0,0,5.709-10.335,12.167,12.167,0,0,0-3.574-8.631,12.169,12.169,0,0,0-7.053-3.473,12.4,12.4,0,0,1,1.578-.1,12.167,12.167,0,0,1,8.631,3.574,12.167,12.167,0,0,1,3.574,8.631" transform="translate(174.666 154.666)" fill="#b1f1f1"/>
          </g>
          <path id="path5509" d="M122.558-223.51h-7.891v-3.157h7.891Z" transform="translate(-105.618 262.651)" fill="#ffc269"/>
          <path id="path5511" d="M177.823-223.51h-3.157v-3.157h3.157Z" transform="translate(-160.883 262.651)" fill="#ffa95f"/>
          <g id="g5513" transform="translate(5.84 20.623)">
            <path id="path5515" d="M-6.141,0H-3.3A3.788,3.788,0,0,1,.488,3.788v.526H-2.879A3.788,3.788,0,0,1-6.667.526.526.526,0,0,1-6.141,0" transform="translate(6.667 0)" fill="#b3e59f"/>
          </g>
          <g id="g5517" transform="translate(7.418 13.152)">
            <path id="path5519" d="M-6.141,0h1.263A3.788,3.788,0,0,1-1.09,3.788v.526H-2.879A3.788,3.788,0,0,1-6.667.526.526.526,0,0,1-6.141,0" transform="translate(6.667 0)" fill="#b3e59f"/>
          </g>
          <g id="g5521" transform="translate(12.995 20.623)">
            <path id="path5523" d="M-77.371,0h-2.841A3.788,3.788,0,0,0-84,3.788v.526h3.367A3.788,3.788,0,0,0-76.845.526.526.526,0,0,0-77.371,0" transform="translate(84 0)" fill="#9bcf84"/>
          </g>
          <g id="g5525" transform="translate(12.995 13.152)">
            <path id="path5527" d="M-58.949,0h-1.263A3.788,3.788,0,0,0-64,3.788v.526h1.789A3.788,3.788,0,0,0-58.423.526.526.526,0,0,0-58.949,0" transform="translate(64 0)" fill="#9bcf84"/>
          </g>
          <g id="g5529" transform="translate(6.418 32.828)">
            <path id="path5531" d="M-135.092-36.843h-10a1.578,1.578,0,0,1-1.578-1.578A1.578,1.578,0,0,1-145.088-40h10a1.578,1.578,0,0,1,1.578,1.578,1.578,1.578,0,0,1-1.578,1.578" transform="translate(146.666 40)" fill="#faf2f3"/>
          </g>
          <g id="g5533" transform="translate(14.836 32.828)">
            <path id="path5535" d="M-55.265-18.422a1.569,1.569,0,0,1-.463,1.115,1.569,1.569,0,0,1-1.115.463H-60a1.569,1.569,0,0,0,1.115-.463,1.569,1.569,0,0,0,.463-1.115A1.579,1.579,0,0,0-60-20h3.157a1.579,1.579,0,0,1,1.578,1.578" transform="translate(60 20)" fill="#f0e5e0"/>
          </g>
          <g id="g5537" transform="translate(26.252 35.985)">
            <path id="path5539" d="M-272.641,0h-22.306A1.052,1.052,0,0,0-296,1.052V9.259h24.411V1.052A1.052,1.052,0,0,0-272.641,0" transform="translate(295.999 0)" fill="#6f6571"/>
          </g>
          <g id="g5541" transform="translate(46.454 35.985)">
            <path id="path5543" d="M-49.124-12.281v8.207h-3.157v-8.207a1.053,1.053,0,0,0-1.052-1.052h3.157a1.053,1.053,0,0,1,1.052,1.052" transform="translate(53.333 13.333)" fill="#5d5360"/>
          </g>
          <g id="g5545" transform="translate(28.251 29.04)">
            <path id="path5547" d="M-108.074-81.055h-9.259l.037-.051a10.522,10.522,0,0,0,2.067-6.263v-.1A.526.526,0,0,1-114.7-88h4a.526.526,0,0,1,.526.526v.1a10.522,10.522,0,0,0,2.067,6.263Z" transform="translate(117.333 88)" fill="#faf2f3"/>
          </g>
          <g id="g5549" transform="translate(31.723 29.04)">
            <path id="path5551" d="M-67.546-81.055H-70.7l-.038-.051a10.526,10.526,0,0,1-2.067-6.263v-.105A.526.526,0,0,0-73.333-88h3.157a.526.526,0,0,1,.526.526v.105a10.526,10.526,0,0,0,2.066,6.263Z" transform="translate(73.333 88)" fill="#f0e5e0"/>
          </g>
          <g id="g5553" transform="translate(39.404 29.04)">
            <path id="path5555" d="M0-81.055H9.259l-.037-.051a10.522,10.522,0,0,1-2.067-6.263v-.1A.526.526,0,0,0,6.629-88h-4a.526.526,0,0,0-.526.526v.1A10.522,10.522,0,0,1,.037-81.106Z" transform="translate(0 88)" fill="#faf2f3"/>
          </g>
          <g id="g5557" transform="translate(42.877 29.04)">
            <path id="path5559" d="M-67.546-81.055H-70.7l-.038-.051a10.526,10.526,0,0,1-2.067-6.263v-.105A.526.526,0,0,0-73.333-88h3.157a.526.526,0,0,1,.526.526v.105a10.526,10.526,0,0,0,2.066,6.263Z" transform="translate(73.333 88)" fill="#f0e5e0"/>
          </g>
          <g id="g5561" transform="translate(40.141 39.141)">
            <path id="path5563" d="M-79.827-34.387H-86.14a.526.526,0,0,1-.526-.526v-1.894a.526.526,0,0,1,.526-.526h6.313a.526.526,0,0,1,.526.526v1.894a.526.526,0,0,1-.526.526" transform="translate(86.666 37.333)" fill="#fff"/>
          </g>
          <g id="g5565" transform="translate(29.409 39.141)">
            <path id="path5567" d="M-79.827-34.387H-86.14a.526.526,0,0,1-.526-.526v-1.894a.526.526,0,0,1,.526-.526h6.313a.526.526,0,0,1,.526.526v1.894a.526.526,0,0,1-.526.526" transform="translate(86.666 37.333)" fill="#fff"/>
          </g>
          <g id="g5569" transform="translate(28.146 11.785)">
            <path id="path5571" d="M-210.006-92.108h-.086a.2.2,0,0,1-.189-.289,3.145,3.145,0,0,0,.274-1.368,3.173,3.173,0,0,0-2.944-3.072,3.157,3.157,0,0,0-1.308.189.2.2,0,0,1-.272-.19q0-.132-.011-.267A3.175,3.175,0,0,0-217.578-100a3.157,3.157,0,0,0-3.266,3.155v0a.2.2,0,0,1-.269.194,3.157,3.157,0,0,0-1.31-.19,3.173,3.173,0,0,0-2.944,3.072,3.145,3.145,0,0,0,.274,1.368.2.2,0,0,1-.189.289h-.086a2.63,2.63,0,0,0-2.63,2.7,2.7,2.7,0,0,0,2.7,2.561,2,2,0,0,1,1.685.924l.176.274a.211.211,0,0,0,.354,0l.176-.274a2.012,2.012,0,0,1,1.692-.924h7.127a1.894,1.894,0,0,1,1.593.87l.211.328a.211.211,0,0,0,.354,0l.211-.328a1.894,1.894,0,0,1,1.593-.87h.064a2.678,2.678,0,0,0,2.689-2.681,2.63,2.63,0,0,0-2.63-2.58" transform="translate(227.999 99.999)" fill="#fff1ca"/>
          </g>
          <g id="g5573" transform="translate(36.874 11.785)">
            <path id="path5575" d="M-138.838-122.219a2.679,2.679,0,0,1-2.69,2.681h-.064a1.891,1.891,0,0,0-1.593.87l-.211.328a.211.211,0,0,1-.354,0l-.211-.328a1.888,1.888,0,0,0-1.19-.826,1.834,1.834,0,0,1,.4-.044h.064a2.679,2.679,0,0,0,2.689-2.681,2.631,2.631,0,0,0-2.63-2.58,2.694,2.694,0,0,0-.445.038,3.147,3.147,0,0,0,.444-1.694,3.173,3.173,0,0,0-2.944-3.071,3.151,3.151,0,0,0-1.6.311,3.215,3.215,0,0,0,.005-.579,3.169,3.169,0,0,0-1.573-2.471,3.138,3.138,0,0,1,1.693-.424A3.175,3.175,0,0,1-146-129.794c.007.09.011.179.011.267a.2.2,0,0,0,.273.189,3.157,3.157,0,0,1,1.306-.188,3.173,3.173,0,0,1,2.944,3.071,3.15,3.15,0,0,1-.275,1.37.2.2,0,0,0,.19.287h.086a2.631,2.631,0,0,1,2.63,2.58" transform="translate(150.733 132.69)" fill="#ffe2a1"/>
          </g>
          <g id="g5577" transform="translate(4.472 39.141)">
            <path id="path5579" d="M-198.954-68.782V-73.1a1.578,1.578,0,0,0-1.578-1.578h-13.889A1.578,1.578,0,0,0-216-73.1v4.339" transform="translate(215.999 74.674)" fill="none" stroke="#000" stroke-linecap="round" stroke-linejoin="round" stroke-miterlimit="10" stroke-width="1"/>
          </g>
          <g id="g5581" transform="translate(0.789 11.777)">
            <path id="path5583" d="M-17.717,0a12.151,12.151,0,0,0-1.518,5.9,12.2,12.2,0,0,0,5.709,10.335,3.178,3.178,0,0,1,1.5,2.685v1.868" transform="translate(19.235)" fill="none" stroke="#000" stroke-linecap="round" stroke-linejoin="round" stroke-miterlimit="10" stroke-width="1"/>
          </g>
          <g id="g5585" transform="translate(4.559 5.471)">
            <path id="path5587" d="M-156.8-316.611v-1.9a3.178,3.178,0,0,1,1.5-2.685,12.2,12.2,0,0,0,5.709-10.335A12.205,12.205,0,0,0-161.8-343.737a12.165,12.165,0,0,0-8.436,3.384" transform="translate(170.233 343.737)" fill="none" stroke="#000" stroke-linecap="round" stroke-linejoin="round" stroke-miterlimit="10" stroke-width="1"/>
          </g>
          <g id="g5589" transform="translate(6.418 32.828)">
            <path id="path5591" d="M-135.092-36.843h-10a1.578,1.578,0,0,1-1.578-1.578A1.578,1.578,0,0,1-145.088-40h10a1.578,1.578,0,0,1,1.578,1.578A1.578,1.578,0,0,1-135.092-36.843Z" transform="translate(146.666 40)" fill="none" stroke="#000" stroke-linecap="round" stroke-linejoin="round" stroke-miterlimit="10" stroke-width="1"/>
          </g>
          <g id="g5593" transform="translate(16.94 36.192)">
            <path id="path5595" d="M0,0V2.787" fill="none" stroke="#000" stroke-linecap="round" stroke-linejoin="round" stroke-miterlimit="10" stroke-width="1"/>
          </g>
          <g id="g5597" transform="translate(9.049 36.192)">
            <path id="path5599" d="M0-32.525v-2.787" transform="translate(0 35.312)" fill="none" stroke="#000" stroke-linecap="round" stroke-linejoin="round" stroke-miterlimit="10" stroke-width="1"/>
          </g>
          <g id="g5601" transform="translate(0.789 45.244)">
            <path id="path5603" d="M-6.141,0a.526.526,0,0,0-.526.526v2.1a.526.526,0,0,0,.526.526H45.1a.526.526,0,0,0,.526-.526V.526A.526.526,0,0,0,45.1,0Z" transform="translate(6.667 0)" fill="none" stroke="#000" stroke-linecap="round" stroke-linejoin="round" stroke-miterlimit="10" stroke-width="1"/>
          </g>
          <g id="g5605" transform="translate(12.995 17.466)">
            <path id="path5607" d="M0-179.308V-194.67" transform="translate(0 194.67)" fill="none" stroke="#000" stroke-linecap="round" stroke-linejoin="round" stroke-miterlimit="10" stroke-width="1"/>
          </g>
          <g id="g5609" transform="translate(5.84 20.623)">
            <path id="path5611" d="M-6.141,0H-3.3A3.788,3.788,0,0,1,.488,3.788v.526H-2.879A3.788,3.788,0,0,1-6.667.526.526.526,0,0,1-6.141,0Z" transform="translate(6.667 0)" fill="none" stroke="#000" stroke-linecap="round" stroke-linejoin="round" stroke-miterlimit="10" stroke-width="1"/>
          </g>
          <g id="g5613" transform="translate(12.995 20.623)">
            <path id="path5615" d="M-77.371,0h-2.841A3.788,3.788,0,0,0-84,3.788v.526h3.367A3.788,3.788,0,0,0-76.845.526.526.526,0,0,0-77.371,0Z" transform="translate(84 0)" fill="none" stroke="#000" stroke-linecap="round" stroke-linejoin="round" stroke-miterlimit="10" stroke-width="1"/>
          </g>
          <g id="g5617" transform="translate(7.418 13.152)">
            <path id="path5619" d="M-6.141,0h1.263A3.788,3.788,0,0,1-1.09,3.788v.526H-2.879A3.788,3.788,0,0,1-6.667.526.526.526,0,0,1-6.141,0Z" transform="translate(6.667 0)" fill="none" stroke="#000" stroke-linecap="round" stroke-linejoin="round" stroke-miterlimit="10" stroke-width="1"/>
          </g>
          <g id="g5621" transform="translate(12.995 13.152)">
            <path id="path5623" d="M-58.949,0h-1.263A3.788,3.788,0,0,0-64,3.788v.526h1.789A3.788,3.788,0,0,0-58.423.526.526.526,0,0,0-58.949,0Z" transform="translate(64 0)" fill="none" stroke="#000" stroke-linecap="round" stroke-linejoin="round" stroke-miterlimit="10" stroke-width="1"/>
          </g>
          <g id="g5625" transform="translate(26.252 35.985)">
            <path id="path5627" d="M-284.922-105.485v-7.985a1.052,1.052,0,0,0-1.052-1.052H-308.28a1.052,1.052,0,0,0-1.052,1.052v8.021" transform="translate(309.333 114.522)" fill="none" stroke="#000" stroke-linecap="round" stroke-linejoin="round" stroke-miterlimit="10" stroke-width="1"/>
          </g>
          <g id="g5629" transform="translate(28.289 29.04)">
            <path id="path5631" d="M0-80.466a10.522,10.522,0,0,0,2.067-6.263v-.1a.526.526,0,0,1,.526-.526h4a.526.526,0,0,1,.526.526v.1a10.522,10.522,0,0,0,2.067,6.263" transform="translate(0 87.36)" fill="none" stroke="#000" stroke-linecap="round" stroke-linejoin="round" stroke-miterlimit="10" stroke-width="1"/>
          </g>
          <g id="g5633" transform="translate(39.442 29.04)">
            <path id="path5635" d="M-107.2-80.466a10.522,10.522,0,0,1-2.067-6.263v-.1a.526.526,0,0,0-.526-.526h-4a.526.526,0,0,0-.526.526v.1a10.522,10.522,0,0,1-2.067,6.263" transform="translate(116.385 87.36)" fill="none" stroke="#000" stroke-linecap="round" stroke-linejoin="round" stroke-miterlimit="10" stroke-width="1"/>
          </g>
          <g id="g5637" transform="translate(40.141 39.141)">
            <path id="path5639" d="M-79.827-34.387H-86.14a.526.526,0,0,1-.526-.526v-1.894a.526.526,0,0,1,.526-.526h6.313a.526.526,0,0,1,.526.526v1.894A.526.526,0,0,1-79.827-34.387Z" transform="translate(86.666 37.333)" fill="none" stroke="#000" stroke-linecap="round" stroke-linejoin="round" stroke-miterlimit="10" stroke-width="1"/>
          </g>
          <g id="g5641" transform="translate(29.409 39.141)">
            <path id="path5643" d="M-79.827-34.387H-86.14a.526.526,0,0,1-.526-.526v-1.894a.526.526,0,0,1,.526-.526h6.313a.526.526,0,0,1,.526.526v1.894A.526.526,0,0,1-79.827-34.387Z" transform="translate(86.666 37.333)" fill="none" stroke="#000" stroke-linecap="round" stroke-linejoin="round" stroke-miterlimit="10" stroke-width="1"/>
          </g>
          <g id="g5645" transform="translate(28.146 11.785)">
            <path id="path5647" d="M-210.006-92.108h-.086a.2.2,0,0,1-.189-.289,3.145,3.145,0,0,0,.274-1.368,3.173,3.173,0,0,0-2.944-3.072,3.157,3.157,0,0,0-1.308.189.2.2,0,0,1-.272-.19q0-.132-.011-.267A3.175,3.175,0,0,0-217.578-100a3.157,3.157,0,0,0-3.266,3.155v0a.2.2,0,0,1-.269.194,3.157,3.157,0,0,0-1.31-.19,3.173,3.173,0,0,0-2.944,3.072,3.145,3.145,0,0,0,.274,1.368.2.2,0,0,1-.189.289h-.086a2.63,2.63,0,0,0-2.63,2.7,2.7,2.7,0,0,0,2.7,2.561,2,2,0,0,1,1.685.924l.176.274a.211.211,0,0,0,.354,0l.176-.274a2.012,2.012,0,0,1,1.692-.924h7.127a1.894,1.894,0,0,1,1.593.87l.211.328a.211.211,0,0,0,.354,0l.211-.328a1.894,1.894,0,0,1,1.593-.87h.064a2.678,2.678,0,0,0,2.689-2.681A2.63,2.63,0,0,0-210.006-92.108Z" transform="translate(227.999 99.999)" fill="none" stroke="#000" stroke-linecap="round" stroke-linejoin="round" stroke-miterlimit="10" stroke-width="1"/>
          </g>
          <g id="g5649" transform="translate(21.517 42.088)">
            <path id="path5651" d="M0,0H4.735" fill="none" stroke="#000" stroke-linecap="round" stroke-linejoin="round" stroke-miterlimit="10" stroke-width="1"/>
          </g>
        </g>
      </g>
    </g>
  </g>
</svg>
