<svg xmlns="http://www.w3.org/2000/svg" xmlns:xlink="http://www.w3.org/1999/xlink" width="124.002" height="124.002" viewBox="0 0 124.002 124.002">
  <defs>
    <filter id="Trazado_896985" x="0" y="0" width="124.002" height="124.002" filterUnits="userSpaceOnUse">
      <feOffset dy="3" input="SourceAlpha"/>
      <feGaussianBlur stdDeviation="3" result="blur"/>
      <feFlood flood-opacity="0.161"/>
      <feComposite operator="in" in2="blur"/>
      <feComposite in="SourceGraphic"/>
    </filter>
  </defs>
  <g id="Grupo_1114120" data-name="Grupo 1114120" transform="translate(-323.997 -6778.898)">
    <g id="Grupo_1098742" data-name="Grupo 1098742" transform="translate(332.997 6784.898)">
      <g transform="matrix(1, 0, 0, 1, -9, -6)" filter="url(#Trazado_896985)">
        <g id="Trazado_896985-2" data-name="Trazado 896985" transform="translate(9 6)" fill="#f7eca4">
          <path d="M 53.00102615356445 104.502197265625 C 46.04776763916016 104.502197265625 39.30329895019531 103.1407241821289 32.9549674987793 100.4556121826172 C 26.82244110107422 97.86177062988281 21.31455421447754 94.14815521240234 16.58429718017578 89.41790008544922 C 11.85405445098877 84.68765258789062 8.140425682067871 79.17977142333984 5.54658317565918 73.0472412109375 C 2.861469030380249 66.69889831542969 1.499997615814209 59.95442581176758 1.499997615814209 53.00117111206055 C 1.499997615814209 46.04777145385742 2.861469030380249 39.30329895019531 5.54658317565918 32.95497131347656 C 8.140425682067871 26.82244110107422 11.85405445098877 21.31455612182617 16.58429718017578 16.58429908752441 C 21.31455421447754 11.85405540466309 26.82244110107422 8.140427589416504 32.9549674987793 5.546584129333496 C 39.30329895019531 2.861469984054565 46.04776763916016 1.499998688697815 53.00102615356445 1.499998688697815 C 59.95428466796875 1.499998688697815 66.69875335693359 2.861469984054565 73.04709625244141 5.546584129333496 C 79.17962646484375 8.140427589416504 84.68751525878906 11.85405540466309 89.41775512695312 16.58429908752441 C 94.14801025390625 21.31455612182617 97.86162567138672 26.82244110107422 100.4554672241211 32.95497131347656 C 103.1405868530273 39.30329895019531 104.5020523071289 46.04777145385742 104.5020523071289 53.00102615356445 C 104.5020523071289 59.95442581176758 103.1405868530273 66.69889831542969 100.4554672241211 73.0472412109375 C 97.86162567138672 79.17977142333984 94.14801025390625 84.68765258789062 89.41775512695312 89.41790008544922 C 84.68751525878906 94.14815521240234 79.17962646484375 97.86177062988281 73.04709625244141 100.4556121826172 C 66.69875335693359 103.1407241821289 59.95428466796875 104.502197265625 53.00102615356445 104.502197265625 Z" stroke="none"/>
          <path d="M 53.00102615356445 3 C 46.24961090087891 3 39.70172882080078 4.321601867675781 33.53929138183594 6.9281005859375 C 27.58555603027344 9.446311950683594 22.23792266845703 13.05197906494141 17.64495849609375 17.64496612548828 C 13.05197906494141 22.23793029785156 9.446311950683594 27.58556365966797 6.928092956542969 33.53929901123047 C 4.32159423828125 39.70172882080078 2.999992370605469 46.24961471557617 2.999992370605469 53.00116348266602 C 2.999992370605469 59.75258255004883 4.32159423828125 66.30046081542969 6.928092956542969 72.46289825439453 C 9.446311950683594 78.41663360595703 13.05197906494141 83.76426696777344 17.64495849609375 88.35723114013672 C 22.23792266845703 92.95021820068359 27.58555603027344 96.55587768554688 33.53929138183594 99.0740966796875 C 39.70172882080078 101.6805953979492 46.24961090087891 103.002197265625 53.00102615356445 103.002197265625 C 59.75244140625 103.002197265625 66.30032348632812 101.6805953979492 72.46276092529297 99.0740966796875 C 78.41648864746094 96.55587768554688 83.76410675048828 92.95021820068359 88.35709381103516 88.35723114013672 C 92.95005798339844 83.76426696777344 96.55574035644531 78.41663360595703 99.07394409179688 72.46289825439453 C 101.6804428100586 66.30046081542969 103.0020446777344 59.75258255004883 103.0020446777344 53.00103378295898 C 103.0020446777344 46.24961471557617 101.6804428100586 39.70172882080078 99.07394409179688 33.53929901123047 C 96.55574035644531 27.58556365966797 92.95005798339844 22.23793029785156 88.35709381103516 17.64496612548828 C 83.76410675048828 13.05197906494141 78.41648864746094 9.446311950683594 72.46276092529297 6.9281005859375 C 66.30032348632812 4.321601867675781 59.75244140625 3 53.00102615356445 3 M 53.00102615356445 0 C 82.27268981933594 0 106.0020446777344 23.72936248779297 106.0020446777344 53.00103378295898 L 106.0020446777344 53.00116348266602 C 106.0020446777344 82.27283477783203 82.27268981933594 106.002197265625 53.00102615356445 106.002197265625 C 23.72936248779297 106.002197265625 -7.62939453125e-06 82.27283477783203 -7.62939453125e-06 53.00116348266602 L -7.62939453125e-06 53.00103378295898 C -7.62939453125e-06 23.72936248779297 23.72936248779297 0 53.00102615356445 0 Z" stroke="none" fill="#fff"/>
        </g>
      </g>
      <g id="Rectángulo_400907" data-name="Rectángulo 400907" transform="translate(0)" fill="none" stroke="#fff" stroke-width="3">
        <rect width="106.002" height="106.002" rx="53.001" stroke="none"/>
        <rect x="1.5" y="1.5" width="103.002" height="103.002" rx="51.501" fill="none"/>
      </g>
    </g>
    <g id="Layer_x0020_1" transform="translate(350.318 6802.218)">
      <path id="Trazado_1000005" data-name="Trazado 1000005" d="M58.918,69.363H12.436A10.437,10.437,0,0,1,2,58.928V12.445A10.445,10.445,0,0,1,12.436,2H58.918A10.453,10.453,0,0,1,69.363,12.445V58.928A10.445,10.445,0,0,1,58.918,69.363ZM12.436,3.583a8.865,8.865,0,0,0-8.853,8.862V58.928a8.863,8.863,0,0,0,8.853,8.853H58.918a8.863,8.863,0,0,0,8.853-8.853V12.445a8.853,8.853,0,0,0-8.853-8.862Z" fill-rule="evenodd"/>
      <path id="Trazado_1000006" data-name="Trazado 1000006" d="M822.61,826.748H776.128A3.176,3.176,0,0,1,773,823.61V777.128A3.168,3.168,0,0,1,776.128,774H822.61a3.168,3.168,0,0,1,3.128,3.128V823.61A3.176,3.176,0,0,1,822.61,826.748Zm-46.482-51.174a1.574,1.574,0,0,0-1.554,1.554V823.61a1.574,1.574,0,0,0,1.554,1.554H822.61a1.574,1.574,0,0,0,1.554-1.554V777.128a1.574,1.574,0,0,0-1.554-1.554Z" transform="translate(-763.692 -764.683)" fill-rule="evenodd"/>
      <path id="Trazado_1000007" data-name="Trazado 1000007" d="M1666.95,2076.418a.791.791,0,0,1-.777-.967l3.109-13.668-9.829-4.038a.8.8,0,0,1-.4-1.118l8.806-15.8a.787.787,0,0,1,1.441.607l-3.393,12.1,9.782,4.019a.8.8,0,0,1,.408,1.081l-8.445,17.355A.761.761,0,0,1,1666.95,2076.418Zm-6.066-19.791,9.63,3.962a.789.789,0,0,1,.474.9l-1.734,7.64,5.08-10.436-9.658-3.971a.805.805,0,0,1-.464-.948l1.782-6.322Z" transform="translate(-1641.254 -2019.102)" fill-rule="evenodd"/>
      <path id="Trazado_1000008" data-name="Trazado 1000008" d="M3200.329,1333.665a.784.784,0,0,1-.777-.957l3.64-16.037-11.564-4.749a.791.791,0,0,1-.388-1.118l10.246-18.417a.792.792,0,0,1,1.45.606l-3.99,14.208,11.5,4.73a.8.8,0,0,1,.408,1.081l-9.81,20.208A.785.785,0,0,1,3200.329,1333.665Zm-7.251-22.871,11.355,4.663a.817.817,0,0,1,.474.91l-2.275,10,6.474-13.3-11.384-4.682a.805.805,0,0,1-.464-.948l2.37-8.427Z" transform="translate(-3158.907 -1277.752)" fill-rule="evenodd"/>
      <path id="Trazado_1000009" data-name="Trazado 1000009" d="M3396,2045.781l11.355,4.664a.816.816,0,0,1,.474.91l-2.275,10,6.474-13.3-11.384-4.682a.8.8,0,0,1-.464-.948l2.37-8.426Z" transform="translate(-3361.83 -2012.74)" fill="#fca815" fill-rule="evenodd"/>
      <path id="Trazado_1000010" data-name="Trazado 1000010" d="M1875.45,2793.241l-9.658-3.971a.805.805,0,0,1-.465-.948l1.782-6.322-5.109,9.175,9.63,3.962a.788.788,0,0,1,.474.9l-1.734,7.64Z" transform="translate(-1842.37 -2753.65)" fill="#fca815" fill-rule="evenodd"/>
      <path id="Trazado_1000011" data-name="Trazado 1000011" d="M962.961,968.644,954.516,986a.762.762,0,0,1-.7.427.792.792,0,0,1-.777-.967l3.109-13.668-9.829-4.038a.8.8,0,0,1-.4-1.118l8.805-15.8a.787.787,0,0,1,1.441.607l-3.393,12.1,9.782,4.019A.8.8,0,0,1,962.961,968.644Zm5.8,15.422,3.64-16.038-11.564-4.749a.791.791,0,0,1-.389-1.118L970.7,943.744a.792.792,0,0,1,1.45.607l-3.99,14.208,11.5,4.73a.8.8,0,0,1,.408,1.081l-9.81,20.208a.793.793,0,0,1-1.488-.512Zm-28.208,5.526h46.482a1.574,1.574,0,0,0,1.554-1.554V941.555A1.574,1.574,0,0,0,987.037,940H940.555A1.574,1.574,0,0,0,939,941.555v46.482A1.574,1.574,0,0,0,940.555,989.591Z" transform="translate(-928.119 -929.109)" fill="#eef0fc" fill-rule="evenodd"/>
      <path id="Trazado_1000012" data-name="Trazado 1000012" d="M227.463,177.862v46.482a3.177,3.177,0,0,1-3.128,3.137H177.853a3.176,3.176,0,0,1-3.128-3.137V177.862a3.168,3.168,0,0,1,3.128-3.128h46.482A3.168,3.168,0,0,1,227.463,177.862ZM177.853,233.2h46.482a8.863,8.863,0,0,0,8.853-8.853V177.862A8.853,8.853,0,0,0,224.335,169H177.853A8.865,8.865,0,0,0,169,177.862v46.482A8.863,8.863,0,0,0,177.853,233.2Z" transform="translate(-165.417 -165.417)" fill="#fa3c48" fill-rule="evenodd"/>
    </g>
  </g>
</svg>
