<svg xmlns="http://www.w3.org/2000/svg" xmlns:xlink="http://www.w3.org/1999/xlink" width="124.002" height="124.002" viewBox="0 0 124.002 124.002">
  <defs>
    <filter id="Trazado_896985" x="0" y="0" width="124.002" height="124.002" filterUnits="userSpaceOnUse">
      <feOffset dy="3" input="SourceAlpha"/>
      <feGaussianBlur stdDeviation="3" result="blur"/>
      <feFlood flood-opacity="0.161"/>
      <feComposite operator="in" in2="blur"/>
      <feComposite in="SourceGraphic"/>
    </filter>
  </defs>
  <g id="Grupo_1114172" data-name="Grupo 1114172" transform="translate(-740.32 -6778.898)">
    <g id="Grupo_1098742" data-name="Grupo 1098742" transform="translate(749.32 6784.898)">
      <g transform="matrix(1, 0, 0, 1, -9, -6)" filter="url(#Trazado_896985)">
        <g id="Trazado_896985-2" data-name="Trazado 896985" transform="translate(9 6)" fill="#f7eca4">
          <path d="M 53.00102615356445 104.502197265625 C 46.04776763916016 104.502197265625 39.30329895019531 103.1407241821289 32.9549674987793 100.4556121826172 C 26.82244110107422 97.86177062988281 21.31455421447754 94.14815521240234 16.58429718017578 89.41790008544922 C 11.85405445098877 84.68765258789062 8.140425682067871 79.17977142333984 5.54658317565918 73.0472412109375 C 2.861469030380249 66.69889831542969 1.499997615814209 59.95442581176758 1.499997615814209 53.00117111206055 C 1.499997615814209 46.04777145385742 2.861469030380249 39.30329895019531 5.54658317565918 32.95497131347656 C 8.140425682067871 26.82244110107422 11.85405445098877 21.31455612182617 16.58429718017578 16.58429908752441 C 21.31455421447754 11.85405540466309 26.82244110107422 8.140427589416504 32.9549674987793 5.546584129333496 C 39.30329895019531 2.861469984054565 46.04776763916016 1.499998688697815 53.00102615356445 1.499998688697815 C 59.95428466796875 1.499998688697815 66.69875335693359 2.861469984054565 73.04709625244141 5.546584129333496 C 79.17962646484375 8.140427589416504 84.68751525878906 11.85405540466309 89.41775512695312 16.58429908752441 C 94.14801025390625 21.31455612182617 97.86162567138672 26.82244110107422 100.4554672241211 32.95497131347656 C 103.1405868530273 39.30329895019531 104.5020523071289 46.04777145385742 104.5020523071289 53.00102615356445 C 104.5020523071289 59.95442581176758 103.1405868530273 66.69889831542969 100.4554672241211 73.0472412109375 C 97.86162567138672 79.17977142333984 94.14801025390625 84.68765258789062 89.41775512695312 89.41790008544922 C 84.68751525878906 94.14815521240234 79.17962646484375 97.86177062988281 73.04709625244141 100.4556121826172 C 66.69875335693359 103.1407241821289 59.95428466796875 104.502197265625 53.00102615356445 104.502197265625 Z" stroke="none"/>
          <path d="M 53.00102615356445 3 C 46.24961090087891 3 39.70172882080078 4.321601867675781 33.53929138183594 6.9281005859375 C 27.58555603027344 9.446311950683594 22.23792266845703 13.05197906494141 17.64495849609375 17.64496612548828 C 13.05197906494141 22.23793029785156 9.446311950683594 27.58556365966797 6.928092956542969 33.53929901123047 C 4.32159423828125 39.70172882080078 2.999992370605469 46.24961471557617 2.999992370605469 53.00116348266602 C 2.999992370605469 59.75258255004883 4.32159423828125 66.30046081542969 6.928092956542969 72.46289825439453 C 9.446311950683594 78.41663360595703 13.05197906494141 83.76426696777344 17.64495849609375 88.35723114013672 C 22.23792266845703 92.95021820068359 27.58555603027344 96.55587768554688 33.53929138183594 99.0740966796875 C 39.70172882080078 101.6805953979492 46.24961090087891 103.002197265625 53.00102615356445 103.002197265625 C 59.75244140625 103.002197265625 66.30032348632812 101.6805953979492 72.46276092529297 99.0740966796875 C 78.41648864746094 96.55587768554688 83.76410675048828 92.95021820068359 88.35709381103516 88.35723114013672 C 92.95005798339844 83.76426696777344 96.55574035644531 78.41663360595703 99.07394409179688 72.46289825439453 C 101.6804428100586 66.30046081542969 103.0020446777344 59.75258255004883 103.0020446777344 53.00103378295898 C 103.0020446777344 46.24961471557617 101.6804428100586 39.70172882080078 99.07394409179688 33.53929901123047 C 96.55574035644531 27.58556365966797 92.95005798339844 22.23793029785156 88.35709381103516 17.64496612548828 C 83.76410675048828 13.05197906494141 78.41648864746094 9.446311950683594 72.46276092529297 6.9281005859375 C 66.30032348632812 4.321601867675781 59.75244140625 3 53.00102615356445 3 M 53.00102615356445 0 C 82.27268981933594 0 106.0020446777344 23.72936248779297 106.0020446777344 53.00103378295898 L 106.0020446777344 53.00116348266602 C 106.0020446777344 82.27283477783203 82.27268981933594 106.002197265625 53.00102615356445 106.002197265625 C 23.72936248779297 106.002197265625 -7.62939453125e-06 82.27283477783203 -7.62939453125e-06 53.00116348266602 L -7.62939453125e-06 53.00103378295898 C -7.62939453125e-06 23.72936248779297 23.72936248779297 0 53.00102615356445 0 Z" stroke="none" fill="#fff"/>
        </g>
      </g>
      <g id="Rectángulo_400907" data-name="Rectángulo 400907" transform="translate(-0.27 0.001)" fill="none" stroke="#fff" stroke-width="3">
        <rect width="106" height="106" rx="53" stroke="none"/>
        <rect x="1.5" y="1.5" width="103" height="103" rx="51.5" fill="none"/>
      </g>
    </g>
    <g id="Grupo_1114154" data-name="Grupo 1114154" transform="translate(764.156 6798.999)">
      <g id="Grupo_1114127" data-name="Grupo 1114127" transform="translate(0.997 4.21)">
        <g id="Grupo_1114121" data-name="Grupo 1114121" transform="translate(0.003 7.411)">
          <path id="Trazado_1000013" data-name="Trazado 1000013" d="M70.826,23.94c-4.133-1.928-9.037-1.06-13.363,1.868a12.085,12.085,0,0,1-9.278,1.783.512.512,0,0,0-.133-.024,12.276,12.276,0,0,1-8.76-7.579,14.941,14.941,0,0,0-7.471-8.362c-9.218-4.29-21.568,2.687-27.581,15.6s-3.422,26.846,5.8,31.136c4.687,2.181,10.182,1.446,15.243-1.494a21.831,21.831,0,0,1,15.809-2.579c.578.133,1.157.265,1.747.4A23.071,23.071,0,0,1,51.8,59.148,10.716,10.716,0,0,0,53.849,60.4c7.338,3.422,17.1-1.964,21.785-12.025s2.542-21.014-4.808-24.436Z" transform="translate(-1 -10.361)" fill="#c9c294"/>
        </g>
        <g id="Grupo_1114122" data-name="Grupo 1114122" transform="translate(0 12.266)">
          <path id="Trazado_1000014" data-name="Trazado 1000014" d="M58.657,54.756A10.14,10.14,0,0,1,56.609,53.5a23.238,23.238,0,0,0-8.965-4.458c-.578-.133-1.157-.265-1.747-.4a21.89,21.89,0,0,0-15.809,2.579c-5.061,2.94-10.555,3.675-15.243,1.494C5.628,48.43,3.037,34.476,9.05,21.571a34.783,34.783,0,0,1,4.47-7.181,33.257,33.257,0,0,0-9.29,12c-6,12.917-3.41,26.858,5.808,31.148,4.687,2.181,10.182,1.446,15.243-1.494a21.831,21.831,0,0,1,15.809-2.579c.578.133,1.157.265,1.747.4A23.071,23.071,0,0,1,51.8,58.322a10.716,10.716,0,0,0,2.048,1.253c6.061,2.82,13.748-.361,18.893-7.206-4.506,3.314-9.712,4.41-14.086,2.386Z" transform="translate(-0.997 -14.39)" fill="#c9c294"/>
        </g>
        <g id="Grupo_1114125" data-name="Grupo 1114125" transform="translate(2.955)">
          <g id="Grupo_1114123" data-name="Grupo 1114123" transform="translate(62.368)">
            <circle id="Elipse_12029" data-name="Elipse 12029" cx="4.82" cy="4.82" r="4.82" fill="#c9c294"/>
          </g>
          <g id="Grupo_1114124" data-name="Grupo 1114124" transform="translate(0 59.741)">
            <circle id="Elipse_12030" data-name="Elipse 12030" cx="4.82" cy="4.82" r="4.82" fill="#c9c294"/>
          </g>
        </g>
        <g id="Grupo_1114126" data-name="Grupo 1114126" transform="translate(24.982 12.183)">
          <path id="Trazado_1000015" data-name="Trazado 1000015" d="M69.2,32.273a9.586,9.586,0,0,0-2.313-4.265A7,7,0,0,0,62.3,25.887a10.477,10.477,0,0,0-4.856.928,13.881,13.881,0,0,0-2.121,1.157,17.124,17.124,0,0,1-1.807,1.048A15.484,15.484,0,0,1,49.6,30.346,16.353,16.353,0,0,1,34.406,25.49a17,17,0,0,1-2.482-3.422A29.2,29.2,0,0,0,29.731,18.1a9.638,9.638,0,0,0-3.555-2.976,8.634,8.634,0,0,0-4.446-.771,9.04,9.04,0,0,1,4.121,1.362,9.237,9.237,0,0,1,2.9,3.049,30.373,30.373,0,0,1,1.771,4.012,17.731,17.731,0,0,0,2.482,3.952A17.274,17.274,0,0,0,40.7,32.069a18.047,18.047,0,0,0,9.4.639,17.683,17.683,0,0,0,4.494-1.591A20.2,20.2,0,0,0,56.625,29.9,14.383,14.383,0,0,1,58.4,28.876a8.241,8.241,0,0,1,3.784-.9,5.326,5.326,0,0,1,3.41,1.374c1.9,1.771,2.759,4.7,2.856,7.543a21.948,21.948,0,0,1-.289,4.338A28.4,28.4,0,0,1,67.012,45.5a22.449,22.449,0,0,0,1.8-4.121,20.71,20.71,0,0,0,.819-4.482,14.371,14.371,0,0,0-.422-4.627Z" transform="translate(-21.73 -14.321)" fill="#9f9c83"/>
        </g>
      </g>
      <g id="Grupo_1114153" data-name="Grupo 1114153" transform="translate(11.327 6.695)">
        <g id="Grupo_1114128" data-name="Grupo 1114128" transform="translate(0.759 0.736)">
          <path id="Trazado_1000016" data-name="Trazado 1000016" d="M33.708,46.076a17.571,17.571,0,0,1,5.1-10.724A16.718,16.718,0,1,0,14.984,35.3a17.644,17.644,0,0,1,5.133,10.76H33.708Z" transform="translate(-10.2 -6.883)" fill="#7cb5e8"/>
        </g>
        <g id="Grupo_1114129" data-name="Grupo 1114129" transform="translate(15.7 0.75)" opacity="0.3">
          <path id="Trazado_1000017" data-name="Trazado 1000017" d="M41.036,22.252A16.837,16.837,0,0,0,25.2,6.913a15.531,15.531,0,0,0-2.6.1v13.58A12.542,12.542,0,0,0,35.143,33.133H38.1A16.753,16.753,0,0,0,41.036,22.252Z" transform="translate(-22.6 -6.894)" fill="#fff"/>
        </g>
        <g id="Grupo_1114130" data-name="Grupo 1114130" transform="translate(8.724 39.929)">
          <path id="Trazado_1000018" data-name="Trazado 1000018" d="M34.294,39.976v3.808a.566.566,0,0,1-.566.566H17.376a.566.566,0,0,1-.566-.566V39.976a.566.566,0,0,1,.566-.566H33.727A.574.574,0,0,1,34.294,39.976Z" transform="translate(-16.81 -39.41)" fill="#4e6575"/>
        </g>
        <g id="Grupo_1114131" data-name="Grupo 1114131" transform="translate(16.062 39.941)" opacity="0.3">
          <path id="Trazado_1000019" data-name="Trazado 1000019" d="M33.046,42.312V39.986a.566.566,0,0,0-.566-.566H22.9v1.47a1.424,1.424,0,0,0,1.422,1.422Z" transform="translate(-22.9 -39.42)" fill="#fff"/>
        </g>
        <g id="Grupo_1114132" data-name="Grupo 1114132" transform="translate(10.748 44.882)">
          <path id="Trazado_1000020" data-name="Trazado 1000020" d="M30.3,48.183H20.129L18.49,43.52H31.925Z" transform="translate(-18.49 -43.52)" fill="#4e6575"/>
        </g>
        <g id="Grupo_1114133" data-name="Grupo 1114133" transform="translate(15.592 44.882)" opacity="0.3">
          <path id="Trazado_1000021" data-name="Trazado 1000021" d="M30.1,46.388l1-2.868H22.51v1.53a1.342,1.342,0,0,0,1.337,1.337Z" transform="translate(-22.51 -43.52)" fill="#fff"/>
        </g>
        <g id="Grupo_1114134" data-name="Grupo 1114134" transform="translate(0 8.388)">
          <path id="Trazado_1000022" data-name="Trazado 1000022" d="M33.838,45.546H20.246a.761.761,0,0,1-.759-.7,17,17,0,0,0-4.916-10.29,17.5,17.5,0,0,1-2.687-20.942.758.758,0,0,1,1.313.759,15.968,15.968,0,0,0,2.458,19.11,18.734,18.734,0,0,1,5.278,10.531h12.23a18.434,18.434,0,0,1,5.241-10.5,16.042,16.042,0,0,0,3.277-4.82.761.761,0,0,1,1.4.6,17.368,17.368,0,0,1-3.591,5.278,16.84,16.84,0,0,0-4.88,10.254.791.791,0,0,1-.771.711Z" transform="translate(-9.57 -13.233)"/>
        </g>
        <g id="Grupo_1114135" data-name="Grupo 1114135" transform="translate(5.026)">
          <path id="Trazado_1000023" data-name="Trazado 1000023" d="M42.815,26.211h-.072a.743.743,0,0,1-.675-.831,16.961,16.961,0,0,0,.036-2.928,16.152,16.152,0,0,0-15.11-14.64,15.85,15.85,0,0,0-11.965,4.543.758.758,0,0,1-1.06-1.084,17.327,17.327,0,0,1,13.11-4.976A17.465,17.465,0,0,1,43.6,25.537a.812.812,0,0,1-.783.675Z" transform="translate(-13.741 -6.272)"/>
        </g>
        <g id="Grupo_1114136" data-name="Grupo 1114136" transform="translate(7.977 39.182)">
          <path id="Trazado_1000024" data-name="Trazado 1000024" d="M33.854,45.248H27.408a.759.759,0,0,1,0-1.518h6.254V40.308H17.708V43.73h6.121a.759.759,0,0,1,0,1.518H17.515a1.329,1.329,0,0,1-1.325-1.325V40.1a1.327,1.327,0,0,1,1.325-1.313H33.866A1.319,1.319,0,0,1,35.192,40.1v3.82A1.332,1.332,0,0,1,33.854,45.248Z" transform="translate(-16.19 -38.79)"/>
        </g>
        <g id="Grupo_1114137" data-name="Grupo 1114137" transform="translate(9.98 44.135)">
          <path id="Trazado_1000025" data-name="Trazado 1000025" d="M30.429,49.081H20.259a.769.769,0,0,1-.723-.506L17.9,43.912a.735.735,0,0,1,.1-.687.755.755,0,0,1,.615-.325h3.747a.759.759,0,0,1,0,1.518H19.681l1.1,3.145h9.1l1.1-3.145H27.356a.759.759,0,0,1,0-1.518h4.687a.763.763,0,0,1,.711,1.012l-1.639,4.663A.691.691,0,0,1,30.429,49.081Z" transform="translate(-17.853 -42.9)"/>
        </g>
        <g id="Grupo_1114138" data-name="Grupo 1114138" transform="translate(48.27 34.893)">
          <path id="Trazado_1000026" data-name="Trazado 1000026" d="M50.389,50.653a.756.756,0,0,1-.759-.759V35.989a.759.759,0,0,1,1.518,0V49.894A.764.764,0,0,1,50.389,50.653Z" transform="translate(-49.63 -35.23)"/>
        </g>
        <g id="Grupo_1114139" data-name="Grupo 1114139" transform="translate(35.208 53.039)">
          <path id="Trazado_1000027" data-name="Trazado 1000027" d="M48.261,61.677H39.549a.759.759,0,1,1,0-1.518h8.712A3.579,3.579,0,0,0,51.84,56.58V51.049a.759.759,0,1,1,1.518,0V56.58a5.091,5.091,0,0,1-5.1,5.1Z" transform="translate(-38.79 -50.29)"/>
        </g>
        <g id="Grupo_1114140" data-name="Grupo 1114140" transform="translate(9.085 48.798)">
          <path id="Trazado_1000028" data-name="Trazado 1000028" d="M37.594,62.4H21.339a4.229,4.229,0,1,1,0-8.459h.687a2.715,2.715,0,0,0,2.711-2.711v-3.7a.759.759,0,1,1,1.518,0v3.687a4.235,4.235,0,0,1-4.229,4.229h-.687a2.711,2.711,0,1,0,0,5.422H37.594a.756.756,0,0,1,.759.759A.774.774,0,0,1,37.594,62.4Z" transform="translate(-17.11 -46.77)"/>
        </g>
        <g id="Grupo_1114141" data-name="Grupo 1114141" transform="translate(42.342 23.904)">
          <path id="Trazado_1000029" data-name="Trazado 1000029" d="M44.71,26.11v5.061a6.687,6.687,0,0,0,13.375,0V26.11Z" transform="translate(-44.71 -26.11)" fill="#ef4a51"/>
        </g>
        <g id="Grupo_1114142" data-name="Grupo 1114142" transform="translate(48.752 23.904)" opacity="0.3">
          <path id="Trazado_1000030" data-name="Trazado 1000030" d="M56.886,32.291a6.8,6.8,0,0,0,.1-1.121V26.11H50.03v4.278A1.913,1.913,0,0,0,51.946,32.3h4.94Z" transform="translate(-50.03 -26.11)" fill="#fff"/>
        </g>
        <g id="Grupo_1114143" data-name="Grupo 1114143" transform="translate(50.089 23.904)" opacity="0.3">
          <path id="Trazado_1000031" data-name="Trazado 1000031" d="M51.14,26.11a1.563,1.563,0,0,0,1.566,1.566h2.422v1.217a1.563,1.563,0,0,0,1.566,1.566h.072V26.11Z" transform="translate(-51.14 -26.11)" fill="#fff"/>
        </g>
        <g id="Grupo_1114144" data-name="Grupo 1114144" transform="translate(41.583 23.145)">
          <path id="Trazado_1000032" data-name="Trazado 1000032" d="M51.527,38.746A7.435,7.435,0,0,1,46.731,37a.761.761,0,1,1,.976-1.169A5.927,5.927,0,0,0,57.443,31.3V27H45.586v4.3a6.076,6.076,0,0,0,.169,1.4.757.757,0,1,1-1.47.361,7.237,7.237,0,0,1-.2-1.759V26.239a.756.756,0,0,1,.759-.759H58.214a.756.756,0,0,1,.759.759V31.3a7.451,7.451,0,0,1-7.447,7.447Z" transform="translate(-44.08 -25.48)"/>
        </g>
        <g id="Grupo_1114147" data-name="Grupo 1114147" transform="translate(44.571 16.819)">
          <g id="Grupo_1114145" data-name="Grupo 1114145">
            <path id="Trazado_1000033" data-name="Trazado 1000033" d="M47.319,28.074a.756.756,0,0,1-.759-.759V20.989a.759.759,0,0,1,1.518,0v6.326A.756.756,0,0,1,47.319,28.074Z" transform="translate(-46.56 -20.23)"/>
          </g>
          <g id="Grupo_1114146" data-name="Grupo 1114146" transform="translate(7.386)">
            <path id="Trazado_1000034" data-name="Trazado 1000034" d="M53.449,28.074a.756.756,0,0,1-.759-.759V20.989a.759.759,0,1,1,1.518,0v6.326A.756.756,0,0,1,53.449,28.074Z" transform="translate(-52.69 -20.23)"/>
          </g>
        </g>
        <g id="Grupo_1114148" data-name="Grupo 1114148" transform="translate(10.495 10.493)">
          <path id="Trazado_1000035" data-name="Trazado 1000035" d="M22.823,14.98h6.868l-2.964,6.013H33L21.063,34.681l2.422-8.676H18.28Z" transform="translate(-18.28 -14.98)" fill="#ffab03"/>
        </g>
        <g id="Grupo_1114149" data-name="Grupo 1114149" transform="translate(9.738 9.709)">
          <path id="Trazado_1000036" data-name="Trazado 1000036" d="M21.192,35.573a.653.653,0,0,1-.361-.1.764.764,0,0,1-.374-.88l2.157-7.712H18.409a.727.727,0,0,1-.627-.337.745.745,0,0,1-.072-.711l2.446-6.1a.76.76,0,1,1,1.41.566l-2.036,5.049h4.085a.742.742,0,0,1,.6.3.771.771,0,0,1,.133.663l-1.518,5.434,8.639-9.893H26.855A.763.763,0,0,1,26.2,21.5a.731.731,0,0,1-.036-.735l2.422-4.916H23.445l-.639,1.566a.756.756,0,0,1-1.4-.578L22.24,14.8a.757.757,0,0,1,.7-.47h6.868a.763.763,0,0,1,.651.361.731.731,0,0,1,.036.735l-2.422,4.916h5.061a.738.738,0,0,1,.687.446.781.781,0,0,1-.12.819L21.746,35.3a.663.663,0,0,1-.554.277Z" transform="translate(-17.652 -14.33)"/>
        </g>
        <g id="Grupo_1114152" data-name="Grupo 1114152" transform="translate(45.643 26.591)">
          <g id="Grupo_1114150" data-name="Grupo 1114150">
            <path id="Trazado_1000037" data-name="Trazado 1000037" d="M53.463,29.858H48.209a.759.759,0,1,1,0-1.518h5.254a.756.756,0,0,1,.759.759A.764.764,0,0,1,53.463,29.858Z" transform="translate(-47.45 -28.34)"/>
          </g>
          <g id="Grupo_1114151" data-name="Grupo 1114151" transform="translate(0.88 3.735)">
            <path id="Trazado_1000038" data-name="Trazado 1000038" d="M52.433,32.958H48.939a.759.759,0,1,1,0-1.518h3.494a.756.756,0,0,1,.759.759A.764.764,0,0,1,52.433,32.958Z" transform="translate(-48.18 -31.44)"/>
          </g>
        </g>
      </g>
    </g>
  </g>
</svg>
