<svg xmlns="http://www.w3.org/2000/svg" xmlns:xlink="http://www.w3.org/1999/xlink" width="139.982" height="139.982" viewBox="0 0 139.982 139.982">
  <defs>
    <filter id="Trazado_896985" x="0" y="0" width="139.982" height="139.982" filterUnits="userSpaceOnUse">
      <feOffset dy="3" input="SourceAlpha"/>
      <feGaussianBlur stdDeviation="3" result="blur"/>
      <feFlood flood-opacity="0.161"/>
      <feComposite operator="in" in2="blur"/>
      <feComposite in="SourceGraphic"/>
    </filter>
  </defs>
  <g id="Grupo_1114171" data-name="Grupo 1114171" transform="translate(-1252.018 -7191.805)">
    <g id="Grupo_1098742" data-name="Grupo 1098742" transform="translate(1261.018 7197.805)">
      <g transform="matrix(1, 0, 0, 1, -9, -6)" filter="url(#Trazado_896985)">
        <g id="Trazado_896985-2" data-name="Trazado 896985" transform="translate(9 6)" fill="#f7eca4">
          <path d="M 60.99112701416016 120.482421875 C 52.95920944213867 120.482421875 45.16836166381836 118.9096908569336 37.8349609375 115.8079376220703 C 34.3101921081543 114.3170700073242 30.91042709350586 112.4717407226562 27.73012733459473 110.3231582641602 C 24.57964324951172 108.1947402954102 21.61702728271484 105.7503433227539 18.924560546875 103.0578765869141 C 16.23209381103516 100.3654098510742 13.78769397735596 97.40279388427734 11.65927696228027 94.25230407714844 C 9.510693550109863 91.07200622558594 7.665360450744629 87.6722412109375 6.174493789672852 84.14747619628906 C 3.072743654251099 76.81407165527344 1.500010371208191 69.02320861816406 1.500010371208191 60.99129104614258 C 1.500010371208191 52.95920562744141 3.072743654251099 45.16835784912109 6.174493789672852 37.83495712280273 C 7.665360450744629 34.3101921081543 9.510693550109863 30.91042327880859 11.65927696228027 27.73012351989746 C 13.78769397735596 24.57964134216309 16.23209381103516 21.61702346801758 18.924560546875 18.92455673217773 C 21.61702728271484 16.23208999633789 24.57964324951172 13.78769016265869 27.73012733459473 11.65927410125732 C 30.91042709350586 9.510690689086914 34.3101921081543 7.665357112884521 37.8349609375 6.174490451812744 C 45.16836166381836 3.07274055480957 52.95920944213867 1.500007152557373 60.99112701416016 1.500007152557373 C 69.02304077148438 1.500007152557373 76.81391143798828 3.07274055480957 84.14730834960938 6.174490451812744 C 87.67207336425781 7.665357112884521 91.07184600830078 9.510690689086914 94.25214385986328 11.65927410125732 C 97.40262603759766 13.78769016265869 100.3652420043945 16.23208999633789 103.0577087402344 18.92455673217773 C 105.7501754760742 21.61702346801758 108.194580078125 24.57964134216309 110.3229904174805 27.73012351989746 C 112.4715805053711 30.91042327880859 114.3169097900391 34.3101921081543 115.8077774047852 37.83495712280273 C 118.9095306396484 45.16835784912109 120.4822616577148 52.95920562744141 120.4822616577148 60.99112319946289 C 120.4822616577148 69.02320861816406 118.9095306396484 76.81407165527344 115.8077774047852 84.14747619628906 C 114.3169097900391 87.6722412109375 112.4715805053711 91.07200622558594 110.3229904174805 94.25230407714844 C 108.194580078125 97.40279388427734 105.7501754760742 100.3654098510742 103.0577087402344 103.0578765869141 C 100.3652420043945 105.7503433227539 97.40262603759766 108.1947402954102 94.25214385986328 110.3231582641602 C 91.07184600830078 112.4717407226562 87.67207336425781 114.3170700073242 84.14730834960938 115.8079376220703 C 76.81391143798828 118.9096908569336 69.02304077148438 120.482421875 60.99112701416016 120.482421875 Z" stroke="none"/>
          <path d="M 60.99112701416016 2.999992370605469 C 53.16105651855469 2.999992370605469 45.56678009033203 4.532844543457031 38.41928863525391 7.555992126464844 C 34.98371124267578 9.009117126464844 31.66987609863281 10.80782318115234 28.56983947753906 12.90219116210938 C 25.49845123291016 14.9771728515625 22.61016082763672 17.36024475097656 19.98519897460938 19.98520660400391 C 17.36023712158203 22.61016845703125 14.97718048095703 25.49845886230469 12.90219879150391 28.56982421875 C 10.80783843994141 31.66987609863281 9.009124755859375 34.98371887207031 7.555999755859375 38.41928100585938 C 4.532852172851562 45.56678771972656 3 53.16106414794922 3 60.99129867553711 C 3 68.82136535644531 4.532852172851562 76.41564178466797 7.555999755859375 83.56313323974609 C 9.009124755859375 86.99870300292969 10.80783843994141 90.31253051757812 12.90219879150391 93.41259002685547 C 14.97718048095703 96.48397064208984 17.36023712158203 99.37224578857422 19.98519897460938 101.9972076416016 C 22.61016082763672 104.6221694946289 25.49845123291016 107.005241394043 28.56981658935547 109.0802230834961 C 31.66987609863281 111.1745681762695 34.98371124267578 112.9732971191406 38.41928863525391 114.4264068603516 C 45.56678009033203 117.4495544433594 53.16105651855469 118.9824066162109 60.99112701416016 118.9824066162109 C 68.82119750976562 118.9824066162109 76.41547393798828 117.4495544433594 83.56295776367188 114.4264068603516 C 86.99855041503906 112.9732971191406 90.3123779296875 111.1745681762695 93.41243743896484 109.0802230834961 C 96.48379516601562 107.005241394043 99.37209320068359 104.6221694946289 101.9970550537109 101.9972076416016 C 104.6220169067383 99.37224578857422 107.0050735473633 96.48397064208984 109.0800552368164 93.41259002685547 C 111.1744155883789 90.31253051757812 112.9731292724609 86.99870300292969 114.4262542724609 83.56313323974609 C 117.4494018554688 76.41564178466797 118.9822540283203 68.82136535644531 118.9822540283203 60.99113464355469 C 118.9822540283203 53.16106414794922 117.4494018554688 45.56678771972656 114.4262542724609 38.41928100585938 C 112.9731292724609 34.98371887207031 111.1744155883789 31.66987609863281 109.0800552368164 28.56982421875 C 107.0050735473633 25.49845886230469 104.6220169067383 22.61016845703125 101.9970550537109 19.98520660400391 C 99.37209320068359 17.36024475097656 96.48379516601562 14.9771728515625 93.41241455078125 12.90219116210938 C 90.3123779296875 10.80782318115234 86.99855041503906 9.009117126464844 83.56295776367188 7.555992126464844 C 76.41547393798828 4.532844543457031 68.82119750976562 2.999992370605469 60.99112701416016 2.999992370605469 M 60.99112701416016 -7.62939453125e-06 C 94.67559814453125 -7.62939453125e-06 121.9822540283203 27.30666351318359 121.9822540283203 60.99113464355469 L 121.9822540283203 60.99129867553711 C 121.9822540283203 94.67576599121094 94.67559814453125 121.9824066162109 60.99112701416016 121.9824066162109 C 27.30665588378906 121.9824066162109 0 94.67576599121094 0 60.99129867553711 L 0 60.99113464355469 C 0 27.30666351318359 27.30665588378906 -7.62939453125e-06 60.99112701416016 -7.62939453125e-06 Z" stroke="none" fill="#fff"/>
        </g>
      </g>
      <g id="Rectángulo_400907" data-name="Rectángulo 400907" transform="translate(0)" fill="none" stroke="#fff" stroke-width="3">
        <rect width="121.982" height="121.982" rx="60.991" stroke="none"/>
        <rect x="1.5" y="1.5" width="118.982" height="118.982" rx="59.491" fill="none"/>
      </g>
    </g>
    <g id="Grupo_1114170" data-name="Grupo 1114170" transform="translate(1232.397 7213.333)">
      <g id="Grupo_1114168" data-name="Grupo 1114168" transform="translate(54.995 1.33)">
        <g id="Grupo_1114167" data-name="Grupo 1114167" transform="translate(0)">
          <path id="Trazado_1000066" data-name="Trazado 1000066" d="M99.873,19.124l-4.663.359a16.02,16.02,0,0,0-4.55-4.363L91,10.671a1.742,1.742,0,0,0-1.29-1.816l-4.851-1.3a1.75,1.75,0,0,0-2.029.93L80.813,12.7a15.937,15.937,0,0,0-6.067,1.741l-3.693-2.521a1.753,1.753,0,0,0-2.224.205l-3.551,3.538a1.737,1.737,0,0,0-.206,2.215l2.642,3.843A15.814,15.814,0,0,0,66.2,27.825l-4.042,1.929a1.739,1.739,0,0,0-.933,2.021l1.3,4.833a1.747,1.747,0,0,0,1.823,1.286l4.663-.359a16.014,16.014,0,0,0,4.55,4.363l-.345,4.449a1.742,1.742,0,0,0,1.29,1.816l4.851,1.3a1.75,1.75,0,0,0,2.029-.93l2.021-4.206a15.938,15.938,0,0,0,6.067-1.741L93.168,45.1a1.753,1.753,0,0,0,2.224-.205l3.551-3.538a1.737,1.737,0,0,0,.206-2.215L96.506,35.3a15.814,15.814,0,0,0,1.513-6.107l4.042-1.928A1.739,1.739,0,0,0,103,25.242l-1.3-4.833a1.747,1.747,0,0,0-1.822-1.286ZM87.36,33.738a7.41,7.41,0,1,1,0-10.46A7.442,7.442,0,0,1,87.36,33.738Z" transform="translate(-61.166 -7.5)" fill="#66a8ff"/>
          <g id="Grupo_1114164" data-name="Grupo 1114164" transform="translate(21.488)">
            <path id="Trazado_1000067" data-name="Trazado 1000067" d="M202.693,25.242l-1.3-4.833a1.747,1.747,0,0,0-1.823-1.286l-4.663.359a16.019,16.019,0,0,0-4.55-4.363l.345-4.449a1.742,1.742,0,0,0-1.29-1.816l-4.851-1.3a1.75,1.75,0,0,0-2.029.93l-.18.375a1.741,1.741,0,0,1,1.258,1.806l-.345,4.449a16.02,16.02,0,0,1,4.55,4.363l4.663-.359a1.747,1.747,0,0,1,1.823,1.286l1.3,4.833a1.739,1.739,0,0,1-.933,2.021l-4.042,1.928a15.814,15.814,0,0,1-1.513,6.107l2.642,3.843a1.737,1.737,0,0,1-.206,2.215l-1.694,1.688,3.012,2.056a1.752,1.752,0,0,0,2.224-.205l3.551-3.538a1.737,1.737,0,0,0,.206-2.215L196.2,35.3a15.814,15.814,0,0,0,1.513-6.107l4.042-1.928a1.74,1.74,0,0,0,.933-2.021Z" transform="translate(-182.352 -7.5)" fill="#4d99ff"/>
          </g>
          <path id="Trazado_1000068" data-name="Trazado 1000068" d="M138.913,68.539l14.114-35.2-.056-.009L107.831,79.639h21.983L113.727,116.2l.056.009L160.9,68.772Z" transform="translate(-99.557 -28.751)" fill="#ffe645"/>
          <path id="Trazado_1000069" data-name="Trazado 1000069" d="M166.27,68.539l14.114-35.2-.056-.009-21.15,35.208,21.983.233L146.674,103.5l-5.59,12.7.056.009,47.113-47.438Z" transform="translate(-126.913 -28.751)" fill="#f5d60c"/>
          <g id="Grupo_1114166" data-name="Grupo 1114166" transform="translate(29.341 48.388)">
            <path id="Trazado_1000070" data-name="Trazado 1000070" d="M251.77,304.872l-24.315,14.442s-4.571-17.835,7.93-30.291c12.241-12.2,30.4-7.9,30.4-7.9Z" transform="translate(-226.64 -280.389)" fill="#58a34e"/>
            <g id="Grupo_1114165" data-name="Grupo 1114165" transform="translate(0.816 0.734)">
              <path id="Trazado_1000071" data-name="Trazado 1000071" d="M269.571,284.526l-38.332,38.192s17.9,4.554,30.4-7.9C273.882,302.62,269.571,284.526,269.571,284.526Z" transform="translate(-231.239 -284.526)" fill="#86db7b"/>
            </g>
            <path id="Trazado_1000072" data-name="Trazado 1000072" d="M289.323,284.526l-6.375,6.351c.19,6.372-.991,16.31-8.648,23.94a30.4,30.4,0,0,1-19.052,8.553c6.063.547,17.418.141,26.145-8.553C293.634,302.62,289.323,284.526,289.323,284.526Z" transform="translate(-250.175 -283.792)" fill="#6dd45f"/>
          </g>
        </g>
      </g>
      <g id="Grupo_1114169" data-name="Grupo 1114169" transform="translate(53.664 0)">
        <path id="Trazado_1000073" data-name="Trazado 1000073" d="M138.674,94.236a8.732,8.732,0,1,0-6.188-2.549A8.74,8.74,0,0,0,138.674,94.236Zm-4.31-13.01a6.119,6.119,0,0,1,8.621,0,6.048,6.048,0,0,1,0,8.576,6.119,6.119,0,0,1-8.621,0,6.048,6.048,0,0,1,0-8.576Z" transform="translate(-116.399 -63.176)" fill="#060606"/>
        <path id="Trazado_1000074" data-name="Trazado 1000074" d="M124.777,50.143a1.352,1.352,0,0,0-.987-.986,39.557,39.557,0,0,0-11.015-.655c-.623.046-1.239.108-1.849.182l6.352-6.4a1.34,1.34,0,0,0-.929-2.267l-20.04-.213L109.7,6.415a1.365,1.365,0,0,0-2.242-1.433L97.233,15.47l-.424-1.577A3.077,3.077,0,0,0,93.6,11.627l-3.924.3a17.376,17.376,0,0,0-3.8-3.653L86.159,4.6a3.072,3.072,0,0,0-2.273-3.2L79.035.1a3.081,3.081,0,0,0-3.57,1.639l-1.7,3.536a17.15,17.15,0,0,0-5.08,1.452L65.631,4.647a3.084,3.084,0,0,0-3.912.362L58.168,8.547a3.067,3.067,0,0,0-.363,3.911L60.447,16.3a1.33,1.33,0,0,0,2.192-1.507L60,10.951a.408.408,0,0,1,.049-.52L63.6,6.893a.422.422,0,0,1,.535-.049l3.693,2.521a1.329,1.329,0,0,0,1.363.081,14.535,14.535,0,0,1,5.561-1.6A1.329,1.329,0,0,0,75.84,7.1L77.862,2.9a.42.42,0,0,1,.487-.221l4.851,1.3a.412.412,0,0,1,.307.429l-.345,4.449a1.33,1.33,0,0,0,.613,1.225,14.7,14.7,0,0,1,4.172,4,1.331,1.331,0,0,0,1.194.567L93.8,14.28a.418.418,0,0,1,.436.3l.834,3.1L71.816,41.545l-3.137-.838a.412.412,0,0,1-.307-.429l.345-4.449a1.33,1.33,0,0,0-.613-1.225,14.693,14.693,0,0,1-4.172-4,1.331,1.331,0,0,0-1.194-.567l-4.663.359a.417.417,0,0,1-.436-.3l-1.3-4.833a.41.41,0,0,1,.222-.476L60.6,22.855a1.33,1.33,0,0,0-1.145-2.4l-4.042,1.928A3.07,3.07,0,0,0,53.77,25.95l1.3,4.833a3.08,3.08,0,0,0,3.209,2.266l3.924-.3A17.376,17.376,0,0,0,66,36.4l-.285,3.673a3.072,3.072,0,0,0,2.273,3.2l1.694.452-7.37,7.56a1.34,1.34,0,0,0,.952,2.258H83.214l-15.266,34.7a1.371,1.371,0,0,0,2.217,1.482L83.237,76.563q-.083.75-.136,1.513a37.4,37.4,0,0,0,.761,10.9,1.35,1.35,0,0,0,.96.959c10.857,2.762,23.7-.313,31.668-8.248a29.2,29.2,0,0,0,3.237-3.836,1.33,1.33,0,0,0-2.173-1.533C110.893,85.757,98.974,89.3,87.9,87.785l7.888-7.86,14-1.113a1.331,1.331,0,0,0-.211-2.651L98.7,77.026l8.668-8.637,6.88-.547a1.331,1.331,0,0,0-.211-2.651l-3.759.3,12.319-12.274a35.826,35.826,0,0,1-1.873,17.158,1.331,1.331,0,0,0,2.482.957,39.264,39.264,0,0,0,1.575-21.187Zm-11.889,1.018a40,40,0,0,1,7.817.181l-12.32,12.275.3-3.749a1.33,1.33,0,0,0-2.651-.212l-.549,6.851-8.679,8.648.869-10.841a1.33,1.33,0,0,0-2.651-.212L93.907,78.043l-7.9,7.869a37.753,37.753,0,0,1-.248-7.738c.55-7.615,3.329-13.967,8.259-18.879,4.826-4.809,11.174-7.546,18.868-8.134ZM83.773,72.25,73.213,82.883,86.47,52.754a1.33,1.33,0,0,0-1.217-1.866H66.422l6.765-6.94,0,0L104.778,11.54,93.117,40.623a1.33,1.33,0,0,0,1.22,1.825l18.836.2-6.713,6.759a1.312,1.312,0,0,0-.108.124,29.93,29.93,0,0,0-22.325,22.52,1.315,1.315,0,0,0-.253.2Z" transform="translate(-53.664 0)" fill="#060606"/>
      </g>
    </g>
  </g>
</svg>
