<svg xmlns="http://www.w3.org/2000/svg" width="73" height="66" viewBox="0 0 73 66">
  <g id="Grupo_1116423" data-name="Grupo 1116423" transform="translate(-192.051 -2954)">
    <rect id="Rectángulo_405680" data-name="Rectángulo 405680" width="73" height="66" rx="11" transform="translate(192.051 2954)" fill="#e3eaf7"/>
    <g id="Grupo_1116417" data-name="Grupo 1116417" transform="translate(200.009 2958.25)">
      <path id="Trazado_1002152" data-name="Trazado 1002152" d="M39.562,18.083a.878.878,0,0,0-.259-.865.869.869,0,0,0-.874-.169c-.428.161-.83.321-1.231.491V14.31a15.826,15.826,0,0,0,2.364-4.638A.864.864,0,0,0,38.43,8.646c-.428.152-.83.321-1.231.482V7.415a.866.866,0,0,0-.865-.865H28.725a.866.866,0,0,0-.865.865V16.13a12.356,12.356,0,0,0-2.39,5.646.864.864,0,0,0,.357.785.946.946,0,0,0,.5.161.833.833,0,0,0,.357-.08c.41-.187.794-.384,1.177-.571v2.462a12.406,12.406,0,0,0-2.39,5.655.858.858,0,0,0,.357.776.874.874,0,0,0,.5.161.979.979,0,0,0,.357-.071c.41-.187.794-.384,1.177-.58v2.471a12.356,12.356,0,0,0-2.39,5.646.858.858,0,0,0,.357.776.874.874,0,0,0,.5.161.824.824,0,0,0,.357-.071c.41-.187.794-.384,1.177-.58v1.133a.829.829,0,0,0,.232.589L31.9,44.681a.85.85,0,0,0,.633.277.865.865,0,0,0,.633-.277l3.8-4.085a.829.829,0,0,0,.232-.589V31.123a15.942,15.942,0,0,0,2.364-4.638.857.857,0,0,0-.259-.856.831.831,0,0,0-.874-.169c-.428.152-.83.321-1.231.482V22.712a15.841,15.841,0,0,0,2.364-4.629ZM29.59,8.28h5.878V9.922a22,22,0,0,0-5.878,4.165Zm-1.989,12a12.477,12.477,0,0,1,1.7-3.2.813.813,0,0,0,.152-.205,19.312,19.312,0,0,1,7.68-5.824A21.731,21.731,0,0,1,27.6,20.277Zm7.867-3.818v1.873a21.988,21.988,0,0,0-5.878,4.156V21.133A25.378,25.378,0,0,0,35.468,16.46ZM27.619,28.67c.8-2.248,3.1-6.306,9.517-9.223A21.711,21.711,0,0,1,27.619,28.67Zm7.849-3.809v1.873a21.988,21.988,0,0,0-5.878,4.156V29.536a24.918,24.918,0,0,0,5.878-4.674Zm0,14.806-2.935,3.158L29.59,39.668V37.947a25.158,25.158,0,0,0,5.878-4.683ZM27.6,37.09a12.613,12.613,0,0,1,1.713-3.22.783.783,0,0,0,.107-.134,19.166,19.166,0,0,1,7.724-5.887A21.706,21.706,0,0,1,27.6,37.09Z" transform="translate(-2.752)"/>
      <path id="Trazado_1002153" data-name="Trazado 1002153" d="M37.395,11.59a21.731,21.731,0,0,1-9.535,9.232,12.477,12.477,0,0,1,1.7-3.2.813.813,0,0,0,.152-.205A19.312,19.312,0,0,1,37.395,11.59Z" transform="translate(-3.01 -0.545)" fill="#e0ded7"/>
      <path id="Trazado_1002154" data-name="Trazado 1002154" d="M37.4,21.01a21.711,21.711,0,0,1-9.517,9.223C28.683,27.985,30.984,23.927,37.4,21.01Z" transform="translate(-3.012 -1.562)" fill="#e0ded7"/>
      <path id="Trazado_1002155" data-name="Trazado 1002155" d="M37.4,30.43a21.706,21.706,0,0,1-9.544,9.241,12.613,12.613,0,0,1,1.713-3.22.783.783,0,0,0,.107-.134A19.166,19.166,0,0,1,37.4,30.43Z" transform="translate(-3.01 -2.58)" fill="#e0ded7"/>
      <g id="Grupo_1116416" data-name="Grupo 1116416" transform="translate(26.839 8.28)">
        <path id="Trazado_1002156" data-name="Trazado 1002156" d="M35.968,36.5v6.4l-2.935,3.158L30.09,42.9V41.183A25.158,25.158,0,0,0,35.968,36.5Z" transform="translate(-30.09 -11.516)" fill="#515b6c"/>
        <path id="Trazado_1002157" data-name="Trazado 1002157" d="M35.968,27.08v1.873A21.988,21.988,0,0,0,30.09,33.11V31.754A24.918,24.918,0,0,0,35.968,27.08Z" transform="translate(-30.09 -10.499)" fill="#515b6c"/>
        <path id="Trazado_1002158" data-name="Trazado 1002158" d="M35.968,17.66v1.873A21.988,21.988,0,0,0,30.09,23.69V22.334A25.378,25.378,0,0,0,35.968,17.66Z" transform="translate(-30.09 -9.481)" fill="#515b6c"/>
        <path id="Trazado_1002159" data-name="Trazado 1002159" d="M35.968,8.49v1.641A22,22,0,0,0,30.09,14.3V8.49Z" transform="translate(-30.09 -8.49)" fill="#515b6c"/>
      </g>
      <path id="Trazado_1002160" data-name="Trazado 1002160" d="M56.22,6.55H38.354a.86.86,0,0,0-.865.865V44.3a1.835,1.835,0,0,1-1.837,1.837H24.074A1.841,1.841,0,0,1,22.236,44.3V7.415a.86.86,0,0,0-.865-.865H.865A.86.86,0,0,0,0,7.415v43.67a.86.86,0,0,0,.865.865H56.22a.86.86,0,0,0,.865-.865V7.415A.86.86,0,0,0,56.22,6.55ZM1.73,8.28H20.506v4.371H1.73Zm0,6.1H20.506V36.769H1.73ZM55.355,50.22H1.73V38.491H20.506V44.3a3.573,3.573,0,0,0,3.568,3.568H35.651A3.567,3.567,0,0,0,39.219,44.3V38.491H55.355Zm0-13.451H39.219V14.381H55.355Zm0-24.118H39.219V8.28H55.355Z" transform="translate(0 0)"/>
      <path id="Trazado_1002161" data-name="Trazado 1002161" d="M1.94,8.49H20.716v4.371H1.94Z" transform="translate(-0.21 -0.21)" fill="#f9b986"/>
      <path id="Trazado_1002162" data-name="Trazado 1002162" d="M43.97,8.49H60.105v4.371H43.97Z" transform="translate(-4.751 -0.21)" fill="#f9b986"/>
      <path id="Trazado_1002163" data-name="Trazado 1002163" d="M1.94,15.33V37.718H20.716V15.33Zm2.7,6.743V19.54a.865.865,0,0,1,1.73,0v2.533a.865.865,0,0,1-1.73,0Zm2.926,9.6a.865.865,0,0,1-1.73,0V29.137a.865.865,0,1,1,1.73,0Zm4.977,3.158a.865.865,0,0,1-1.73,0V32.286a.865.865,0,1,1,1.73,0Zm0-8.928a.865.865,0,0,1-1.73,0V23.366a.865.865,0,0,1,1.73,0Zm5.37,5.093a.865.865,0,1,1-1.73,0V28.46a.865.865,0,0,1,1.73,0Zm0-9.267a.865.865,0,1,1-1.73,0V19.192a.865.865,0,0,1,1.73,0Z" transform="translate(-0.21 -0.949)" fill="#ef8626"/>
      <path id="Trazado_1002164" data-name="Trazado 1002164" d="M43.97,15.33V37.718H60.105V15.33Zm1.588,6.217V19.076a.861.861,0,1,1,1.721,0v2.471a.861.861,0,1,1-1.721,0Zm2.89,9.348a.865.865,0,0,1-1.73,0V28.424a.865.865,0,0,1,1.73,0Zm4.843,3.068a.865.865,0,0,1-1.73,0V31.492a.865.865,0,1,1,1.73,0Zm0-8.688a.865.865,0,0,1-1.73,0V22.8a.865.865,0,0,1,1.73,0Zm5.236,4.959a.865.865,0,1,1-1.73,0V27.764a.865.865,0,0,1,1.73,0Zm0-9.027a.865.865,0,0,1-1.73,0V18.737a.865.865,0,0,1,1.73,0Z" transform="translate(-4.751 -0.949)" fill="#ef8626"/>
      <path id="Trazado_1002165" data-name="Trazado 1002165" d="M39.429,42.36v5.807a3.567,3.567,0,0,1-3.568,3.568H24.283a3.573,3.573,0,0,1-3.568-3.568V42.36H1.94V54.089H55.564V42.36ZM3.938,45.116a.872.872,0,0,1,.865-.865H7.595a.865.865,0,0,1,0,1.73H4.8A.866.866,0,0,1,3.938,45.116Zm5.9,6.743H7.051a.865.865,0,1,1,0-1.73H9.834a.865.865,0,1,1,0,1.73ZM15.9,47.926H13.107a.865.865,0,1,1,0-1.73H15.9a.865.865,0,0,1,0,1.73Zm29.443.9H42.56a.865.865,0,1,1,0-1.73h2.783a.865.865,0,0,1,0,1.73Zm6.556,3.3H49.115a.865.865,0,1,1,0-1.73H51.9a.865.865,0,1,1,0,1.73Zm.33-6.788H49.436a.865.865,0,0,1,0-1.73h2.792a.865.865,0,0,1,0,1.73Z" transform="translate(-0.21 -3.869)" fill="#fe9d30"/>
      <path id="Trazado_1002166" data-name="Trazado 1002166" d="M6.7,19.945v2.533a.865.865,0,0,1-1.73,0V19.945a.865.865,0,1,1,1.73,0Z" transform="translate(-0.537 -1.354)"/>
      <path id="Trazado_1002167" data-name="Trazado 1002167" d="M13.62,24.235v2.533a.865.865,0,1,1-1.73,0V24.235a.865.865,0,0,1,1.73,0Z" transform="translate(-1.285 -1.817)"/>
      <path id="Trazado_1002168" data-name="Trazado 1002168" d="M13.62,34.235v2.542a.865.865,0,0,1-1.73,0V34.235a.865.865,0,1,1,1.73,0Z" transform="translate(-1.285 -2.898)"/>
      <path id="Trazado_1002169" data-name="Trazado 1002169" d="M19.64,29.945v2.533a.865.865,0,1,1-1.73,0V29.945a.865.865,0,1,1,1.73,0Z" transform="translate(-1.935 -2.434)"/>
      <path id="Trazado_1002170" data-name="Trazado 1002170" d="M8.04,30.705v2.533a.865.865,0,0,1-1.73,0V30.705a.865.865,0,0,1,1.73,0Z" transform="translate(-0.682 -2.516)"/>
      <path id="Trazado_1002171" data-name="Trazado 1002171" d="M19.64,19.555v2.533a.865.865,0,1,1-1.73,0V19.555a.865.865,0,1,1,1.73,0Z" transform="translate(-1.935 -1.312)"/>
      <path id="Trazado_1002172" data-name="Trazado 1002172" d="M47.471,19.425V21.9a.861.861,0,1,1-1.721,0V19.425a.861.861,0,1,1,1.721,0Z" transform="translate(-4.943 -1.298)"/>
      <path id="Trazado_1002173" data-name="Trazado 1002173" d="M54.21,23.605v2.471a.865.865,0,0,1-1.73,0V23.605a.865.865,0,0,1,1.73,0Z" transform="translate(-5.67 -1.749)"/>
      <path id="Trazado_1002174" data-name="Trazado 1002174" d="M54.21,33.345v2.471a.865.865,0,0,1-1.73,0V33.345a.865.865,0,0,1,1.73,0Z" transform="translate(-5.67 -2.802)"/>
      <path id="Trazado_1002175" data-name="Trazado 1002175" d="M60.08,29.165v2.471a.865.865,0,0,1-1.73,0V29.165a.865.865,0,0,1,1.73,0Z" transform="translate(-6.305 -2.35)"/>
      <path id="Trazado_1002176" data-name="Trazado 1002176" d="M48.78,29.905v2.471a.865.865,0,0,1-1.73,0V29.905a.865.865,0,0,1,1.73,0Z" transform="translate(-5.084 -2.43)"/>
      <path id="Trazado_1002177" data-name="Trazado 1002177" d="M60.08,19.045v2.471a.865.865,0,0,1-1.73,0V19.045a.865.865,0,0,1,1.73,0Z" transform="translate(-6.305 -1.257)"/>
      <path id="Trazado_1002178" data-name="Trazado 1002178" d="M8.7,45.345a.866.866,0,0,1-.865.865H5.045a.865.865,0,1,1,0-1.73H7.837A.872.872,0,0,1,8.7,45.345Z" transform="translate(-0.452 -4.098)"/>
      <path id="Trazado_1002179" data-name="Trazado 1002179" d="M58.742,44.625a.866.866,0,0,1-.865.865H55.085a.865.865,0,1,1,0-1.73h2.792A.872.872,0,0,1,58.742,44.625Z" transform="translate(-5.858 -4.02)"/>
      <path id="Trazado_1002180" data-name="Trazado 1002180" d="M51.023,48.535a.86.86,0,0,1-.865.865H47.375a.865.865,0,1,1,0-1.73h2.783A.86.86,0,0,1,51.023,48.535Z" transform="translate(-5.025 -4.443)"/>
      <path id="Trazado_1002181" data-name="Trazado 1002181" d="M58.373,52.235a.866.866,0,0,1-.865.865H54.725a.865.865,0,1,1,0-1.73h2.783A.872.872,0,0,1,58.373,52.235Z" transform="translate(-5.819 -4.843)"/>
      <path id="Trazado_1002182" data-name="Trazado 1002182" d="M18.012,47.525a.872.872,0,0,1-.865.865H14.355a.865.865,0,1,1,0-1.73h2.792A.866.866,0,0,1,18.012,47.525Z" transform="translate(-1.458 -4.334)"/>
      <path id="Trazado_1002183" data-name="Trazado 1002183" d="M11.213,51.935a.872.872,0,0,1-.865.865H7.565a.865.865,0,1,1,0-1.73h2.783A.866.866,0,0,1,11.213,51.935Z" transform="translate(-0.724 -4.81)"/>
    </g>
  </g>
</svg>
