<svg xmlns="http://www.w3.org/2000/svg" width="85" height="85" viewBox="0 0 85 85">
  <g id="Grupo_1113453" data-name="Grupo 1113453" transform="translate(-180 -806)">
    <rect id="Rectángulo_404722" data-name="Rectángulo 404722" width="85" height="85" transform="translate(180 806)" fill="none"/>
    <g id="Layer_x0020_1" transform="translate(189.64 815.641)">
      <g id="_238389504" transform="translate(0.36 0.36)">
        <g id="Grupo_1113451" data-name="Grupo 1113451">
          <path id="_238392072" d="M8.06,6.179A1.83,1.83,0,1,0,9.89,8.008,1.832,1.832,0,0,0,8.06,6.179Zm0,5.068A3.238,3.238,0,1,1,11.3,8.008,3.241,3.241,0,0,1,8.06,11.246Z" transform="translate(42.289 41.79)" fill-rule="evenodd"/>
          <path id="_238392000" d="M7.336,12.4a.7.7,0,0,1-.666-.475l-1.917-5.6A.7.7,0,0,1,4.913,5.6,5.928,5.928,0,0,1,9.1,4.2,5.926,5.926,0,0,1,13.286,5.6a.706.706,0,0,1,.16.717l-1.917,5.6a.7.7,0,0,1-1.333-.456l1.764-5.15A5.243,5.243,0,0,0,9.1,5.6a5.243,5.243,0,0,0-2.86.714L8,11.466a.7.7,0,0,1-.437.893.692.692,0,0,1-.228.038Z" transform="translate(41.25 36.286)" fill-rule="evenodd"/>
          <path id="_238391928" d="M9.728,13.878a.7.7,0,0,1-.531-.242L5.3,9.173a.7.7,0,1,1,1.06-.925l3.578,4.1a5.243,5.243,0,0,0,2.048-2.12A5.239,5.239,0,0,0,12.8,7.4l-5.34-1.05a.7.7,0,1,1,.271-1.381l5.812,1.142a.7.7,0,0,1,.54.5,5.922,5.922,0,0,1-.875,4.33A5.93,5.93,0,0,1,9.9,13.857a.757.757,0,0,1-.17.02Z" transform="translate(45.211 43.525)" fill-rule="evenodd"/>
          <path id="_238391856" d="M8.758,13.878a.687.687,0,0,1-.17-.022,5.919,5.919,0,0,1-3.312-2.922A5.927,5.927,0,0,1,4.4,6.6a.7.7,0,0,1,.541-.5l5.811-1.142a.7.7,0,1,1,.271,1.381L5.682,7.4a5.26,5.26,0,0,0,.812,2.834,5.254,5.254,0,0,0,2.048,2.12l3.58-4.1a.7.7,0,0,1,1.06.925L9.288,13.636a.7.7,0,0,1-.53.242Z" transform="translate(37.004 43.525)" fill-rule="evenodd"/>
          <path id="_238391784" d="M11.288,3.063C10.633,4.3,9.789,5.687,8.966,7.04c-.995,1.636-1.935,3.183-2.516,4.4a4.816,4.816,0,0,0,.126,4.75A5.989,5.989,0,0,0,11.288,19,5.988,5.988,0,0,0,16,16.191a4.815,4.815,0,0,0,.126-4.75c-.58-1.218-1.522-2.763-2.517-4.4-.822-1.353-1.665-2.74-2.321-3.977Zm0,17.348h-.034a7.423,7.423,0,0,1-5.886-3.5,6.264,6.264,0,0,1-.189-6.078c.613-1.281,1.57-2.857,2.585-4.525a52.188,52.188,0,0,0,2.881-5.125.7.7,0,0,1,1.287,0,51.716,51.716,0,0,0,2.881,5.125c1.014,1.668,1.972,3.244,2.583,4.525a6.259,6.259,0,0,1-.188,6.078,7.423,7.423,0,0,1-5.886,3.5h-.034Z" transform="translate(39.062 3.521)" fill-rule="evenodd"/>
          <path id="_238391712" d="M6.3,7.395a.7.7,0,0,1-.374-.108.7.7,0,0,1-.221-.97A2.572,2.572,0,0,0,5.78,3.7c-.148-.314-.312-.635-.5-.982A.7.7,0,0,1,6.519,2.05c.2.368.372.71.532,1.044A3.953,3.953,0,0,1,6.9,7.065a.706.706,0,0,1-.6.33Z" transform="translate(45.845 12.261)" fill-rule="evenodd"/>
          <path id="_238391640" d="M6.538,2.6a3.94,3.94,0,1,0,3.94,3.94A3.946,3.946,0,0,0,6.538,2.6Zm0,9.288a5.348,5.348,0,1,1,5.347-5.348,5.353,5.353,0,0,1-5.347,5.348Z" transform="translate(7.572 7.571)" fill-rule="evenodd"/>
          <path id="_238391568" d="M2.334,3.783a.7.7,0,0,1-.7-.7V1.442a.7.7,0,1,1,1.407,0V3.079a.7.7,0,0,1-.7.7Z" transform="translate(11.776 3.254)" fill-rule="evenodd"/>
          <path id="_238391496" d="M2.855,3.565a.7.7,0,0,1-.5-1.2L3.515,1.2a.7.7,0,0,1,1,1L3.352,3.358a.7.7,0,0,1-.5.207Z" transform="translate(16.753 5.75)" fill-rule="evenodd"/>
          <path id="_238391424" d="M4.708,3.037H3.071a.7.7,0,1,1,0-1.407H4.708a.7.7,0,0,1,0,1.407Z" transform="translate(18.815 11.775)" fill-rule="evenodd"/>
          <path id="_238391352" d="M4.013,4.716a.7.7,0,0,1-.5-.207L2.357,3.351a.7.7,0,1,1,1-.994L4.51,3.516a.7.7,0,0,1-.5,1.2Z" transform="translate(16.754 16.753)" fill-rule="evenodd"/>
          <path id="_238391280" d="M2.334,5.411a.7.7,0,0,1-.7-.7V3.07a.7.7,0,1,1,1.407,0V4.708A.7.7,0,0,1,2.334,5.411Z" transform="translate(11.776 18.815)" fill-rule="evenodd"/>
          <path id="_238391208" d="M1.7,4.716a.7.7,0,0,1-.5-1.2L2.364,2.358a.7.7,0,0,1,1,1L2.2,4.51a.7.7,0,0,1-.5.207Z" transform="translate(5.75 16.753)" fill-rule="evenodd"/>
          <path id="_238391136" d="M3.081,3.037H1.442a.7.7,0,1,1,0-1.407H3.081a.7.7,0,0,1,0,1.407Z" transform="translate(3.254 11.775)" fill-rule="evenodd"/>
          <path id="_238391064" d="M2.861,3.565a.7.7,0,0,1-.5-.207L1.206,2.2a.7.7,0,0,1,1-1L3.36,2.363a.7.7,0,0,1-.5,1.2Z" transform="translate(5.75 5.75)" fill-rule="evenodd"/>
          <path id="_238390992" d="M14.47,5.2a12.7,12.7,0,1,0,12.7,12.7A12.716,12.716,0,0,0,14.47,5.2Zm0,26.811A14.109,14.109,0,1,1,28.578,17.9,14.127,14.127,0,0,1,14.47,32.011Z" transform="translate(-0.36 32.446)" fill-rule="evenodd"/>
          <path id="_238390920" d="M17.9,5.2a12.7,12.7,0,1,0,12.7,12.7A12.717,12.717,0,0,0,17.9,5.2Zm0,26.811A14.109,14.109,0,1,1,32.011,17.9,14.126,14.126,0,0,1,17.9,32.011Z" transform="translate(32.446 32.446)" fill-rule="evenodd"/>
          <path id="_238390848" d="M17.9,1.767a12.7,12.7,0,1,0,12.7,12.7,12.717,12.717,0,0,0-12.7-12.7Zm0,26.811a14.109,14.109,0,1,1,14.108-14.11A14.126,14.126,0,0,1,17.9,28.578Z" transform="translate(32.446 -0.36)" fill-rule="evenodd"/>
          <path id="_238390776" d="M14.47,1.767a12.7,12.7,0,1,0,12.7,12.7,12.716,12.716,0,0,0-12.7-12.7Zm0,26.811a14.109,14.109,0,1,1,14.108-14.11A14.127,14.127,0,0,1,14.47,28.578Z" transform="translate(-0.36 -0.36)" fill-rule="evenodd"/>
          <path id="_238390680" d="M28.425,3.308a.7.7,0,0,1-.164-.019,20.94,20.94,0,0,0-9.65,0,.7.7,0,0,1-.327-1.369,22.369,22.369,0,0,1,10.3,0,.7.7,0,0,1-.162,1.388ZM2.607,29.125a.707.707,0,0,1-.685-.541,22.276,22.276,0,0,1,0-10.3.7.7,0,0,1,1.368.327,20.883,20.883,0,0,0,0,9.65.708.708,0,0,1-.684.868Zm41.658,0A.711.711,0,0,1,44.1,29.1a.7.7,0,0,1-.52-.847,20.848,20.848,0,0,0,0-9.649.7.7,0,1,1,1.369-.327,22.245,22.245,0,0,1,0,10.3.7.7,0,0,1-.683.541ZM23.435,45.55a22.2,22.2,0,0,1-5.152-.6.7.7,0,0,1,.327-1.369,20.921,20.921,0,0,0,9.65,0,.7.7,0,0,1,.327,1.369A22.212,22.212,0,0,1,23.435,45.55Z" transform="translate(8.794 8.796)" fill-rule="evenodd"/>
          <path id="_238390632" d="M3.213,14.786H5.872a.706.706,0,0,1,.7.792l-.717,5.732,5.394-7.33H8.587a.7.7,0,0,1-.7-.79l.717-5.732L3.213,14.786ZM4.82,24.6a.7.7,0,0,1-.26-.05.705.705,0,0,1-.438-.742l.953-7.62H1.822a.7.7,0,0,1-.568-1.12L9.072,4.449a.7.7,0,0,1,1.265.5l-.952,7.619h3.253a.705.705,0,0,1,.567,1.121L5.387,24.317a.7.7,0,0,1-.567.287Z" transform="translate(6.88 35.966)" fill-rule="evenodd"/>
        </g>
        <path id="_238390488" d="M16.629,3.927a12.7,12.7,0,1,0,12.7,12.7,12.717,12.717,0,0,0-12.7-12.7Zm-8.4,11.986,5.41-1.063a3.24,3.24,0,0,1,.433-.748L12.283,8.883a.7.7,0,0,1,.159-.717A5.928,5.928,0,0,1,16.629,6.76a5.926,5.926,0,0,1,4.187,1.406.706.706,0,0,1,.16.717L19.191,14.1a3.239,3.239,0,0,1,.433.748l5.41,1.063a.7.7,0,0,1,.54.5,5.922,5.922,0,0,1-.875,4.33,5.93,5.93,0,0,1-3.312,2.923.758.758,0,0,1-.17.02.7.7,0,0,1-.531-.242l-3.623-4.153a3.266,3.266,0,0,1-.869,0L12.571,23.44a.7.7,0,0,1-.53.242.687.687,0,0,1-.17-.022,5.919,5.919,0,0,1-3.312-2.922,5.927,5.927,0,0,1-.875-4.33A.7.7,0,0,1,8.225,15.912Z" transform="translate(33.72 33.721)" fill="#93f9e5" fill-rule="evenodd"/>
        <path id="_238390392" d="M25.9,16.628a12.7,12.7,0,1,0-12.7,12.7A12.716,12.716,0,0,0,25.9,16.628ZM16.3,7.2l-.952,7.619H18.6a.705.705,0,0,1,.567,1.121L11.353,26.562a.7.7,0,0,1-.567.287.7.7,0,0,1-.26-.05.705.705,0,0,1-.438-.742l.953-7.62H7.788a.7.7,0,0,1-.568-1.12L15.038,6.694a.7.7,0,0,1,1.265.5Z" transform="translate(0.914 33.721)" fill="#93f9e5" fill-rule="evenodd"/>
        <path id="_238390296" d="M13.2,25.9a12.7,12.7,0,1,0-12.7-12.7A12.716,12.716,0,0,0,13.2,25.9Zm6.657-5.342a.7.7,0,0,1-.5-.207L18.2,19.19a.7.7,0,1,1,1-.994l1.158,1.158a.7.7,0,0,1-.5,1.2Zm-5.953.416v1.637a.7.7,0,0,1-1.408,0V20.971a.7.7,0,1,1,1.407,0Zm8.71-7.073H20.972a.7.7,0,1,1,0-1.407h1.638a.7.7,0,0,1,0,1.407Zm-4.066-.7A5.348,5.348,0,1,1,13.2,7.846a5.353,5.353,0,0,1,5.348,5.348ZM18.694,8.4a.7.7,0,0,1-.5-1.2L19.354,6.04a.7.7,0,0,1,1,1L19.192,8.194a.7.7,0,0,1-.5.207ZM13.2,6.122a.7.7,0,0,1-.7-.7V3.781a.7.7,0,1,1,1.407,0V5.419a.7.7,0,0,1-.7.7ZM7.7,8.4a.7.7,0,0,1-.5-.207L6.042,7.036a.7.7,0,0,1,1-1L8.2,7.2a.7.7,0,0,1-.5,1.2ZM5.42,13.9H3.782a.7.7,0,1,1,0-1.407H5.42a.7.7,0,0,1,0,1.407Zm1.616,6.45a.7.7,0,0,1-.994-.994L7.2,18.2a.7.7,0,0,1,1,1L7.036,20.348Z" transform="translate(0.914 0.914)" fill="#93f9e5" fill-rule="evenodd"/>
        <path id="_238390200" d="M5.264,9.2a3.94,3.94,0,1,0-3.94-3.941A3.944,3.944,0,0,0,5.264,9.2Z" transform="translate(8.846 8.845)" fill="#ffe600" fill-rule="evenodd"/>
        <path id="_238390104" d="M7.695,4.961C6.7,6.6,5.76,8.143,5.179,9.362a4.816,4.816,0,0,0,.126,4.75,5.989,5.989,0,0,0,4.712,2.812,5.988,5.988,0,0,0,4.712-2.812,4.815,4.815,0,0,0,.126-4.75c-.58-1.218-1.522-2.763-2.517-4.4-.822-1.353-1.665-2.74-2.321-3.977-.655,1.237-1.5,2.624-2.322,3.977Zm3.524,8.016a2.572,2.572,0,0,0,.073-2.615c-.148-.314-.312-.635-.5-.982a.7.7,0,0,1,1.239-.668c.2.368.372.71.532,1.044a3.953,3.953,0,0,1-.152,3.971.706.706,0,0,1-.6.33.7.7,0,0,1-.374-.108.7.7,0,0,1-.221-.97Z" transform="translate(40.333 5.6)" fill="#4cf" fill-rule="evenodd"/>
        <path id="_238390008" d="M10.521,13.44c.613-1.281,1.57-2.857,2.585-4.525A52.188,52.188,0,0,0,15.986,3.79a.7.7,0,0,1,1.287,0,51.714,51.714,0,0,0,2.881,5.125c1.014,1.668,1.972,3.244,2.583,4.525a6.259,6.259,0,0,1-.188,6.078,7.423,7.423,0,0,1-5.886,3.5H16.6a7.423,7.423,0,0,1-5.886-3.5,6.264,6.264,0,0,1-.189-6.078ZM16.629.493a12.7,12.7,0,1,0,12.7,12.7,12.717,12.717,0,0,0-12.7-12.7Z" transform="translate(33.72 0.914)" fill="#93f9e5" fill-rule="evenodd"/>
        <path id="_238389912" d="M6.162,10.758a.7.7,0,0,1-.17-.553L6.71,4.474,1.316,11.8H3.975a.706.706,0,0,1,.7.792l-.717,5.732L9.35,11H6.691a.707.707,0,0,1-.528-.237Z" transform="translate(8.777 38.949)" fill="#ffe600" fill-rule="evenodd"/>
        <g id="Grupo_1113452" data-name="Grupo 1113452" transform="translate(42.678 41.888)">
          <path id="_238389816" d="M4.957,6.734A1.834,1.834,0,0,0,6.265,8.489l.041.012a1.834,1.834,0,0,0,.962,0l.039-.011A1.833,1.833,0,0,0,8.564,6.3l-.007-.029a1.83,1.83,0,0,0-3.542,0L5.008,6.3a1.827,1.827,0,0,0-.052.432Z" transform="translate(0.885 1.176)" fill="#17ace8" fill-rule="evenodd"/>
          <path id="_238389720" d="M10.245,7.52A3.24,3.24,0,0,1,8.848,5.1l-4.436.872a5.26,5.26,0,0,0,.812,2.834,5.254,5.254,0,0,0,2.048,2.12L10.245,7.52Z" transform="translate(-4.403 3.06)" fill="#17ace8" fill-rule="evenodd"/>
          <path id="_238389624" d="M7.719,9a3.218,3.218,0,0,1,1.4.317L10.58,5.042a5.243,5.243,0,0,0-2.86-.714,5.243,5.243,0,0,0-2.86.714L6.323,9.319A3.217,3.217,0,0,1,7.719,9Z" transform="translate(-0.048 -4.328)" fill="#17ace8" fill-rule="evenodd"/>
          <path id="_238389552" d="M6.7,5.1A3.239,3.239,0,0,1,5.3,7.52l2.972,3.407a5.242,5.242,0,0,0,2.048-2.12,5.239,5.239,0,0,0,.812-2.834L6.7,5.1Z" transform="translate(4.199 3.06)" fill="#17ace8" fill-rule="evenodd"/>
        </g>
      </g>
    </g>
  </g>
</svg>
